  0
SECTION
  2
HEADER
  9
$ACADVER
  1
AC1009
  9
$EXTMIN
 10
0.0
 20
0.0
 30
0.0
  9
$EXTMAX
 10
1000.0
 20
1000.0
 30
0.0
  9
$FILLMODE
 70
 0
  9
$SPLFRAME
 70
 1
  0
ENDSEC
  0
SECTION
  2
TABLES
  0
TABLE
  2
LAYER
 70
1
  0
LAYER
  2
0
 70
     0
 62
     7
  6
CONTINUOUS
  0
ENDTAB
  0
ENDSEC
  0
SECTION
  2
ENTITIES
  0
POLYLINE
  8
0
 62
     0
 66
     1
 10
0
 20
0
 30
0.0
 40
0.216
 41
0.216
  0
VERTEX
  8
0
 10
4.09901
 20
2.94851
 30
0.0
 40
0.003
 41
0.003
  0
VERTEX
  8
0
 10
4.19749
 20
2.94851
 30
0.0
 40
0.003
 41
0.003
  0
SEQEND
 8
0
  0
POLYLINE
  8
0
 62
     0
 66
     1
 10
0
 20
0
 30
0.0
 40
0.216
 41
0.216
  0
VERTEX
  8
0
 10
4.78803
 20
2.94851
 30
0.0
 40
0.003
 41
0.003
  0
VERTEX
  8
0
 10
4.88644
 20
2.94851
 30
0.0
 40
0.003
 41
0.003
  0
SEQEND
 8
0
  0
POLYLINE
  8
0
 62
     0
 66
     1
 10
0
 20
0
 30
0.0
 40
0.216
 41
0.216
  0
VERTEX
  8
0
 10
4.78803
 20
3.19851
 30
0.0
 40
0.003
 41
0.003
  0
VERTEX
  8
0
 10
4.57937
 20
3.19851
 30
0.0
 40
0.003
 41
0.003
  0
SEQEND
 8
0
  0
POLYLINE
  8
0
 62
     0
 66
     1
 10
0
 20
0
 30
0.0
 40
0.216
 41
0.216
  0
VERTEX
  8
0
 10
4.40614
 20
3.19851
 30
0.0
 40
0.003
 41
0.003
  0
VERTEX
  8
0
 10
4.19749
 20
3.19851
 30
0.0
 40
0.003
 41
0.003
  0
SEQEND
 8
0
  0
POLYLINE
  8
0
 62
     0
 66
     1
 10
0
 20
0
 30
0.0
 40
0.216
 41
0.216
  0
VERTEX
  8
0
 10
4.3156
 20
3.39535
 30
0.0
 40
0.003
 41
0.003
  0
VERTEX
  8
0
 10
4.40614
 20
3.39535
 30
0.0
 40
0.003
 41
0.003
  0
SEQEND
 8
0
  0
POLYLINE
  8
0
 62
     0
 66
     1
 10
0
 20
0
 30
0.0
 40
0.216
 41
0.216
  0
VERTEX
  8
0
 10
4.57937
 20
3.39535
 30
0.0
 40
0.003
 41
0.003
  0
VERTEX
  8
0
 10
4.66992
 20
3.39535
 30
0.0
 40
0.003
 41
0.003
  0
SEQEND
 8
0
  0
POLYLINE
  8
0
 62
     0
 66
     1
 10
0
 20
0
 30
0.0
 40
0.216
 41
0.216
  0
VERTEX
  8
0
 10
4.3156
 20
3.55285
 30
0.0
 40
0.003
 41
0.003
  0
VERTEX
  8
0
 10
4.40614
 20
3.55285
 30
0.0
 40
0.003
 41
0.003
  0
SEQEND
 8
0
  0
POLYLINE
  8
0
 62
     0
 66
     1
 10
0
 20
0
 30
0.0
 40
0.216
 41
0.216
  0
VERTEX
  8
0
 10
4.57937
 20
3.55285
 30
0.0
 40
0.003
 41
0.003
  0
VERTEX
  8
0
 10
4.66992
 20
3.55285
 30
0.0
 40
0.003
 41
0.003
  0
SEQEND
 8
0
  0
POLYLINE
  8
0
 62
     0
 66
     1
 10
0
 20
0
 30
0.0
 40
0.216
 41
0.216
  0
VERTEX
  8
0
 10
4.40614
 20
3.7379
 30
0.0
 40
0.003
 41
0.003
  0
VERTEX
  8
0
 10
4.57937
 20
3.7379
 30
0.0
 40
0.003
 41
0.003
  0
SEQEND
 8
0
  0
POLYLINE
  8
0
 62
     0
 66
     1
 10
0
 20
0
 30
0.0
 40
0.216
 41
0.216
  0
VERTEX
  8
0
 10
-5.22775
 20
4.3781
 30
0.0
 40
0.003
 41
0.003
  0
VERTEX
  8
0
 10
1.85889
 20
4.3781
 30
0.0
 40
0.003
 41
0.003
  0
SEQEND
 8
0
  0
POLYLINE
  8
0
 62
     0
 66
     1
 10
0
 20
0
 30
0.0
 40
0.216
 41
0.216
  0
VERTEX
  8
0
 10
6.46121
 20
4.62175
 30
0.0
 40
0.003
 41
0.003
  0
VERTEX
  8
0
 10
6.21121
 20
4.62175
 30
0.0
 40
0.003
 41
0.003
  0
SEQEND
 8
0
  0
POLYLINE
  8
0
 62
     0
 66
     1
 10
0
 20
0
 30
0.0
 40
0.216
 41
0.216
  0
VERTEX
  8
0
 10
2.52425
 20
4.62175
 30
0.0
 40
0.003
 41
0.003
  0
VERTEX
  8
0
 10
2.77425
 20
4.62175
 30
0.0
 40
0.003
 41
0.003
  0
SEQEND
 8
0
  0
POLYLINE
  8
0
 62
     0
 66
     1
 10
0
 20
0
 30
0.0
 40
0.216
 41
0.216
  0
VERTEX
  8
0
 10
6.01438
 20
4.73986
 30
0.0
 40
0.003
 41
0.003
  0
VERTEX
  8
0
 10
5.85693
 20
4.73986
 30
0.0
 40
0.003
 41
0.003
  0
SEQEND
 8
0
  0
POLYLINE
  8
0
 62
     0
 66
     1
 10
0
 20
0
 30
0.0
 40
0.216
 41
0.216
  0
VERTEX
  8
0
 10
2.97108
 20
4.73986
 30
0.0
 40
0.003
 41
0.003
  0
VERTEX
  8
0
 10
3.12858
 20
4.73986
 30
0.0
 40
0.003
 41
0.003
  0
SEQEND
 8
0
  0
POLYLINE
  8
0
 62
     0
 66
     1
 10
0
 20
0
 30
0.0
 40
0.216
 41
0.216
  0
VERTEX
  8
0
 10
6.21121
 20
4.8304
 30
0.0
 40
0.003
 41
0.003
  0
VERTEX
  8
0
 10
6.01438
 20
4.8304
 30
0.0
 40
0.003
 41
0.003
  0
SEQEND
 8
0
  0
POLYLINE
  8
0
 62
     0
 66
     1
 10
0
 20
0
 30
0.0
 40
0.216
 41
0.216
  0
VERTEX
  8
0
 10
5.85693
 20
4.8304
 30
0.0
 40
0.003
 41
0.003
  0
VERTEX
  8
0
 10
5.67188
 20
4.8304
 30
0.0
 40
0.003
 41
0.003
  0
SEQEND
 8
0
  0
POLYLINE
  8
0
 62
     0
 66
     1
 10
0
 20
0
 30
0.0
 40
0.216
 41
0.216
  0
VERTEX
  8
0
 10
2.77425
 20
4.8304
 30
0.0
 40
0.003
 41
0.003
  0
VERTEX
  8
0
 10
2.97108
 20
4.8304
 30
0.0
 40
0.003
 41
0.003
  0
SEQEND
 8
0
  0
POLYLINE
  8
0
 62
     0
 66
     1
 10
0
 20
0
 30
0.0
 40
0.216
 41
0.216
  0
VERTEX
  8
0
 10
3.12858
 20
4.8304
 30
0.0
 40
0.003
 41
0.003
  0
VERTEX
  8
0
 10
3.31358
 20
4.8304
 30
0.0
 40
0.003
 41
0.003
  0
SEQEND
 8
0
  0
POLYLINE
  8
0
 62
     0
 66
     1
 10
0
 20
0
 30
0.0
 40
0.216
 41
0.216
  0
VERTEX
  8
0
 10
6.21121
 20
5.00364
 30
0.0
 40
0.003
 41
0.003
  0
VERTEX
  8
0
 10
6.01438
 20
5.00364
 30
0.0
 40
0.003
 41
0.003
  0
SEQEND
 8
0
  0
POLYLINE
  8
0
 62
     0
 66
     1
 10
0
 20
0
 30
0.0
 40
0.216
 41
0.216
  0
VERTEX
  8
0
 10
5.85693
 20
5.00364
 30
0.0
 40
0.003
 41
0.003
  0
VERTEX
  8
0
 10
5.67188
 20
5.00364
 30
0.0
 40
0.003
 41
0.003
  0
SEQEND
 8
0
  0
POLYLINE
  8
0
 62
     0
 66
     1
 10
0
 20
0
 30
0.0
 40
0.216
 41
0.216
  0
VERTEX
  8
0
 10
2.77425
 20
5.00364
 30
0.0
 40
0.003
 41
0.003
  0
VERTEX
  8
0
 10
2.97108
 20
5.00364
 30
0.0
 40
0.003
 41
0.003
  0
SEQEND
 8
0
  0
POLYLINE
  8
0
 62
     0
 66
     1
 10
0
 20
0
 30
0.0
 40
0.216
 41
0.216
  0
VERTEX
  8
0
 10
3.12858
 20
5.00364
 30
0.0
 40
0.003
 41
0.003
  0
VERTEX
  8
0
 10
3.31358
 20
5.00364
 30
0.0
 40
0.003
 41
0.003
  0
SEQEND
 8
0
  0
POLYLINE
  8
0
 62
     0
 66
     1
 10
0
 20
0
 30
0.0
 40
0.216
 41
0.216
  0
VERTEX
  8
0
 10
6.01438
 20
5.09418
 30
0.0
 40
0.003
 41
0.003
  0
VERTEX
  8
0
 10
5.85693
 20
5.09418
 30
0.0
 40
0.003
 41
0.003
  0
SEQEND
 8
0
  0
POLYLINE
  8
0
 62
     0
 66
     1
 10
0
 20
0
 30
0.0
 40
0.216
 41
0.216
  0
VERTEX
  8
0
 10
2.97108
 20
5.09418
 30
0.0
 40
0.003
 41
0.003
  0
VERTEX
  8
0
 10
3.12858
 20
5.09418
 30
0.0
 40
0.003
 41
0.003
  0
SEQEND
 8
0
  0
POLYLINE
  8
0
 62
     0
 66
     1
 10
0
 20
0
 30
0.0
 40
0.216
 41
0.216
  0
VERTEX
  8
0
 10
6.46121
 20
5.21229
 30
0.0
 40
0.003
 41
0.003
  0
VERTEX
  8
0
 10
6.21121
 20
5.21229
 30
0.0
 40
0.003
 41
0.003
  0
SEQEND
 8
0
  0
POLYLINE
  8
0
 62
     0
 66
     1
 10
0
 20
0
 30
0.0
 40
0.216
 41
0.216
  0
VERTEX
  8
0
 10
2.52425
 20
5.21229
 30
0.0
 40
0.003
 41
0.003
  0
VERTEX
  8
0
 10
2.77425
 20
5.21229
 30
0.0
 40
0.003
 41
0.003
  0
SEQEND
 8
0
  0
POLYLINE
  8
0
 62
     0
 66
     1
 10
0
 20
0
 30
0.0
 40
0.216
 41
0.216
  0
VERTEX
  8
0
 10
4.57937
 20
6.09614
 30
0.0
 40
0.003
 41
0.003
  0
VERTEX
  8
0
 10
4.40614
 20
6.09614
 30
0.0
 40
0.003
 41
0.003
  0
SEQEND
 8
0
  0
POLYLINE
  8
0
 62
     0
 66
     1
 10
0
 20
0
 30
0.0
 40
0.216
 41
0.216
  0
VERTEX
  8
0
 10
4.66992
 20
6.28119
 30
0.0
 40
0.003
 41
0.003
  0
VERTEX
  8
0
 10
4.57937
 20
6.28119
 30
0.0
 40
0.003
 41
0.003
  0
SEQEND
 8
0
  0
POLYLINE
  8
0
 62
     0
 66
     1
 10
0
 20
0
 30
0.0
 40
0.216
 41
0.216
  0
VERTEX
  8
0
 10
4.40614
 20
6.28119
 30
0.0
 40
0.003
 41
0.003
  0
VERTEX
  8
0
 10
4.3156
 20
6.28119
 30
0.0
 40
0.003
 41
0.003
  0
SEQEND
 8
0
  0
POLYLINE
  8
0
 62
     0
 66
     1
 10
0
 20
0
 30
0.0
 40
0.216
 41
0.216
  0
VERTEX
  8
0
 10
4.66992
 20
6.43869
 30
0.0
 40
0.003
 41
0.003
  0
VERTEX
  8
0
 10
4.57937
 20
6.43869
 30
0.0
 40
0.003
 41
0.003
  0
SEQEND
 8
0
  0
POLYLINE
  8
0
 62
     0
 66
     1
 10
0
 20
0
 30
0.0
 40
0.216
 41
0.216
  0
VERTEX
  8
0
 10
4.40614
 20
6.43869
 30
0.0
 40
0.003
 41
0.003
  0
VERTEX
  8
0
 10
4.3156
 20
6.43869
 30
0.0
 40
0.003
 41
0.003
  0
SEQEND
 8
0
  0
POLYLINE
  8
0
 62
     0
 66
     1
 10
0
 20
0
 30
0.0
 40
0.216
 41
0.216
  0
VERTEX
  8
0
 10
4.19749
 20
6.63553
 30
0.0
 40
0.003
 41
0.003
  0
VERTEX
  8
0
 10
4.40614
 20
6.63553
 30
0.0
 40
0.003
 41
0.003
  0
SEQEND
 8
0
  0
POLYLINE
  8
0
 62
     0
 66
     1
 10
0
 20
0
 30
0.0
 40
0.216
 41
0.216
  0
VERTEX
  8
0
 10
4.57937
 20
6.63553
 30
0.0
 40
0.003
 41
0.003
  0
VERTEX
  8
0
 10
4.78803
 20
6.63553
 30
0.0
 40
0.003
 41
0.003
  0
SEQEND
 8
0
  0
POLYLINE
  8
0
 62
     0
 66
     1
 10
0
 20
0
 30
0.0
 40
0.216
 41
0.216
  0
VERTEX
  8
0
 10
2.57146
 20
8.14567
 30
0.0
 40
0.003
 41
0.003
  0
VERTEX
  8
0
 10
2.37463
 20
7.55512
 30
0.0
 40
0.003
 41
0.003
  0
SEQEND
 8
0
  0
POLYLINE
  8
0
 62
     0
 66
     1
 10
0
 20
0
 30
0.0
 40
0.216
 41
0.216
  0
VERTEX
  8
0
 10
4.88644
 20
6.88553
 30
0.0
 40
0.003
 41
0.003
  0
VERTEX
  8
0
 10
4.78803
 20
6.88553
 30
0.0
 40
0.003
 41
0.003
  0
SEQEND
 8
0
  0
POLYLINE
  8
0
 62
     0
 66
     1
 10
0
 20
0
 30
0.0
 40
0.216
 41
0.216
  0
VERTEX
  8
0
 10
4.19749
 20
6.88553
 30
0.0
 40
0.003
 41
0.003
  0
VERTEX
  8
0
 10
4.09901
 20
6.88553
 30
0.0
 40
0.003
 41
0.003
  0
SEQEND
 8
0
  0
POLYLINE
  8
0
 62
     0
 66
     1
 10
0
 20
0
 30
0.0
 40
0.216
 41
0.216
  0
VERTEX
  8
0
 10
3.85243
 20
4.61079
 30
0.0
 40
0.003
 41
0.003
  0
VERTEX
  8
0
 10
4.18653
 20
4.27675
 30
0.0
 40
0.003
 41
0.003
  0
SEQEND
 8
0
  0
POLYLINE
  8
0
 62
     0
 66
     1
 10
0
 20
0
 30
0.0
 40
0.216
 41
0.216
  0
VERTEX
  8
0
 10
2.25256
 20
4.77181
 30
0.0
 40
0.003
 41
0.003
  0
VERTEX
  8
0
 10
2.25256
 20
8.90565
 30
0.0
 40
0.003
 41
0.003
  0
SEQEND
 8
0
  0
POLYLINE
  8
0
 62
     0
 66
     1
 10
0
 20
0
 30
0.0
 40
0.216
 41
0.216
  0
VERTEX
  8
0
 10
2.37463
 20
7.55512
 30
0.0
 40
0.003
 41
0.003
  0
VERTEX
  8
0
 10
2.37463
 20
7.30512
 30
0.0
 40
0.003
 41
0.003
  0
SEQEND
 8
0
  0
POLYLINE
  8
0
 62
     0
 66
     1
 10
0
 20
0
 30
0.0
 40
0.216
 41
0.216
  0
VERTEX
  8
0
 10
2.52425
 20
5.31071
 30
0.0
 40
0.003
 41
0.003
  0
VERTEX
  8
0
 10
2.52425
 20
5.21229
 30
0.0
 40
0.003
 41
0.003
  0
SEQEND
 8
0
  0
POLYLINE
  8
0
 62
     0
 66
     1
 10
0
 20
0
 30
0.0
 40
0.216
 41
0.216
  0
VERTEX
  8
0
 10
2.52425
 20
4.62175
 30
0.0
 40
0.003
 41
0.003
  0
VERTEX
  8
0
 10
2.52425
 20
4.52333
 30
0.0
 40
0.003
 41
0.003
  0
SEQEND
 8
0
  0
POLYLINE
  8
0
 62
     0
 66
     1
 10
0
 20
0
 30
0.0
 40
0.216
 41
0.216
  0
VERTEX
  8
0
 10
2.57146
 20
8.5459
 30
0.0
 40
0.003
 41
0.003
  0
VERTEX
  8
0
 10
2.57146
 20
8.14567
 30
0.0
 40
0.003
 41
0.003
  0
SEQEND
 8
0
  0
POLYLINE
  8
0
 62
     0
 66
     1
 10
0
 20
0
 30
0.0
 40
0.216
 41
0.216
  0
VERTEX
  8
0
 10
7.68956
 20
7.30512
 30
0.0
 40
0.003
 41
0.003
  0
VERTEX
  8
0
 10
7.43956
 20
7.30512
 30
0.0
 40
0.003
 41
0.003
  0
SEQEND
 8
0
  0
POLYLINE
  8
0
 62
     0
 66
     1
 10
0
 20
0
 30
0.0
 40
0.216
 41
0.216
  0
VERTEX
  8
0
 10
6.75846
 20
7.30512
 30
0.0
 40
0.003
 41
0.003
  0
VERTEX
  8
0
 10
6.50846
 20
7.30512
 30
0.0
 40
0.003
 41
0.003
  0
SEQEND
 8
0
  0
POLYLINE
  8
0
 62
     0
 66
     1
 10
0
 20
0
 30
0.0
 40
0.216
 41
0.216
  0
VERTEX
  8
0
 10
6.31164
 20
7.30512
 30
0.0
 40
0.003
 41
0.003
  0
VERTEX
  8
0
 10
6.06164
 20
7.30512
 30
0.0
 40
0.003
 41
0.003
  0
SEQEND
 8
0
  0
POLYLINE
  8
0
 62
     0
 66
     1
 10
0
 20
0
 30
0.0
 40
0.216
 41
0.216
  0
VERTEX
  8
0
 10
5.38053
 20
7.30512
 30
0.0
 40
0.003
 41
0.003
  0
VERTEX
  8
0
 10
5.13053
 20
7.30512
 30
0.0
 40
0.003
 41
0.003
  0
SEQEND
 8
0
  0
POLYLINE
  8
0
 62
     0
 66
     1
 10
0
 20
0
 30
0.0
 40
0.216
 41
0.216
  0
VERTEX
  8
0
 10
4.93371
 20
7.30512
 30
0.0
 40
0.003
 41
0.003
  0
VERTEX
  8
0
 10
4.68371
 20
7.30512
 30
0.0
 40
0.003
 41
0.003
  0
SEQEND
 8
0
  0
POLYLINE
  8
0
 62
     0
 66
     1
 10
0
 20
0
 30
0.0
 40
0.216
 41
0.216
  0
VERTEX
  8
0
 10
4.00256
 20
7.30512
 30
0.0
 40
0.003
 41
0.003
  0
VERTEX
  8
0
 10
3.75256
 20
7.30512
 30
0.0
 40
0.003
 41
0.003
  0
SEQEND
 8
0
  0
POLYLINE
  8
0
 62
     0
 66
     1
 10
0
 20
0
 30
0.0
 40
0.216
 41
0.216
  0
VERTEX
  8
0
 10
3.55572
 20
7.30512
 30
0.0
 40
0.003
 41
0.003
  0
VERTEX
  8
0
 10
3.30572
 20
7.30512
 30
0.0
 40
0.003
 41
0.003
  0
SEQEND
 8
0
  0
POLYLINE
  8
0
 62
     0
 66
     1
 10
0
 20
0
 30
0.0
 40
0.216
 41
0.216
  0
VERTEX
  8
0
 10
2.62463
 20
7.30512
 30
0.0
 40
0.003
 41
0.003
  0
VERTEX
  8
0
 10
2.37463
 20
7.30512
 30
0.0
 40
0.003
 41
0.003
  0
SEQEND
 8
0
  0
POLYLINE
  8
0
 62
     0
 66
     1
 10
0
 20
0
 30
0.0
 40
0.216
 41
0.216
  0
VERTEX
  8
0
 10
2.62463
 20
7.55512
 30
0.0
 40
0.003
 41
0.003
  0
VERTEX
  8
0
 10
2.87858
 20
7.55512
 30
0.0
 40
0.003
 41
0.003
  0
SEQEND
 8
0
  0
POLYLINE
  8
0
 62
     0
 66
     1
 10
0
 20
0
 30
0.0
 40
0.216
 41
0.216
  0
VERTEX
  8
0
 10
3.05181
 20
7.55512
 30
0.0
 40
0.003
 41
0.003
  0
VERTEX
  8
0
 10
3.30572
 20
7.55512
 30
0.0
 40
0.003
 41
0.003
  0
SEQEND
 8
0
  0
POLYLINE
  8
0
 62
     0
 66
     1
 10
0
 20
0
 30
0.0
 40
0.216
 41
0.216
  0
VERTEX
  8
0
 10
4.00256
 20
7.55512
 30
0.0
 40
0.003
 41
0.003
  0
VERTEX
  8
0
 10
4.25651
 20
7.55512
 30
0.0
 40
0.003
 41
0.003
  0
SEQEND
 8
0
  0
POLYLINE
  8
0
 62
     0
 66
     1
 10
0
 20
0
 30
0.0
 40
0.216
 41
0.216
  0
VERTEX
  8
0
 10
4.42974
 20
7.55512
 30
0.0
 40
0.003
 41
0.003
  0
VERTEX
  8
0
 10
4.68371
 20
7.55512
 30
0.0
 40
0.003
 41
0.003
  0
SEQEND
 8
0
  0
POLYLINE
  8
0
 62
     0
 66
     1
 10
0
 20
0
 30
0.0
 40
0.216
 41
0.216
  0
VERTEX
  8
0
 10
5.38053
 20
7.55512
 30
0.0
 40
0.003
 41
0.003
  0
VERTEX
  8
0
 10
5.63444
 20
7.55512
 30
0.0
 40
0.003
 41
0.003
  0
SEQEND
 8
0
  0
POLYLINE
  8
0
 62
     0
 66
     1
 10
0
 20
0
 30
0.0
 40
0.216
 41
0.216
  0
VERTEX
  8
0
 10
5.80767
 20
7.55512
 30
0.0
 40
0.003
 41
0.003
  0
VERTEX
  8
0
 10
6.06164
 20
7.55512
 30
0.0
 40
0.003
 41
0.003
  0
SEQEND
 8
0
  0
POLYLINE
  8
0
 62
     0
 66
     1
 10
0
 20
0
 30
0.0
 40
0.216
 41
0.216
  0
VERTEX
  8
0
 10
6.75846
 20
7.55512
 30
0.0
 40
0.003
 41
0.003
  0
VERTEX
  8
0
 10
7.01243
 20
7.55512
 30
0.0
 40
0.003
 41
0.003
  0
SEQEND
 8
0
  0
POLYLINE
  8
0
 62
     0
 66
     1
 10
0
 20
0
 30
0.0
 40
0.216
 41
0.216
  0
VERTEX
  8
0
 10
7.18565
 20
7.55512
 30
0.0
 40
0.003
 41
0.003
  0
VERTEX
  8
0
 10
7.43956
 20
7.55512
 30
0.0
 40
0.003
 41
0.003
  0
SEQEND
 8
0
  0
POLYLINE
  8
0
 62
     0
 66
     1
 10
0
 20
0
 30
0.0
 40
0.216
 41
0.216
  0
VERTEX
  8
0
 10
3.43485
 20
5.6965
 30
0.0
 40
0.003
 41
0.003
  0
VERTEX
  8
0
 10
3.79676
 20
5.33458
 30
0.0
 40
0.003
 41
0.003
  0
SEQEND
 8
0
  0
POLYLINE
  8
0
 62
     0
 66
     1
 10
0
 20
0
 30
0.0
 40
0.216
 41
0.216
  0
VERTEX
  8
0
 10
2.62463
 20
7.55512
 30
0.0
 40
0.003
 41
0.003
  0
VERTEX
  8
0
 10
2.62463
 20
7.30512
 30
0.0
 40
0.003
 41
0.003
  0
SEQEND
 8
0
  0
POLYLINE
  8
0
 62
     0
 66
     1
 10
0
 20
0
 30
0.0
 40
0.216
 41
0.216
  0
VERTEX
  8
0
 10
2.66992
 20
8.7959
 30
0.0
 40
0.003
 41
0.003
  0
VERTEX
  8
0
 10
2.66992
 20
8.5459
 30
0.0
 40
0.003
 41
0.003
  0
SEQEND
 8
0
  0
POLYLINE
  8
0
 62
     0
 66
     1
 10
0
 20
0
 30
0.0
 40
0.216
 41
0.216
  0
VERTEX
  8
0
 10
2.77425
 20
4.62175
 30
0.0
 40
0.003
 41
0.003
  0
VERTEX
  8
0
 10
2.77425
 20
4.8304
 30
0.0
 40
0.003
 41
0.003
  0
SEQEND
 8
0
  0
POLYLINE
  8
0
 62
     0
 66
     1
 10
0
 20
0
 30
0.0
 40
0.216
 41
0.216
  0
VERTEX
  8
0
 10
2.77425
 20
5.00364
 30
0.0
 40
0.003
 41
0.003
  0
VERTEX
  8
0
 10
2.77425
 20
5.21229
 30
0.0
 40
0.003
 41
0.003
  0
SEQEND
 8
0
  0
POLYLINE
  8
0
 62
     0
 66
     1
 10
0
 20
0
 30
0.0
 40
0.216
 41
0.216
  0
VERTEX
  8
0
 10
2.78803
 20
7.75196
 30
0.0
 40
0.003
 41
0.003
  0
VERTEX
  8
0
 10
2.78803
 20
7.90944
 30
0.0
 40
0.003
 41
0.003
  0
SEQEND
 8
0
  0
POLYLINE
  8
0
 62
     0
 66
     1
 10
0
 20
0
 30
0.0
 40
0.216
 41
0.216
  0
VERTEX
  8
0
 10
2.87858
 20
7.55512
 30
0.0
 40
0.003
 41
0.003
  0
VERTEX
  8
0
 10
2.87858
 20
7.75196
 30
0.0
 40
0.003
 41
0.003
  0
SEQEND
 8
0
  0
POLYLINE
  8
0
 62
     0
 66
     1
 10
0
 20
0
 30
0.0
 40
0.216
 41
0.216
  0
VERTEX
  8
0
 10
2.87858
 20
7.90944
 30
0.0
 40
0.003
 41
0.003
  0
VERTEX
  8
0
 10
2.87858
 20
8.09451
 30
0.0
 40
0.003
 41
0.003
  0
SEQEND
 8
0
  0
POLYLINE
  8
0
 62
     0
 66
     1
 10
0
 20
0
 30
0.0
 40
0.216
 41
0.216
  0
VERTEX
  8
0
 10
2.97108
 20
5.09418
 30
0.0
 40
0.003
 41
0.003
  0
VERTEX
  8
0
 10
2.97108
 20
5.00364
 30
0.0
 40
0.003
 41
0.003
  0
SEQEND
 8
0
  0
POLYLINE
  8
0
 62
     0
 66
     1
 10
0
 20
0
 30
0.0
 40
0.216
 41
0.216
  0
VERTEX
  8
0
 10
2.97108
 20
4.8304
 30
0.0
 40
0.003
 41
0.003
  0
VERTEX
  8
0
 10
2.97108
 20
4.73986
 30
0.0
 40
0.003
 41
0.003
  0
SEQEND
 8
0
  0
POLYLINE
  8
0
 62
     0
 66
     1
 10
0
 20
0
 30
0.0
 40
0.216
 41
0.216
  0
VERTEX
  8
0
 10
3.05181
 20
7.55512
 30
0.0
 40
0.003
 41
0.003
  0
VERTEX
  8
0
 10
3.05181
 20
7.75196
 30
0.0
 40
0.003
 41
0.003
  0
SEQEND
 8
0
  0
POLYLINE
  8
0
 62
     0
 66
     1
 10
0
 20
0
 30
0.0
 40
0.216
 41
0.216
  0
VERTEX
  8
0
 10
3.05181
 20
7.90944
 30
0.0
 40
0.003
 41
0.003
  0
VERTEX
  8
0
 10
3.05181
 20
8.09451
 30
0.0
 40
0.003
 41
0.003
  0
SEQEND
 8
0
  0
POLYLINE
  8
0
 62
     0
 66
     1
 10
0
 20
0
 30
0.0
 40
0.216
 41
0.216
  0
VERTEX
  8
0
 10
3.71322
 20
5.97488
 30
0.0
 40
0.003
 41
0.003
  0
VERTEX
  8
0
 10
3.43485
 20
5.6965
 30
0.0
 40
0.003
 41
0.003
  0
SEQEND
 8
0
  0
POLYLINE
  8
0
 62
     0
 66
     1
 10
0
 20
0
 30
0.0
 40
0.216
 41
0.216
  0
VERTEX
  8
0
 10
2.78803
 20
7.75196
 30
0.0
 40
0.003
 41
0.003
  0
VERTEX
  8
0
 10
2.87858
 20
7.75196
 30
0.0
 40
0.003
 41
0.003
  0
SEQEND
 8
0
  0
POLYLINE
  8
0
 62
     0
 66
     1
 10
0
 20
0
 30
0.0
 40
0.216
 41
0.216
  0
VERTEX
  8
0
 10
3.05181
 20
7.75196
 30
0.0
 40
0.003
 41
0.003
  0
VERTEX
  8
0
 10
3.14236
 20
7.75196
 30
0.0
 40
0.003
 41
0.003
  0
SEQEND
 8
0
  0
POLYLINE
  8
0
 62
     0
 66
     1
 10
0
 20
0
 30
0.0
 40
0.216
 41
0.216
  0
VERTEX
  8
0
 10
4.16596
 20
7.75196
 30
0.0
 40
0.003
 41
0.003
  0
VERTEX
  8
0
 10
4.25651
 20
7.75196
 30
0.0
 40
0.003
 41
0.003
  0
SEQEND
 8
0
  0
POLYLINE
  8
0
 62
     0
 66
     1
 10
0
 20
0
 30
0.0
 40
0.216
 41
0.216
  0
VERTEX
  8
0
 10
4.42974
 20
7.75196
 30
0.0
 40
0.003
 41
0.003
  0
VERTEX
  8
0
 10
4.52029
 20
7.75196
 30
0.0
 40
0.003
 41
0.003
  0
SEQEND
 8
0
  0
POLYLINE
  8
0
 62
     0
 66
     1
 10
0
 20
0
 30
0.0
 40
0.216
 41
0.216
  0
VERTEX
  8
0
 10
5.54389
 20
7.75196
 30
0.0
 40
0.003
 41
0.003
  0
VERTEX
  8
0
 10
5.63444
 20
7.75196
 30
0.0
 40
0.003
 41
0.003
  0
SEQEND
 8
0
  0
POLYLINE
  8
0
 62
     0
 66
     1
 10
0
 20
0
 30
0.0
 40
0.216
 41
0.216
  0
VERTEX
  8
0
 10
5.80767
 20
7.75196
 30
0.0
 40
0.003
 41
0.003
  0
VERTEX
  8
0
 10
5.89822
 20
7.75196
 30
0.0
 40
0.003
 41
0.003
  0
SEQEND
 8
0
  0
POLYLINE
  8
0
 62
     0
 66
     1
 10
0
 20
0
 30
0.0
 40
0.216
 41
0.216
  0
VERTEX
  8
0
 10
6.92188
 20
7.75196
 30
0.0
 40
0.003
 41
0.003
  0
VERTEX
  8
0
 10
7.01243
 20
7.75196
 30
0.0
 40
0.003
 41
0.003
  0
SEQEND
 8
0
  0
POLYLINE
  8
0
 62
     0
 66
     1
 10
0
 20
0
 30
0.0
 40
0.216
 41
0.216
  0
VERTEX
  8
0
 10
7.18565
 20
7.75196
 30
0.0
 40
0.003
 41
0.003
  0
VERTEX
  8
0
 10
7.27621
 20
7.75196
 30
0.0
 40
0.003
 41
0.003
  0
SEQEND
 8
0
  0
POLYLINE
  8
0
 62
     0
 66
     1
 10
0
 20
0
 30
0.0
 40
0.216
 41
0.216
  0
VERTEX
  8
0
 10
2.78803
 20
7.90944
 30
0.0
 40
0.003
 41
0.003
  0
VERTEX
  8
0
 10
2.87858
 20
7.90944
 30
0.0
 40
0.003
 41
0.003
  0
SEQEND
 8
0
  0
POLYLINE
  8
0
 62
     0
 66
     1
 10
0
 20
0
 30
0.0
 40
0.216
 41
0.216
  0
VERTEX
  8
0
 10
3.05181
 20
7.90944
 30
0.0
 40
0.003
 41
0.003
  0
VERTEX
  8
0
 10
3.14236
 20
7.90944
 30
0.0
 40
0.003
 41
0.003
  0
SEQEND
 8
0
  0
POLYLINE
  8
0
 62
     0
 66
     1
 10
0
 20
0
 30
0.0
 40
0.216
 41
0.216
  0
VERTEX
  8
0
 10
4.16596
 20
7.90944
 30
0.0
 40
0.003
 41
0.003
  0
VERTEX
  8
0
 10
4.25651
 20
7.90944
 30
0.0
 40
0.003
 41
0.003
  0
SEQEND
 8
0
  0
POLYLINE
  8
0
 62
     0
 66
     1
 10
0
 20
0
 30
0.0
 40
0.216
 41
0.216
  0
VERTEX
  8
0
 10
4.42974
 20
7.90944
 30
0.0
 40
0.003
 41
0.003
  0
VERTEX
  8
0
 10
4.52029
 20
7.90944
 30
0.0
 40
0.003
 41
0.003
  0
SEQEND
 8
0
  0
POLYLINE
  8
0
 62
     0
 66
     1
 10
0
 20
0
 30
0.0
 40
0.216
 41
0.216
  0
VERTEX
  8
0
 10
5.54389
 20
7.90944
 30
0.0
 40
0.003
 41
0.003
  0
VERTEX
  8
0
 10
5.63444
 20
7.90944
 30
0.0
 40
0.003
 41
0.003
  0
SEQEND
 8
0
  0
POLYLINE
  8
0
 62
     0
 66
     1
 10
0
 20
0
 30
0.0
 40
0.216
 41
0.216
  0
VERTEX
  8
0
 10
5.80767
 20
7.90944
 30
0.0
 40
0.003
 41
0.003
  0
VERTEX
  8
0
 10
5.89822
 20
7.90944
 30
0.0
 40
0.003
 41
0.003
  0
SEQEND
 8
0
  0
POLYLINE
  8
0
 62
     0
 66
     1
 10
0
 20
0
 30
0.0
 40
0.216
 41
0.216
  0
VERTEX
  8
0
 10
6.92188
 20
7.90944
 30
0.0
 40
0.003
 41
0.003
  0
VERTEX
  8
0
 10
7.01243
 20
7.90944
 30
0.0
 40
0.003
 41
0.003
  0
SEQEND
 8
0
  0
POLYLINE
  8
0
 62
     0
 66
     1
 10
0
 20
0
 30
0.0
 40
0.216
 41
0.216
  0
VERTEX
  8
0
 10
7.18565
 20
7.90944
 30
0.0
 40
0.003
 41
0.003
  0
VERTEX
  8
0
 10
7.27621
 20
7.90944
 30
0.0
 40
0.003
 41
0.003
  0
SEQEND
 8
0
  0
POLYLINE
  8
0
 62
     0
 66
     1
 10
0
 20
0
 30
0.0
 40
0.216
 41
0.216
  0
VERTEX
  8
0
 10
2.87858
 20
8.09451
 30
0.0
 40
0.003
 41
0.003
  0
VERTEX
  8
0
 10
3.05181
 20
8.09451
 30
0.0
 40
0.003
 41
0.003
  0
SEQEND
 8
0
  0
POLYLINE
  8
0
 62
     0
 66
     1
 10
0
 20
0
 30
0.0
 40
0.216
 41
0.216
  0
VERTEX
  8
0
 10
4.25651
 20
8.09451
 30
0.0
 40
0.003
 41
0.003
  0
VERTEX
  8
0
 10
4.42974
 20
8.09451
 30
0.0
 40
0.003
 41
0.003
  0
SEQEND
 8
0
  0
POLYLINE
  8
0
 62
     0
 66
     1
 10
0
 20
0
 30
0.0
 40
0.216
 41
0.216
  0
VERTEX
  8
0
 10
5.63444
 20
8.09451
 30
0.0
 40
0.003
 41
0.003
  0
VERTEX
  8
0
 10
5.80767
 20
8.09451
 30
0.0
 40
0.003
 41
0.003
  0
SEQEND
 8
0
  0
POLYLINE
  8
0
 62
     0
 66
     1
 10
0
 20
0
 30
0.0
 40
0.216
 41
0.216
  0
VERTEX
  8
0
 10
7.01243
 20
8.09451
 30
0.0
 40
0.003
 41
0.003
  0
VERTEX
  8
0
 10
7.18565
 20
8.09451
 30
0.0
 40
0.003
 41
0.003
  0
SEQEND
 8
0
  0
POLYLINE
  8
0
 62
     0
 66
     1
 10
0
 20
0
 30
0.0
 40
0.216
 41
0.216
  0
VERTEX
  8
0
 10
4.07514
 20
5.61301
 30
0.0
 40
0.003
 41
0.003
  0
VERTEX
  8
0
 10
3.71322
 20
5.97488
 30
0.0
 40
0.003
 41
0.003
  0
SEQEND
 8
0
  0
POLYLINE
  8
0
 62
     0
 66
     1
 10
0
 20
0
 30
0.0
 40
0.216
 41
0.216
  0
VERTEX
  8
0
 10
4.82682
 20
4.91704
 30
0.0
 40
0.003
 41
0.003
  0
VERTEX
  8
0
 10
4.49274
 20
5.25108
 30
0.0
 40
0.003
 41
0.003
  0
SEQEND
 8
0
  0
POLYLINE
  8
0
 62
     0
 66
     1
 10
0
 20
0
 30
0.0
 40
0.216
 41
0.216
  0
VERTEX
  8
0
 10
3.12858
 20
5.09418
 30
0.0
 40
0.003
 41
0.003
  0
VERTEX
  8
0
 10
3.12858
 20
5.00364
 30
0.0
 40
0.003
 41
0.003
  0
SEQEND
 8
0
  0
POLYLINE
  8
0
 62
     0
 66
     1
 10
0
 20
0
 30
0.0
 40
0.216
 41
0.216
  0
VERTEX
  8
0
 10
3.12858
 20
4.8304
 30
0.0
 40
0.003
 41
0.003
  0
VERTEX
  8
0
 10
3.12858
 20
4.73986
 30
0.0
 40
0.003
 41
0.003
  0
SEQEND
 8
0
  0
POLYLINE
  8
0
 62
     0
 66
     1
 10
0
 20
0
 30
0.0
 40
0.216
 41
0.216
  0
VERTEX
  8
0
 10
3.14236
 20
7.75196
 30
0.0
 40
0.003
 41
0.003
  0
VERTEX
  8
0
 10
3.14236
 20
7.90944
 30
0.0
 40
0.003
 41
0.003
  0
SEQEND
 8
0
  0
POLYLINE
  8
0
 62
     0
 66
     1
 10
0
 20
0
 30
0.0
 40
0.216
 41
0.216
  0
VERTEX
  8
0
 10
3.26047
 20
8.5459
 30
0.0
 40
0.003
 41
0.003
  0
VERTEX
  8
0
 10
3.26047
 20
8.7959
 30
0.0
 40
0.003
 41
0.003
  0
SEQEND
 8
0
  0
POLYLINE
  8
0
 62
     0
 66
     1
 10
0
 20
0
 30
0.0
 40
0.216
 41
0.216
  0
VERTEX
  8
0
 10
3.30572
 20
7.55512
 30
0.0
 40
0.003
 41
0.003
  0
VERTEX
  8
0
 10
3.30572
 20
7.30512
 30
0.0
 40
0.003
 41
0.003
  0
SEQEND
 8
0
  0
POLYLINE
  8
0
 62
     0
 66
     1
 10
0
 20
0
 30
0.0
 40
0.216
 41
0.216
  0
VERTEX
  8
0
 10
3.31358
 20
5.00364
 30
0.0
 40
0.003
 41
0.003
  0
VERTEX
  8
0
 10
3.31358
 20
4.8304
 30
0.0
 40
0.003
 41
0.003
  0
SEQEND
 8
0
  0
POLYLINE
  8
0
 62
     0
 66
     1
 10
0
 20
0
 30
0.0
 40
0.216
 41
0.216
  0
VERTEX
  8
0
 10
3.35889
 20
8.14567
 30
0.0
 40
0.003
 41
0.003
  0
VERTEX
  8
0
 10
3.35889
 20
8.5459
 30
0.0
 40
0.003
 41
0.003
  0
SEQEND
 8
0
  0
POLYLINE
  8
0
 62
     0
 66
     1
 10
0
 20
0
 30
0.0
 40
0.216
 41
0.216
  0
VERTEX
  8
0
 10
3.55572
 20
7.55512
 30
0.0
 40
0.003
 41
0.003
  0
VERTEX
  8
0
 10
3.55572
 20
7.30512
 30
0.0
 40
0.003
 41
0.003
  0
SEQEND
 8
0
  0
POLYLINE
  8
0
 62
     0
 66
     1
 10
0
 20
0
 30
0.0
 40
0.216
 41
0.216
  0
VERTEX
  8
0
 10
3.94943
 20
8.14567
 30
0.0
 40
0.003
 41
0.003
  0
VERTEX
  8
0
 10
3.75256
 20
7.55512
 30
0.0
 40
0.003
 41
0.003
  0
SEQEND
 8
0
  0
POLYLINE
  8
0
 62
     0
 66
     1
 10
0
 20
0
 30
0.0
 40
0.216
 41
0.216
  0
VERTEX
  8
0
 10
3.79676
 20
5.33458
 30
0.0
 40
0.003
 41
0.003
  0
VERTEX
  8
0
 10
4.07514
 20
5.61301
 30
0.0
 40
0.003
 41
0.003
  0
SEQEND
 8
0
  0
POLYLINE
  8
0
 62
     0
 66
     1
 10
0
 20
0
 30
0.0
 40
0.216
 41
0.216
  0
VERTEX
  8
0
 10
2.57146
 20
8.5459
 30
0.0
 40
0.003
 41
0.003
  0
VERTEX
  8
0
 10
2.66992
 20
8.5459
 30
0.0
 40
0.003
 41
0.003
  0
SEQEND
 8
0
  0
POLYLINE
  8
0
 62
     0
 66
     1
 10
0
 20
0
 30
0.0
 40
0.216
 41
0.216
  0
VERTEX
  8
0
 10
3.26047
 20
8.5459
 30
0.0
 40
0.003
 41
0.003
  0
VERTEX
  8
0
 10
3.35889
 20
8.5459
 30
0.0
 40
0.003
 41
0.003
  0
SEQEND
 8
0
  0
POLYLINE
  8
0
 62
     0
 66
     1
 10
0
 20
0
 30
0.0
 40
0.216
 41
0.216
  0
VERTEX
  8
0
 10
3.94943
 20
8.5459
 30
0.0
 40
0.003
 41
0.003
  0
VERTEX
  8
0
 10
4.04785
 20
8.5459
 30
0.0
 40
0.003
 41
0.003
  0
SEQEND
 8
0
  0
POLYLINE
  8
0
 62
     0
 66
     1
 10
0
 20
0
 30
0.0
 40
0.216
 41
0.216
  0
VERTEX
  8
0
 10
4.6384
 20
8.5459
 30
0.0
 40
0.003
 41
0.003
  0
VERTEX
  8
0
 10
4.73682
 20
8.5459
 30
0.0
 40
0.003
 41
0.003
  0
SEQEND
 8
0
  0
POLYLINE
  8
0
 62
     0
 66
     1
 10
0
 20
0
 30
0.0
 40
0.216
 41
0.216
  0
VERTEX
  8
0
 10
5.32736
 20
8.5459
 30
0.0
 40
0.003
 41
0.003
  0
VERTEX
  8
0
 10
5.42578
 20
8.5459
 30
0.0
 40
0.003
 41
0.003
  0
SEQEND
 8
0
  0
POLYLINE
  8
0
 62
     0
 66
     1
 10
0
 20
0
 30
0.0
 40
0.216
 41
0.216
  0
VERTEX
  8
0
 10
6.01633
 20
8.5459
 30
0.0
 40
0.003
 41
0.003
  0
VERTEX
  8
0
 10
6.11481
 20
8.5459
 30
0.0
 40
0.003
 41
0.003
  0
SEQEND
 8
0
  0
POLYLINE
  8
0
 62
     0
 66
     1
 10
0
 20
0
 30
0.0
 40
0.216
 41
0.216
  0
VERTEX
  8
0
 10
6.70535
 20
8.5459
 30
0.0
 40
0.003
 41
0.003
  0
VERTEX
  8
0
 10
6.80376
 20
8.5459
 30
0.0
 40
0.003
 41
0.003
  0
SEQEND
 8
0
  0
POLYLINE
  8
0
 62
     0
 66
     1
 10
0
 20
0
 30
0.0
 40
0.216
 41
0.216
  0
VERTEX
  8
0
 10
7.39432
 20
8.5459
 30
0.0
 40
0.003
 41
0.003
  0
VERTEX
  8
0
 10
7.49274
 20
8.5459
 30
0.0
 40
0.003
 41
0.003
  0
SEQEND
 8
0
  0
POLYLINE
  8
0
 62
     0
 66
     1
 10
0
 20
0
 30
0.0
 40
0.216
 41
0.216
  0
VERTEX
  8
0
 10
3.75256
 20
7.55512
 30
0.0
 40
0.003
 41
0.003
  0
VERTEX
  8
0
 10
3.75256
 20
7.30512
 30
0.0
 40
0.003
 41
0.003
  0
SEQEND
 8
0
  0
POLYLINE
  8
0
 62
     0
 66
     1
 10
0
 20
0
 30
0.0
 40
0.216
 41
0.216
  0
VERTEX
  8
0
 10
3.94943
 20
8.5459
 30
0.0
 40
0.003
 41
0.003
  0
VERTEX
  8
0
 10
3.94943
 20
8.14567
 30
0.0
 40
0.003
 41
0.003
  0
SEQEND
 8
0
  0
POLYLINE
  8
0
 62
     0
 66
     1
 10
0
 20
0
 30
0.0
 40
0.216
 41
0.216
  0
VERTEX
  8
0
 10
4.00256
 20
7.55512
 30
0.0
 40
0.003
 41
0.003
  0
VERTEX
  8
0
 10
4.00256
 20
7.30512
 30
0.0
 40
0.003
 41
0.003
  0
SEQEND
 8
0
  0
POLYLINE
  8
0
 62
     0
 66
     1
 10
0
 20
0
 30
0.0
 40
0.216
 41
0.216
  0
VERTEX
  8
0
 10
4.04785
 20
8.7959
 30
0.0
 40
0.003
 41
0.003
  0
VERTEX
  8
0
 10
4.04785
 20
8.5459
 30
0.0
 40
0.003
 41
0.003
  0
SEQEND
 8
0
  0
POLYLINE
  8
0
 62
     0
 66
     1
 10
0
 20
0
 30
0.0
 40
0.216
 41
0.216
  0
VERTEX
  8
0
 10
2.57954
 20
8.7959
 30
0.0
 40
0.003
 41
0.003
  0
VERTEX
  8
0
 10
2.66992
 20
8.7959
 30
0.0
 40
0.003
 41
0.003
  0
SEQEND
 8
0
  0
POLYLINE
  8
0
 62
     0
 66
     1
 10
0
 20
0
 30
0.0
 40
0.216
 41
0.216
  0
VERTEX
  8
0
 10
3.26047
 20
8.7959
 30
0.0
 40
0.003
 41
0.003
  0
VERTEX
  8
0
 10
3.35081
 20
8.7959
 30
0.0
 40
0.003
 41
0.003
  0
SEQEND
 8
0
  0
POLYLINE
  8
0
 62
     0
 66
     1
 10
0
 20
0
 30
0.0
 40
0.216
 41
0.216
  0
VERTEX
  8
0
 10
3.95751
 20
8.7959
 30
0.0
 40
0.003
 41
0.003
  0
VERTEX
  8
0
 10
4.04785
 20
8.7959
 30
0.0
 40
0.003
 41
0.003
  0
SEQEND
 8
0
  0
POLYLINE
  8
0
 62
     0
 66
     1
 10
0
 20
0
 30
0.0
 40
0.216
 41
0.216
  0
VERTEX
  8
0
 10
4.6384
 20
8.7959
 30
0.0
 40
0.003
 41
0.003
  0
VERTEX
  8
0
 10
4.72874
 20
8.7959
 30
0.0
 40
0.003
 41
0.003
  0
SEQEND
 8
0
  0
POLYLINE
  8
0
 62
     0
 66
     1
 10
0
 20
0
 30
0.0
 40
0.216
 41
0.216
  0
VERTEX
  8
0
 10
5.33544
 20
8.7959
 30
0.0
 40
0.003
 41
0.003
  0
VERTEX
  8
0
 10
5.42578
 20
8.7959
 30
0.0
 40
0.003
 41
0.003
  0
SEQEND
 8
0
  0
POLYLINE
  8
0
 62
     0
 66
     1
 10
0
 20
0
 30
0.0
 40
0.216
 41
0.216
  0
VERTEX
  8
0
 10
6.01633
 20
8.7959
 30
0.0
 40
0.003
 41
0.003
  0
VERTEX
  8
0
 10
6.10672
 20
8.7959
 30
0.0
 40
0.003
 41
0.003
  0
SEQEND
 8
0
  0
POLYLINE
  8
0
 62
     0
 66
     1
 10
0
 20
0
 30
0.0
 40
0.216
 41
0.216
  0
VERTEX
  8
0
 10
6.71338
 20
8.7959
 30
0.0
 40
0.003
 41
0.003
  0
VERTEX
  8
0
 10
6.80376
 20
8.7959
 30
0.0
 40
0.003
 41
0.003
  0
SEQEND
 8
0
  0
POLYLINE
  8
0
 62
     0
 66
     1
 10
0
 20
0
 30
0.0
 40
0.216
 41
0.216
  0
VERTEX
  8
0
 10
7.39432
 20
8.7959
 30
0.0
 40
0.003
 41
0.003
  0
VERTEX
  8
0
 10
7.48465
 20
8.7959
 30
0.0
 40
0.003
 41
0.003
  0
SEQEND
 8
0
  0
POLYLINE
  8
0
 62
     0
 66
     1
 10
0
 20
0
 30
0.0
 40
0.216
 41
0.216
  0
VERTEX
  8
0
 10
7.25651
 20
9.07736
 30
0.0
 40
0.003
 41
0.003
  0
VERTEX
  8
0
 10
6.94157
 20
9.07736
 30
0.0
 40
0.003
 41
0.003
  0
SEQEND
 8
0
  0
POLYLINE
  8
0
 62
     0
 66
     1
 10
0
 20
0
 30
0.0
 40
0.216
 41
0.216
  0
VERTEX
  8
0
 10
5.87858
 20
9.07736
 30
0.0
 40
0.003
 41
0.003
  0
VERTEX
  8
0
 10
5.56358
 20
9.07736
 30
0.0
 40
0.003
 41
0.003
  0
SEQEND
 8
0
  0
POLYLINE
  8
0
 62
     0
 66
     1
 10
0
 20
0
 30
0.0
 40
0.216
 41
0.216
  0
VERTEX
  8
0
 10
4.5006
 20
9.07736
 30
0.0
 40
0.003
 41
0.003
  0
VERTEX
  8
0
 10
4.18565
 20
9.07736
 30
0.0
 40
0.003
 41
0.003
  0
SEQEND
 8
0
  0
POLYLINE
  8
0
 62
     0
 66
     1
 10
0
 20
0
 30
0.0
 40
0.216
 41
0.216
  0
VERTEX
  8
0
 10
3.12267
 20
9.07736
 30
0.0
 40
0.003
 41
0.003
  0
VERTEX
  8
0
 10
2.80767
 20
9.07736
 30
0.0
 40
0.003
 41
0.003
  0
SEQEND
 8
0
  0
POLYLINE
  8
0
 62
     0
 66
     1
 10
0
 20
0
 30
0.0
 40
0.216
 41
0.216
  0
VERTEX
  8
0
 10
3.55572
 20
7.55512
 30
0.0
 40
0.003
 41
0.003
  0
VERTEX
  8
0
 10
3.35889
 20
8.14567
 30
0.0
 40
0.003
 41
0.003
  0
SEQEND
 8
0
  0
POLYLINE
  8
0
 62
     0
 66
     1
 10
0
 20
0
 30
0.0
 40
0.216
 41
0.216
  0
VERTEX
  8
0
 10
4.16596
 20
7.75196
 30
0.0
 40
0.003
 41
0.003
  0
VERTEX
  8
0
 10
4.16596
 20
7.90944
 30
0.0
 40
0.003
 41
0.003
  0
SEQEND
 8
0
  0
POLYLINE
  8
0
 62
     0
 66
     1
 10
0
 20
0
 30
0.0
 40
0.216
 41
0.216
  0
VERTEX
  8
0
 10
4.19749
 20
6.88553
 30
0.0
 40
0.003
 41
0.003
  0
VERTEX
  8
0
 10
4.19749
 20
6.63553
 30
0.0
 40
0.003
 41
0.003
  0
SEQEND
 8
0
  0
POLYLINE
  8
0
 62
     0
 66
     1
 10
0
 20
0
 30
0.0
 40
0.216
 41
0.216
  0
VERTEX
  8
0
 10
4.19749
 20
2.94851
 30
0.0
 40
0.003
 41
0.003
  0
VERTEX
  8
0
 10
4.19749
 20
3.19851
 30
0.0
 40
0.003
 41
0.003
  0
SEQEND
 8
0
  0
POLYLINE
  8
0
 62
     0
 66
     1
 10
0
 20
0
 30
0.0
 40
0.216
 41
0.216
  0
VERTEX
  8
0
 10
4.25651
 20
7.55512
 30
0.0
 40
0.003
 41
0.003
  0
VERTEX
  8
0
 10
4.25651
 20
7.75196
 30
0.0
 40
0.003
 41
0.003
  0
SEQEND
 8
0
  0
POLYLINE
  8
0
 62
     0
 66
     1
 10
0
 20
0
 30
0.0
 40
0.216
 41
0.216
  0
VERTEX
  8
0
 10
4.25651
 20
7.90944
 30
0.0
 40
0.003
 41
0.003
  0
VERTEX
  8
0
 10
4.25651
 20
8.09451
 30
0.0
 40
0.003
 41
0.003
  0
SEQEND
 8
0
  0
POLYLINE
  8
0
 62
     0
 66
     1
 10
0
 20
0
 30
0.0
 40
0.216
 41
0.216
  0
VERTEX
  8
0
 10
4.3156
 20
6.43869
 30
0.0
 40
0.003
 41
0.003
  0
VERTEX
  8
0
 10
4.3156
 20
6.28119
 30
0.0
 40
0.003
 41
0.003
  0
SEQEND
 8
0
  0
POLYLINE
  8
0
 62
     0
 66
     1
 10
0
 20
0
 30
0.0
 40
0.216
 41
0.216
  0
VERTEX
  8
0
 10
4.3156
 20
3.39535
 30
0.0
 40
0.003
 41
0.003
  0
VERTEX
  8
0
 10
4.3156
 20
3.55285
 30
0.0
 40
0.003
 41
0.003
  0
SEQEND
 8
0
  0
POLYLINE
  8
0
 62
     0
 66
     1
 10
0
 20
0
 30
0.0
 40
0.216
 41
0.216
  0
VERTEX
  8
0
 10
4.40614
 20
6.63553
 30
0.0
 40
0.003
 41
0.003
  0
VERTEX
  8
0
 10
4.40614
 20
6.43869
 30
0.0
 40
0.003
 41
0.003
  0
SEQEND
 8
0
  0
POLYLINE
  8
0
 62
     0
 66
     1
 10
0
 20
0
 30
0.0
 40
0.216
 41
0.216
  0
VERTEX
  8
0
 10
4.40614
 20
6.28119
 30
0.0
 40
0.003
 41
0.003
  0
VERTEX
  8
0
 10
4.40614
 20
6.09614
 30
0.0
 40
0.003
 41
0.003
  0
SEQEND
 8
0
  0
POLYLINE
  8
0
 62
     0
 66
     1
 10
0
 20
0
 30
0.0
 40
0.216
 41
0.216
  0
VERTEX
  8
0
 10
4.40614
 20
3.19851
 30
0.0
 40
0.003
 41
0.003
  0
VERTEX
  8
0
 10
4.40614
 20
3.39535
 30
0.0
 40
0.003
 41
0.003
  0
SEQEND
 8
0
  0
POLYLINE
  8
0
 62
     0
 66
     1
 10
0
 20
0
 30
0.0
 40
0.216
 41
0.216
  0
VERTEX
  8
0
 10
4.40614
 20
3.55285
 30
0.0
 40
0.003
 41
0.003
  0
VERTEX
  8
0
 10
4.40614
 20
3.7379
 30
0.0
 40
0.003
 41
0.003
  0
SEQEND
 8
0
  0
POLYLINE
  8
0
 62
     0
 66
     1
 10
0
 20
0
 30
0.0
 40
0.216
 41
0.216
  0
VERTEX
  8
0
 10
4.42974
 20
7.55512
 30
0.0
 40
0.003
 41
0.003
  0
VERTEX
  8
0
 10
4.42974
 20
7.75196
 30
0.0
 40
0.003
 41
0.003
  0
SEQEND
 8
0
  0
POLYLINE
  8
0
 62
     0
 66
     1
 10
0
 20
0
 30
0.0
 40
0.216
 41
0.216
  0
VERTEX
  8
0
 10
4.42974
 20
7.90944
 30
0.0
 40
0.003
 41
0.003
  0
VERTEX
  8
0
 10
4.42974
 20
8.09451
 30
0.0
 40
0.003
 41
0.003
  0
SEQEND
 8
0
  0
POLYLINE
  8
0
 62
     0
 66
     1
 10
0
 20
0
 30
0.0
 40
0.216
 41
0.216
  0
VERTEX
  8
0
 10
4.52029
 20
7.75196
 30
0.0
 40
0.003
 41
0.003
  0
VERTEX
  8
0
 10
4.52029
 20
7.90944
 30
0.0
 40
0.003
 41
0.003
  0
SEQEND
 8
0
  0
POLYLINE
  8
0
 62
     0
 66
     1
 10
0
 20
0
 30
0.0
 40
0.216
 41
0.216
  0
VERTEX
  8
0
 10
5.32736
 20
8.14567
 30
0.0
 40
0.003
 41
0.003
  0
VERTEX
  8
0
 10
5.13053
 20
7.55512
 30
0.0
 40
0.003
 41
0.003
  0
SEQEND
 8
0
  0
POLYLINE
  8
0
 62
     0
 66
     1
 10
0
 20
0
 30
0.0
 40
0.216
 41
0.216
  0
VERTEX
  8
0
 10
4.49274
 20
5.25108
 30
0.0
 40
0.003
 41
0.003
  0
VERTEX
  8
0
 10
3.85243
 20
4.61079
 30
0.0
 40
0.003
 41
0.003
  0
SEQEND
 8
0
  0
POLYLINE
  8
0
 62
     0
 66
     1
 10
0
 20
0
 30
0.0
 40
0.216
 41
0.216
  0
VERTEX
  8
0
 10
1.85889
 20
9.29937
 30
0.0
 40
0.003
 41
0.003
  0
VERTEX
  8
0
 10
-5.22775
 20
9.29937
 30
0.0
 40
0.003
 41
0.003
  0
SEQEND
 8
0
  0
POLYLINE
  8
0
 62
     0
 66
     1
 10
0
 20
0
 30
0.0
 40
0.216
 41
0.216
  0
VERTEX
  8
0
 10
4.57937
 20
6.63553
 30
0.0
 40
0.003
 41
0.003
  0
VERTEX
  8
0
 10
4.57937
 20
6.43869
 30
0.0
 40
0.003
 41
0.003
  0
SEQEND
 8
0
  0
POLYLINE
  8
0
 62
     0
 66
     1
 10
0
 20
0
 30
0.0
 40
0.216
 41
0.216
  0
VERTEX
  8
0
 10
4.57937
 20
6.28119
 30
0.0
 40
0.003
 41
0.003
  0
VERTEX
  8
0
 10
4.57937
 20
6.09614
 30
0.0
 40
0.003
 41
0.003
  0
SEQEND
 8
0
  0
POLYLINE
  8
0
 62
     0
 66
     1
 10
0
 20
0
 30
0.0
 40
0.216
 41
0.216
  0
VERTEX
  8
0
 10
4.57937
 20
3.19851
 30
0.0
 40
0.003
 41
0.003
  0
VERTEX
  8
0
 10
4.57937
 20
3.39535
 30
0.0
 40
0.003
 41
0.003
  0
SEQEND
 8
0
  0
POLYLINE
  8
0
 62
     0
 66
     1
 10
0
 20
0
 30
0.0
 40
0.216
 41
0.216
  0
VERTEX
  8
0
 10
4.57937
 20
3.55285
 30
0.0
 40
0.003
 41
0.003
  0
VERTEX
  8
0
 10
4.57937
 20
3.7379
 30
0.0
 40
0.003
 41
0.003
  0
SEQEND
 8
0
  0
POLYLINE
  8
0
 62
     0
 66
     1
 10
0
 20
0
 30
0.0
 40
0.216
 41
0.216
  0
VERTEX
  8
0
 10
4.6384
 20
8.5459
 30
0.0
 40
0.003
 41
0.003
  0
VERTEX
  8
0
 10
4.6384
 20
8.7959
 30
0.0
 40
0.003
 41
0.003
  0
SEQEND
 8
0
  0
POLYLINE
  8
0
 62
     0
 66
     1
 10
0
 20
0
 30
0.0
 40
0.216
 41
0.216
  0
VERTEX
  8
0
 10
4.66992
 20
6.43869
 30
0.0
 40
0.003
 41
0.003
  0
VERTEX
  8
0
 10
4.66992
 20
6.28119
 30
0.0
 40
0.003
 41
0.003
  0
SEQEND
 8
0
  0
POLYLINE
  8
0
 62
     0
 66
     1
 10
0
 20
0
 30
0.0
 40
0.216
 41
0.216
  0
VERTEX
  8
0
 10
4.66992
 20
3.39535
 30
0.0
 40
0.003
 41
0.003
  0
VERTEX
  8
0
 10
4.66992
 20
3.55285
 30
0.0
 40
0.003
 41
0.003
  0
SEQEND
 8
0
  0
POLYLINE
  8
0
 62
     0
 66
     1
 10
0
 20
0
 30
0.0
 40
0.216
 41
0.216
  0
VERTEX
  8
0
 10
4.68371
 20
7.55512
 30
0.0
 40
0.003
 41
0.003
  0
VERTEX
  8
0
 10
4.68371
 20
7.30512
 30
0.0
 40
0.003
 41
0.003
  0
SEQEND
 8
0
  0
POLYLINE
  8
0
 62
     0
 66
     1
 10
0
 20
0
 30
0.0
 40
0.216
 41
0.216
  0
VERTEX
  8
0
 10
4.73682
 20
8.14567
 30
0.0
 40
0.003
 41
0.003
  0
VERTEX
  8
0
 10
4.73682
 20
8.5459
 30
0.0
 40
0.003
 41
0.003
  0
SEQEND
 8
0
  0
POLYLINE
  8
0
 62
     0
 66
     1
 10
0
 20
0
 30
0.0
 40
0.216
 41
0.216
  0
VERTEX
  8
0
 10
4.78803
 20
6.88553
 30
0.0
 40
0.003
 41
0.003
  0
VERTEX
  8
0
 10
4.78803
 20
6.63553
 30
0.0
 40
0.003
 41
0.003
  0
SEQEND
 8
0
  0
POLYLINE
  8
0
 62
     0
 66
     1
 10
0
 20
0
 30
0.0
 40
0.216
 41
0.216
  0
VERTEX
  8
0
 10
4.78803
 20
2.94851
 30
0.0
 40
0.003
 41
0.003
  0
VERTEX
  8
0
 10
4.78803
 20
3.19851
 30
0.0
 40
0.003
 41
0.003
  0
SEQEND
 8
0
  0
POLYLINE
  8
0
 62
     0
 66
     1
 10
0
 20
0
 30
0.0
 40
0.216
 41
0.216
  0
VERTEX
  8
0
 10
4.93371
 20
7.55512
 30
0.0
 40
0.003
 41
0.003
  0
VERTEX
  8
0
 10
4.93371
 20
7.30512
 30
0.0
 40
0.003
 41
0.003
  0
SEQEND
 8
0
  0
POLYLINE
  8
0
 62
     0
 66
     1
 10
0
 20
0
 30
0.0
 40
0.216
 41
0.216
  0
VERTEX
  8
0
 10
4.18653
 20
4.27675
 30
0.0
 40
0.003
 41
0.003
  0
VERTEX
  8
0
 10
4.82682
 20
4.91704
 30
0.0
 40
0.003
 41
0.003
  0
SEQEND
 8
0
  0
POLYLINE
  8
0
 62
     0
 66
     1
 10
0
 20
0
 30
0.0
 40
0.216
 41
0.216
  0
VERTEX
  8
0
 10
5.13053
 20
7.55512
 30
0.0
 40
0.003
 41
0.003
  0
VERTEX
  8
0
 10
5.13053
 20
7.30512
 30
0.0
 40
0.003
 41
0.003
  0
SEQEND
 8
0
  0
POLYLINE
  8
0
 62
     0
 66
     1
 10
0
 20
0
 30
0.0
 40
0.216
 41
0.216
  0
VERTEX
  8
0
 10
5.32736
 20
8.5459
 30
0.0
 40
0.003
 41
0.003
  0
VERTEX
  8
0
 10
5.32736
 20
8.14567
 30
0.0
 40
0.003
 41
0.003
  0
SEQEND
 8
0
  0
POLYLINE
  8
0
 62
     0
 66
     1
 10
0
 20
0
 30
0.0
 40
0.216
 41
0.216
  0
VERTEX
  8
0
 10
5.38053
 20
7.55512
 30
0.0
 40
0.003
 41
0.003
  0
VERTEX
  8
0
 10
5.38053
 20
7.30512
 30
0.0
 40
0.003
 41
0.003
  0
SEQEND
 8
0
  0
POLYLINE
  8
0
 62
     0
 66
     1
 10
0
 20
0
 30
0.0
 40
0.216
 41
0.216
  0
VERTEX
  8
0
 10
5.42578
 20
8.7959
 30
0.0
 40
0.003
 41
0.003
  0
VERTEX
  8
0
 10
5.42578
 20
8.5459
 30
0.0
 40
0.003
 41
0.003
  0
SEQEND
 8
0
  0
POLYLINE
  8
0
 62
     0
 66
     1
 10
0
 20
0
 30
0.0
 40
0.216
 41
0.216
  0
VERTEX
  8
0
 10
4.93371
 20
7.55512
 30
0.0
 40
0.003
 41
0.003
  0
VERTEX
  8
0
 10
4.73682
 20
8.14567
 30
0.0
 40
0.003
 41
0.003
  0
SEQEND
 8
0
  0
POLYLINE
  8
0
 62
     0
 66
     1
 10
0
 20
0
 30
0.0
 40
0.216
 41
0.216
  0
VERTEX
  8
0
 10
5.54389
 20
7.75196
 30
0.0
 40
0.003
 41
0.003
  0
VERTEX
  8
0
 10
5.54389
 20
7.90944
 30
0.0
 40
0.003
 41
0.003
  0
SEQEND
 8
0
  0
POLYLINE
  8
0
 62
     0
 66
     1
 10
0
 20
0
 30
0.0
 40
0.216
 41
0.216
  0
VERTEX
  8
0
 10
5.63444
 20
7.55512
 30
0.0
 40
0.003
 41
0.003
  0
VERTEX
  8
0
 10
5.63444
 20
7.75196
 30
0.0
 40
0.003
 41
0.003
  0
SEQEND
 8
0
  0
POLYLINE
  8
0
 62
     0
 66
     1
 10
0
 20
0
 30
0.0
 40
0.216
 41
0.216
  0
VERTEX
  8
0
 10
5.63444
 20
7.90944
 30
0.0
 40
0.003
 41
0.003
  0
VERTEX
  8
0
 10
5.63444
 20
8.09451
 30
0.0
 40
0.003
 41
0.003
  0
SEQEND
 8
0
  0
POLYLINE
  8
0
 62
     0
 66
     1
 10
0
 20
0
 30
0.0
 40
0.216
 41
0.216
  0
VERTEX
  8
0
 10
5.67188
 20
4.8304
 30
0.0
 40
0.003
 41
0.003
  0
VERTEX
  8
0
 10
5.67188
 20
5.00364
 30
0.0
 40
0.003
 41
0.003
  0
SEQEND
 8
0
  0
POLYLINE
  8
0
 62
     0
 66
     1
 10
0
 20
0
 30
0.0
 40
0.216
 41
0.216
  0
VERTEX
  8
0
 10
5.80767
 20
7.55512
 30
0.0
 40
0.003
 41
0.003
  0
VERTEX
  8
0
 10
5.80767
 20
7.75196
 30
0.0
 40
0.003
 41
0.003
  0
SEQEND
 8
0
  0
POLYLINE
  8
0
 62
     0
 66
     1
 10
0
 20
0
 30
0.0
 40
0.216
 41
0.216
  0
VERTEX
  8
0
 10
5.80767
 20
7.90944
 30
0.0
 40
0.003
 41
0.003
  0
VERTEX
  8
0
 10
5.80767
 20
8.09451
 30
0.0
 40
0.003
 41
0.003
  0
SEQEND
 8
0
  0
POLYLINE
  8
0
 62
     0
 66
     1
 10
0
 20
0
 30
0.0
 40
0.216
 41
0.216
  0
VERTEX
  8
0
 10
5.85693
 20
4.73986
 30
0.0
 40
0.003
 41
0.003
  0
VERTEX
  8
0
 10
5.85693
 20
4.8304
 30
0.0
 40
0.003
 41
0.003
  0
SEQEND
 8
0
  0
POLYLINE
  8
0
 62
     0
 66
     1
 10
0
 20
0
 30
0.0
 40
0.216
 41
0.216
  0
VERTEX
  8
0
 10
5.85693
 20
5.00364
 30
0.0
 40
0.003
 41
0.003
  0
VERTEX
  8
0
 10
5.85693
 20
5.09418
 30
0.0
 40
0.003
 41
0.003
  0
SEQEND
 8
0
  0
POLYLINE
  8
0
 62
     0
 66
     1
 10
0
 20
0
 30
0.0
 40
0.216
 41
0.216
  0
VERTEX
  8
0
 10
5.89822
 20
7.75196
 30
0.0
 40
0.003
 41
0.003
  0
VERTEX
  8
0
 10
5.89822
 20
7.90944
 30
0.0
 40
0.003
 41
0.003
  0
SEQEND
 8
0
  0
POLYLINE
  8
0
 62
     0
 66
     1
 10
0
 20
0
 30
0.0
 40
0.216
 41
0.216
  0
VERTEX
  8
0
 10
6.01438
 20
4.73986
 30
0.0
 40
0.003
 41
0.003
  0
VERTEX
  8
0
 10
6.01438
 20
4.8304
 30
0.0
 40
0.003
 41
0.003
  0
SEQEND
 8
0
  0
POLYLINE
  8
0
 62
     0
 66
     1
 10
0
 20
0
 30
0.0
 40
0.216
 41
0.216
  0
VERTEX
  8
0
 10
6.01438
 20
5.00364
 30
0.0
 40
0.003
 41
0.003
  0
VERTEX
  8
0
 10
6.01438
 20
5.09418
 30
0.0
 40
0.003
 41
0.003
  0
SEQEND
 8
0
  0
POLYLINE
  8
0
 62
     0
 66
     1
 10
0
 20
0
 30
0.0
 40
0.216
 41
0.216
  0
VERTEX
  8
0
 10
6.70535
 20
8.14567
 30
0.0
 40
0.003
 41
0.003
  0
VERTEX
  8
0
 10
6.50846
 20
7.55512
 30
0.0
 40
0.003
 41
0.003
  0
SEQEND
 8
0
  0
POLYLINE
  8
0
 62
     0
 66
     1
 10
0
 20
0
 30
0.0
 40
0.216
 41
0.216
  0
VERTEX
  8
0
 10
6.01633
 20
8.5459
 30
0.0
 40
0.003
 41
0.003
  0
VERTEX
  8
0
 10
6.01633
 20
8.7959
 30
0.0
 40
0.003
 41
0.003
  0
SEQEND
 8
0
  0
POLYLINE
  8
0
 62
     0
 66
     1
 10
0
 20
0
 30
0.0
 40
0.216
 41
0.216
  0
VERTEX
  8
0
 10
6.06164
 20
7.55512
 30
0.0
 40
0.003
 41
0.003
  0
VERTEX
  8
0
 10
6.06164
 20
7.30512
 30
0.0
 40
0.003
 41
0.003
  0
SEQEND
 8
0
  0
POLYLINE
  8
0
 62
     0
 66
     1
 10
0
 20
0
 30
0.0
 40
0.216
 41
0.216
  0
VERTEX
  8
0
 10
6.11481
 20
8.14567
 30
0.0
 40
0.003
 41
0.003
  0
VERTEX
  8
0
 10
6.11481
 20
8.5459
 30
0.0
 40
0.003
 41
0.003
  0
SEQEND
 8
0
  0
POLYLINE
  8
0
 62
     0
 66
     1
 10
0
 20
0
 30
0.0
 40
0.216
 41
0.216
  0
VERTEX
  8
0
 10
6.21121
 20
5.21229
 30
0.0
 40
0.003
 41
0.003
  0
VERTEX
  8
0
 10
6.21121
 20
5.00364
 30
0.0
 40
0.003
 41
0.003
  0
SEQEND
 8
0
  0
POLYLINE
  8
0
 62
     0
 66
     1
 10
0
 20
0
 30
0.0
 40
0.216
 41
0.216
  0
VERTEX
  8
0
 10
6.21121
 20
4.8304
 30
0.0
 40
0.003
 41
0.003
  0
VERTEX
  8
0
 10
6.21121
 20
4.62175
 30
0.0
 40
0.003
 41
0.003
  0
SEQEND
 8
0
  0
POLYLINE
  8
0
 62
     0
 66
     1
 10
0
 20
0
 30
0.0
 40
0.216
 41
0.216
  0
VERTEX
  8
0
 10
6.31164
 20
7.55512
 30
0.0
 40
0.003
 41
0.003
  0
VERTEX
  8
0
 10
6.31164
 20
7.30512
 30
0.0
 40
0.003
 41
0.003
  0
SEQEND
 8
0
  0
POLYLINE
  8
0
 62
     0
 66
     1
 10
0
 20
0
 30
0.0
 40
0.216
 41
0.216
  0
VERTEX
  8
0
 10
6.46121
 20
4.52333
 30
0.0
 40
0.003
 41
0.003
  0
VERTEX
  8
0
 10
6.46121
 20
4.62175
 30
0.0
 40
0.003
 41
0.003
  0
SEQEND
 8
0
  0
POLYLINE
  8
0
 62
     0
 66
     1
 10
0
 20
0
 30
0.0
 40
0.216
 41
0.216
  0
VERTEX
  8
0
 10
6.46121
 20
5.21229
 30
0.0
 40
0.003
 41
0.003
  0
VERTEX
  8
0
 10
6.46121
 20
5.31071
 30
0.0
 40
0.003
 41
0.003
  0
SEQEND
 8
0
  0
POLYLINE
  8
0
 62
     0
 66
     1
 10
0
 20
0
 30
0.0
 40
0.216
 41
0.216
  0
VERTEX
  8
0
 10
6.31164
 20
7.55512
 30
0.0
 40
0.003
 41
0.003
  0
VERTEX
  8
0
 10
6.11481
 20
8.14567
 30
0.0
 40
0.003
 41
0.003
  0
SEQEND
 8
0
  0
POLYLINE
  8
0
 62
     0
 66
     1
 10
0
 20
0
 30
0.0
 40
0.216
 41
0.216
  0
VERTEX
  8
0
 10
6.50846
 20
7.55512
 30
0.0
 40
0.003
 41
0.003
  0
VERTEX
  8
0
 10
6.50846
 20
7.30512
 30
0.0
 40
0.003
 41
0.003
  0
SEQEND
 8
0
  0
POLYLINE
  8
0
 62
     0
 66
     1
 10
0
 20
0
 30
0.0
 40
0.216
 41
0.216
  0
VERTEX
  8
0
 10
6.70535
 20
8.5459
 30
0.0
 40
0.003
 41
0.003
  0
VERTEX
  8
0
 10
6.70535
 20
8.14567
 30
0.0
 40
0.003
 41
0.003
  0
SEQEND
 8
0
  0
POLYLINE
  8
0
 62
     0
 66
     1
 10
0
 20
0
 30
0.0
 40
0.216
 41
0.216
  0
VERTEX
  8
0
 10
6.75846
 20
7.55512
 30
0.0
 40
0.003
 41
0.003
  0
VERTEX
  8
0
 10
6.75846
 20
7.30512
 30
0.0
 40
0.003
 41
0.003
  0
SEQEND
 8
0
  0
POLYLINE
  8
0
 62
     0
 66
     1
 10
0
 20
0
 30
0.0
 40
0.216
 41
0.216
  0
VERTEX
  8
0
 10
6.80376
 20
8.7959
 30
0.0
 40
0.003
 41
0.003
  0
VERTEX
  8
0
 10
6.80376
 20
8.5459
 30
0.0
 40
0.003
 41
0.003
  0
SEQEND
 8
0
  0
POLYLINE
  8
0
 62
     0
 66
     1
 10
0
 20
0
 30
0.0
 40
0.216
 41
0.216
  0
VERTEX
  8
0
 10
6.92188
 20
7.75196
 30
0.0
 40
0.003
 41
0.003
  0
VERTEX
  8
0
 10
6.92188
 20
7.90944
 30
0.0
 40
0.003
 41
0.003
  0
SEQEND
 8
0
  0
POLYLINE
  8
0
 62
     0
 66
     1
 10
0
 20
0
 30
0.0
 40
0.216
 41
0.216
  0
VERTEX
  8
0
 10
7.01243
 20
7.55512
 30
0.0
 40
0.003
 41
0.003
  0
VERTEX
  8
0
 10
7.01243
 20
7.75196
 30
0.0
 40
0.003
 41
0.003
  0
SEQEND
 8
0
  0
POLYLINE
  8
0
 62
     0
 66
     1
 10
0
 20
0
 30
0.0
 40
0.216
 41
0.216
  0
VERTEX
  8
0
 10
7.01243
 20
7.90944
 30
0.0
 40
0.003
 41
0.003
  0
VERTEX
  8
0
 10
7.01243
 20
8.09451
 30
0.0
 40
0.003
 41
0.003
  0
SEQEND
 8
0
  0
POLYLINE
  8
0
 62
     0
 66
     1
 10
0
 20
0
 30
0.0
 40
0.216
 41
0.216
  0
VERTEX
  8
0
 10
7.18565
 20
7.55512
 30
0.0
 40
0.003
 41
0.003
  0
VERTEX
  8
0
 10
7.18565
 20
7.75196
 30
0.0
 40
0.003
 41
0.003
  0
SEQEND
 8
0
  0
POLYLINE
  8
0
 62
     0
 66
     1
 10
0
 20
0
 30
0.0
 40
0.216
 41
0.216
  0
VERTEX
  8
0
 10
7.18565
 20
7.90944
 30
0.0
 40
0.003
 41
0.003
  0
VERTEX
  8
0
 10
7.18565
 20
8.09451
 30
0.0
 40
0.003
 41
0.003
  0
SEQEND
 8
0
  0
POLYLINE
  8
0
 62
     0
 66
     1
 10
0
 20
0
 30
0.0
 40
0.216
 41
0.216
  0
VERTEX
  8
0
 10
7.27621
 20
7.75196
 30
0.0
 40
0.003
 41
0.003
  0
VERTEX
  8
0
 10
7.27621
 20
7.90944
 30
0.0
 40
0.003
 41
0.003
  0
SEQEND
 8
0
  0
POLYLINE
  8
0
 62
     0
 66
     1
 10
0
 20
0
 30
0.0
 40
0.216
 41
0.216
  0
VERTEX
  8
0
 10
7.39432
 20
8.5459
 30
0.0
 40
0.003
 41
0.003
  0
VERTEX
  8
0
 10
7.39432
 20
8.7959
 30
0.0
 40
0.003
 41
0.003
  0
SEQEND
 8
0
  0
POLYLINE
  8
0
 62
     0
 66
     1
 10
0
 20
0
 30
0.0
 40
0.216
 41
0.216
  0
VERTEX
  8
0
 10
7.43956
 20
7.55512
 30
0.0
 40
0.003
 41
0.003
  0
VERTEX
  8
0
 10
7.43956
 20
7.30512
 30
0.0
 40
0.003
 41
0.003
  0
SEQEND
 8
0
  0
POLYLINE
  8
0
 62
     0
 66
     1
 10
0
 20
0
 30
0.0
 40
0.216
 41
0.216
  0
VERTEX
  8
0
 10
7.49274
 20
8.14567
 30
0.0
 40
0.003
 41
0.003
  0
VERTEX
  8
0
 10
7.49274
 20
8.5459
 30
0.0
 40
0.003
 41
0.003
  0
SEQEND
 8
0
  0
POLYLINE
  8
0
 62
     0
 66
     1
 10
0
 20
0
 30
0.0
 40
0.216
 41
0.216
  0
VERTEX
  8
0
 10
7.68956
 20
7.55512
 30
0.0
 40
0.003
 41
0.003
  0
VERTEX
  8
0
 10
7.68956
 20
7.30512
 30
0.0
 40
0.003
 41
0.003
  0
SEQEND
 8
0
  0
POLYLINE
  8
0
 62
     0
 66
     1
 10
0
 20
0
 30
0.0
 40
0.216
 41
0.216
  0
VERTEX
  8
0
 10
7.68956
 20
7.55512
 30
0.0
 40
0.003
 41
0.003
  0
VERTEX
  8
0
 10
7.49274
 20
8.14567
 30
0.0
 40
0.003
 41
0.003
  0
SEQEND
 8
0
  0
POLYLINE
  8
0
 62
     0
 66
     1
 10
0
 20
0
 30
0.0
 40
0.216
 41
0.216
  0
VERTEX
  8
0
 10
4.09901
 20
6.88553
 30
0.0
 40
0.003
 41
0.003
  0
VERTEX
  8
0
 10
4.02556
 20
6.87088
 30
0.0
 40
0.003
 41
0.003
  0
VERTEX
  8
0
 10
3.80968
 20
6.80485
 30
0.0
 40
0.003
 41
0.003
  0
VERTEX
  8
0
 10
3.54004
 20
6.68419
 30
0.0
 40
0.003
 41
0.003
  0
VERTEX
  8
0
 10
3.2934
 20
6.52696
 30
0.0
 40
0.003
 41
0.003
  0
VERTEX
  8
0
 10
3.07319
 20
6.33653
 30
0.0
 40
0.003
 41
0.003
  0
VERTEX
  8
0
 10
2.88282
 20
6.11632
 30
0.0
 40
0.003
 41
0.003
  0
VERTEX
  8
0
 10
2.72558
 20
5.86974
 30
0.0
 40
0.003
 41
0.003
  0
VERTEX
  8
0
 10
2.60493
 20
5.60004
 30
0.0
 40
0.003
 41
0.003
  0
VERTEX
  8
0
 10
2.5389
 20
5.38417
 30
0.0
 40
0.003
 41
0.003
  0
VERTEX
  8
0
 10
2.52425
 20
5.31071
 30
0.0
 40
0.003
 41
0.003
  0
SEQEND
 8
0
  0
POLYLINE
  8
0
 62
     0
 66
     1
 10
0
 20
0
 30
0.0
 40
0.216
 41
0.216
  0
VERTEX
  8
0
 10
2.52425
 20
4.52333
 30
0.0
 40
0.003
 41
0.003
  0
VERTEX
  8
0
 10
2.5389
 20
4.44993
 30
0.0
 40
0.003
 41
0.003
  0
VERTEX
  8
0
 10
2.60493
 20
4.23406
 30
0.0
 40
0.003
 41
0.003
  0
VERTEX
  8
0
 10
2.72558
 20
3.96436
 30
0.0
 40
0.003
 41
0.003
  0
VERTEX
  8
0
 10
2.88282
 20
3.71778
 30
0.0
 40
0.003
 41
0.003
  0
VERTEX
  8
0
 10
3.07319
 20
3.49756
 30
0.0
 40
0.003
 41
0.003
  0
VERTEX
  8
0
 10
3.2934
 20
3.30713
 30
0.0
 40
0.003
 41
0.003
  0
VERTEX
  8
0
 10
3.54004
 20
3.1499
 30
0.0
 40
0.003
 41
0.003
  0
VERTEX
  8
0
 10
3.80968
 20
3.02924
 30
0.0
 40
0.003
 41
0.003
  0
VERTEX
  8
0
 10
4.02556
 20
2.96322
 30
0.0
 40
0.003
 41
0.003
  0
VERTEX
  8
0
 10
4.09901
 20
2.94851
 30
0.0
 40
0.003
 41
0.003
  0
SEQEND
 8
0
  0
POLYLINE
  8
0
 62
     0
 66
     1
 10
0
 20
0
 30
0.0
 40
0.216
 41
0.216
  0
VERTEX
  8
0
 10
4.88644
 20
2.94851
 30
0.0
 40
0.003
 41
0.003
  0
VERTEX
  8
0
 10
4.95985
 20
2.96322
 30
0.0
 40
0.003
 41
0.003
  0
VERTEX
  8
0
 10
5.17572
 20
3.02924
 30
0.0
 40
0.003
 41
0.003
  0
VERTEX
  8
0
 10
5.44536
 20
3.1499
 30
0.0
 40
0.003
 41
0.003
  0
VERTEX
  8
0
 10
5.692
 20
3.30713
 30
0.0
 40
0.003
 41
0.003
  0
VERTEX
  8
0
 10
5.91222
 20
3.49756
 30
0.0
 40
0.003
 41
0.003
  0
VERTEX
  8
0
 10
6.1026
 20
3.71778
 30
0.0
 40
0.003
 41
0.003
  0
VERTEX
  8
0
 10
6.25982
 20
3.96436
 30
0.0
 40
0.003
 41
0.003
  0
VERTEX
  8
0
 10
6.38049
 20
4.23406
 30
0.0
 40
0.003
 41
0.003
  0
VERTEX
  8
0
 10
6.4465
 20
4.44993
 30
0.0
 40
0.003
 41
0.003
  0
VERTEX
  8
0
 10
6.46121
 20
4.52333
 30
0.0
 40
0.003
 41
0.003
  0
SEQEND
 8
0
  0
POLYLINE
  8
0
 62
     0
 66
     1
 10
0
 20
0
 30
0.0
 40
0.216
 41
0.216
  0
VERTEX
  8
0
 10
6.46121
 20
5.31071
 30
0.0
 40
0.003
 41
0.003
  0
VERTEX
  8
0
 10
6.4465
 20
5.38417
 30
0.0
 40
0.003
 41
0.003
  0
VERTEX
  8
0
 10
6.38049
 20
5.60004
 30
0.0
 40
0.003
 41
0.003
  0
VERTEX
  8
0
 10
6.25982
 20
5.86974
 30
0.0
 40
0.003
 41
0.003
  0
VERTEX
  8
0
 10
6.1026
 20
6.11632
 30
0.0
 40
0.003
 41
0.003
  0
VERTEX
  8
0
 10
5.91222
 20
6.33653
 30
0.0
 40
0.003
 41
0.003
  0
VERTEX
  8
0
 10
5.692
 20
6.52696
 30
0.0
 40
0.003
 41
0.003
  0
VERTEX
  8
0
 10
5.44536
 20
6.68419
 30
0.0
 40
0.003
 41
0.003
  0
VERTEX
  8
0
 10
5.17572
 20
6.80485
 30
0.0
 40
0.003
 41
0.003
  0
VERTEX
  8
0
 10
4.95985
 20
6.87088
 30
0.0
 40
0.003
 41
0.003
  0
VERTEX
  8
0
 10
4.88644
 20
6.88553
 30
0.0
 40
0.003
 41
0.003
  0
SEQEND
 8
0
  0
POLYLINE
  8
0
 62
     0
 66
     1
 10
0
 20
0
 30
0.0
 40
0.216
 41
0.216
  0
VERTEX
  8
0
 10
1.85889
 20
4.3781
 30
0.0
 40
0.003
 41
0.003
  0
VERTEX
  8
0
 10
1.89654
 20
4.3781
 30
0.0
 40
0.003
 41
0.003
  0
VERTEX
  8
0
 10
2.0095
 20
4.4081
 30
0.0
 40
0.003
 41
0.003
  0
VERTEX
  8
0
 10
2.11876
 20
4.47499
 30
0.0
 40
0.003
 41
0.003
  0
VERTEX
  8
0
 10
2.13726
 20
4.49343
 30
0.0
 40
0.003
 41
0.003
  0
VERTEX
  8
0
 10
2.15571
 20
4.51193
 30
0.0
 40
0.003
 41
0.003
  0
VERTEX
  8
0
 10
2.22254
 20
4.62115
 30
0.0
 40
0.003
 41
0.003
  0
VERTEX
  8
0
 10
2.25256
 20
4.73415
 30
0.0
 40
0.003
 41
0.003
  0
VERTEX
  8
0
 10
2.25256
 20
4.77181
 30
0.0
 40
0.003
 41
0.003
  0
SEQEND
 8
0
  0
POLYLINE
  8
0
 62
     0
 66
     1
 10
0
 20
0
 30
0.0
 70
     1
 40
0.216
 41
0.216
  0
VERTEX
  8
0
 10
4.00028
 20
4.39501
 30
0.0
 40
0.003
 41
0.003
  0
VERTEX
  8
0
 10
4.00028
 20
4.40028
 30
0.0
 40
0.003
 41
0.003
  0
VERTEX
  8
0
 10
3.9916
 20
4.41596
 30
0.0
 40
0.003
 41
0.003
  0
VERTEX
  8
0
 10
3.97597
 20
4.42458
 30
0.0
 40
0.003
 41
0.003
  0
VERTEX
  8
0
 10
3.97076
 20
4.42458
 30
0.0
 40
0.003
 41
0.003
  0
VERTEX
  8
0
 10
3.9655
 20
4.42458
 30
0.0
 40
0.003
 41
0.003
  0
VERTEX
  8
0
 10
3.94987
 20
4.41596
 30
0.0
 40
0.003
 41
0.003
  0
VERTEX
  8
0
 10
3.94125
 20
4.40028
 30
0.0
 40
0.003
 41
0.003
  0
VERTEX
  8
0
 10
3.94125
 20
4.39501
 30
0.0
 40
0.003
 41
0.003
  0
VERTEX
  8
0
 10
3.94125
 20
4.38981
 30
0.0
 40
0.003
 41
0.003
  0
VERTEX
  8
0
 10
3.94987
 20
4.37418
 30
0.0
 40
0.003
 41
0.003
  0
VERTEX
  8
0
 10
3.9655
 20
4.3655
 30
0.0
 40
0.003
 41
0.003
  0
VERTEX
  8
0
 10
3.97076
 20
4.3655
 30
0.0
 40
0.003
 41
0.003
  0
VERTEX
  8
0
 10
3.97597
 20
4.3655
 30
0.0
 40
0.003
 41
0.003
  0
VERTEX
  8
0
 10
3.9916
 20
4.37418
 30
0.0
 40
0.003
 41
0.003
  0
VERTEX
  8
0
 10
4.00028
 20
4.38981
 30
0.0
 40
0.003
 41
0.003
  0
VERTEX
  8
0
 10
4.00028
 20
4.39501
 30
0.0
 40
0.003
 41
0.003
  0
SEQEND
 8
0
  0
POLYLINE
  8
0
 62
     0
 66
     1
 10
0
 20
0
 30
0.0
 70
     1
 40
0.216
 41
0.216
  0
VERTEX
  8
0
 10
4.73801
 20
5.13276
 30
0.0
 40
0.003
 41
0.003
  0
VERTEX
  8
0
 10
4.73801
 20
5.13803
 30
0.0
 40
0.003
 41
0.003
  0
VERTEX
  8
0
 10
4.72933
 20
5.15365
 30
0.0
 40
0.003
 41
0.003
  0
VERTEX
  8
0
 10
4.71371
 20
5.16228
 30
0.0
 40
0.003
 41
0.003
  0
VERTEX
  8
0
 10
4.7085
 20
5.16228
 30
0.0
 40
0.003
 41
0.003
  0
VERTEX
  8
0
 10
4.70324
 20
5.16228
 30
0.0
 40
0.003
 41
0.003
  0
VERTEX
  8
0
 10
4.68756
 20
5.15365
 30
0.0
 40
0.003
 41
0.003
  0
VERTEX
  8
0
 10
4.67893
 20
5.13803
 30
0.0
 40
0.003
 41
0.003
  0
VERTEX
  8
0
 10
4.67893
 20
5.13276
 30
0.0
 40
0.003
 41
0.003
  0
VERTEX
  8
0
 10
4.67893
 20
5.12756
 30
0.0
 40
0.003
 41
0.003
  0
VERTEX
  8
0
 10
4.68756
 20
5.11193
 30
0.0
 40
0.003
 41
0.003
  0
VERTEX
  8
0
 10
4.70324
 20
5.10325
 30
0.0
 40
0.003
 41
0.003
  0
VERTEX
  8
0
 10
4.7085
 20
5.10325
 30
0.0
 40
0.003
 41
0.003
  0
VERTEX
  8
0
 10
4.71371
 20
5.10325
 30
0.0
 40
0.003
 41
0.003
  0
VERTEX
  8
0
 10
4.72933
 20
5.11193
 30
0.0
 40
0.003
 41
0.003
  0
VERTEX
  8
0
 10
4.73801
 20
5.12756
 30
0.0
 40
0.003
 41
0.003
  0
VERTEX
  8
0
 10
4.73801
 20
5.13276
 30
0.0
 40
0.003
 41
0.003
  0
SEQEND
 8
0
  0
POLYLINE
  8
0
 62
     0
 66
     1
 10
0
 20
0
 30
0.0
 40
0.216
 41
0.216
  0
VERTEX
  8
0
 10
2.80767
 20
9.07736
 30
0.0
 40
0.003
 41
0.003
  0
VERTEX
  8
0
 10
2.78614
 20
9.06803
 30
0.0
 40
0.003
 41
0.003
  0
VERTEX
  8
0
 10
2.72618
 20
9.02946
 30
0.0
 40
0.003
 41
0.003
  0
VERTEX
  8
0
 10
2.65929
 20
8.96446
 30
0.0
 40
0.003
 41
0.003
  0
VERTEX
  8
0
 10
2.60954
 20
8.88558
 30
0.0
 40
0.003
 41
0.003
  0
VERTEX
  8
0
 10
2.58425
 20
8.8189
 30
0.0
 40
0.003
 41
0.003
  0
VERTEX
  8
0
 10
2.57954
 20
8.7959
 30
0.0
 40
0.003
 41
0.003
  0
SEQEND
 8
0
  0
POLYLINE
  8
0
 62
     0
 66
     1
 10
0
 20
0
 30
0.0
 40
0.216
 41
0.216
  0
VERTEX
  8
0
 10
3.35081
 20
8.7959
 30
0.0
 40
0.003
 41
0.003
  0
VERTEX
  8
0
 10
3.34608
 20
8.8189
 30
0.0
 40
0.003
 41
0.003
  0
VERTEX
  8
0
 10
3.32075
 20
8.88558
 30
0.0
 40
0.003
 41
0.003
  0
VERTEX
  8
0
 10
3.271
 20
8.96446
 30
0.0
 40
0.003
 41
0.003
  0
VERTEX
  8
0
 10
3.2041
 20
9.02946
 30
0.0
 40
0.003
 41
0.003
  0
VERTEX
  8
0
 10
3.14415
 20
9.06803
 30
0.0
 40
0.003
 41
0.003
  0
VERTEX
  8
0
 10
3.12267
 20
9.07736
 30
0.0
 40
0.003
 41
0.003
  0
SEQEND
 8
0
  0
POLYLINE
  8
0
 62
     0
 66
     1
 10
0
 20
0
 30
0.0
 40
0.216
 41
0.216
  0
VERTEX
  8
0
 10
4.18565
 20
9.07736
 30
0.0
 40
0.003
 41
0.003
  0
VERTEX
  8
0
 10
4.16411
 20
9.06803
 30
0.0
 40
0.003
 41
0.003
  0
VERTEX
  8
0
 10
4.10411
 20
9.02946
 30
0.0
 40
0.003
 41
0.003
  0
VERTEX
  8
0
 10
4.03722
 20
8.96446
 30
0.0
 40
0.003
 41
0.003
  0
VERTEX
  8
0
 10
3.98753
 20
8.88558
 30
0.0
 40
0.003
 41
0.003
  0
VERTEX
  8
0
 10
3.96224
 20
8.8189
 30
0.0
 40
0.003
 41
0.003
  0
VERTEX
  8
0
 10
3.95751
 20
8.7959
 30
0.0
 40
0.003
 41
0.003
  0
SEQEND
 8
0
  0
POLYLINE
  8
0
 62
     0
 66
     1
 10
0
 20
0
 30
0.0
 40
0.216
 41
0.216
  0
VERTEX
  8
0
 10
4.72874
 20
8.7959
 30
0.0
 40
0.003
 41
0.003
  0
VERTEX
  8
0
 10
4.72401
 20
8.8189
 30
0.0
 40
0.003
 41
0.003
  0
VERTEX
  8
0
 10
4.69868
 20
8.88558
 30
0.0
 40
0.003
 41
0.003
  0
VERTEX
  8
0
 10
4.64899
 20
8.96446
 30
0.0
 40
0.003
 41
0.003
  0
VERTEX
  8
0
 10
4.58208
 20
9.02946
 30
0.0
 40
0.003
 41
0.003
  0
VERTEX
  8
0
 10
4.52208
 20
9.06803
 30
0.0
 40
0.003
 41
0.003
  0
VERTEX
  8
0
 10
4.5006
 20
9.07736
 30
0.0
 40
0.003
 41
0.003
  0
SEQEND
 8
0
  0
POLYLINE
  8
0
 62
     0
 66
     1
 10
0
 20
0
 30
0.0
 40
0.216
 41
0.216
  0
VERTEX
  8
0
 10
5.56358
 20
9.07736
 30
0.0
 40
0.003
 41
0.003
  0
VERTEX
  8
0
 10
5.54204
 20
9.06803
 30
0.0
 40
0.003
 41
0.003
  0
VERTEX
  8
0
 10
5.4821
 20
9.02946
 30
0.0
 40
0.003
 41
0.003
  0
VERTEX
  8
0
 10
5.41521
 20
8.96446
 30
0.0
 40
0.003
 41
0.003
  0
VERTEX
  8
0
 10
5.36546
 20
8.88558
 30
0.0
 40
0.003
 41
0.003
  0
VERTEX
  8
0
 10
5.34017
 20
8.8189
 30
0.0
 40
0.003
 41
0.003
  0
VERTEX
  8
0
 10
5.33544
 20
8.7959
 30
0.0
 40
0.003
 41
0.003
  0
SEQEND
 8
0
  0
POLYLINE
  8
0
 62
     0
 66
     1
 10
0
 20
0
 30
0.0
 40
0.216
 41
0.216
  0
VERTEX
  8
0
 10
6.10672
 20
8.7959
 30
0.0
 40
0.003
 41
0.003
  0
VERTEX
  8
0
 10
6.102
 20
8.8189
 30
0.0
 40
0.003
 41
0.003
  0
VERTEX
  8
0
 10
6.07667
 20
8.88558
 30
0.0
 40
0.003
 41
0.003
  0
VERTEX
  8
0
 10
6.02692
 20
8.96446
 30
0.0
 40
0.003
 41
0.003
  0
VERTEX
  8
0
 10
5.96001
 20
9.02946
 30
0.0
 40
0.003
 41
0.003
  0
VERTEX
  8
0
 10
5.90007
 20
9.06803
 30
0.0
 40
0.003
 41
0.003
  0
VERTEX
  8
0
 10
5.87858
 20
9.07736
 30
0.0
 40
0.003
 41
0.003
  0
SEQEND
 8
0
  0
POLYLINE
  8
0
 62
     0
 66
     1
 10
0
 20
0
 30
0.0
 40
0.216
 41
0.216
  0
VERTEX
  8
0
 10
6.94157
 20
9.07736
 30
0.0
 40
0.003
 41
0.003
  0
VERTEX
  8
0
 10
6.92003
 20
9.06803
 30
0.0
 40
0.003
 41
0.003
  0
VERTEX
  8
0
 10
6.86003
 20
9.02946
 30
0.0
 40
0.003
 41
0.003
  0
VERTEX
  8
0
 10
6.79313
 20
8.96446
 30
0.0
 40
0.003
 41
0.003
  0
VERTEX
  8
0
 10
6.74338
 20
8.88558
 30
0.0
 40
0.003
 41
0.003
  0
VERTEX
  8
0
 10
6.7181
 20
8.8189
 30
0.0
 40
0.003
 41
0.003
  0
VERTEX
  8
0
 10
6.71338
 20
8.7959
 30
0.0
 40
0.003
 41
0.003
  0
SEQEND
 8
0
  0
POLYLINE
  8
0
 62
     0
 66
     1
 10
0
 20
0
 30
0.0
 40
0.216
 41
0.216
  0
VERTEX
  8
0
 10
7.48465
 20
8.7959
 30
0.0
 40
0.003
 41
0.003
  0
VERTEX
  8
0
 10
7.47993
 20
8.8189
 30
0.0
 40
0.003
 41
0.003
  0
VERTEX
  8
0
 10
7.45458
 20
8.88558
 30
0.0
 40
0.003
 41
0.003
  0
VERTEX
  8
0
 10
7.40489
 20
8.96446
 30
0.0
 40
0.003
 41
0.003
  0
VERTEX
  8
0
 10
7.338
 20
9.02946
 30
0.0
 40
0.003
 41
0.003
  0
VERTEX
  8
0
 10
7.278
 20
9.06803
 30
0.0
 40
0.003
 41
0.003
  0
VERTEX
  8
0
 10
7.25651
 20
9.07736
 30
0.0
 40
0.003
 41
0.003
  0
SEQEND
 8
0
  0
POLYLINE
  8
0
 62
     0
 66
     1
 10
0
 20
0
 30
0.0
 40
0.216
 41
0.216
  0
VERTEX
  8
0
 10
2.25256
 20
8.90565
 30
0.0
 40
0.003
 41
0.003
  0
VERTEX
  8
0
 10
2.25256
 20
8.94336
 30
0.0
 40
0.003
 41
0.003
  0
VERTEX
  8
0
 10
2.22254
 20
9.05638
 30
0.0
 40
0.003
 41
0.003
  0
VERTEX
  8
0
 10
2.15571
 20
9.16564
 30
0.0
 40
0.003
 41
0.003
  0
VERTEX
  8
0
 10
2.13726
 20
9.18408
 30
0.0
 40
0.003
 41
0.003
  0
VERTEX
  8
0
 10
2.11876
 20
9.20253
 30
0.0
 40
0.003
 41
0.003
  0
VERTEX
  8
0
 10
2.0095
 20
9.26942
 30
0.0
 40
0.003
 41
0.003
  0
VERTEX
  8
0
 10
1.89654
 20
9.29937
 30
0.0
 40
0.003
 41
0.003
  0
VERTEX
  8
0
 10
1.85889
 20
9.29937
 30
0.0
 40
0.003
 41
0.003
  0
SEQEND
 8
0
  0
POLYLINE
  8
0
 62
     0
 66
     1
 10
0
 20
0
 30
0.0
 70
     1
 40
0.216
 41
0.216
  0
VERTEX
  8
0
 10
3.05181
 20
8.6709
 30
0.0
 40
0.003
 41
0.003
  0
VERTEX
  8
0
 10
3.05181
 20
8.67936
 30
0.0
 40
0.003
 41
0.003
  0
VERTEX
  8
0
 10
3.04497
 20
8.70464
 30
0.0
 40
0.003
 41
0.003
  0
VERTEX
  8
0
 10
3.02642
 20
8.73215
 30
0.0
 40
0.003
 41
0.003
  0
VERTEX
  8
0
 10
2.99886
 20
8.75071
 30
0.0
 40
0.003
 41
0.003
  0
VERTEX
  8
0
 10
2.97358
 20
8.75749
 30
0.0
 40
0.003
 41
0.003
  0
VERTEX
  8
0
 10
2.96517
 20
8.75749
 30
0.0
 40
0.003
 41
0.003
  0
VERTEX
  8
0
 10
2.95671
 20
8.75749
 30
0.0
 40
0.003
 41
0.003
  0
VERTEX
  8
0
 10
2.93143
 20
8.75071
 30
0.0
 40
0.003
 41
0.003
  0
VERTEX
  8
0
 10
2.90392
 20
8.73215
 30
0.0
 40
0.003
 41
0.003
  0
VERTEX
  8
0
 10
2.88536
 20
8.70464
 30
0.0
 40
0.003
 41
0.003
  0
VERTEX
  8
0
 10
2.87858
 20
8.67936
 30
0.0
 40
0.003
 41
0.003
  0
VERTEX
  8
0
 10
2.87858
 20
8.6709
 30
0.0
 40
0.003
 41
0.003
  0
VERTEX
  8
0
 10
2.87858
 20
8.66249
 30
0.0
 40
0.003
 41
0.003
  0
VERTEX
  8
0
 10
2.88536
 20
8.63721
 30
0.0
 40
0.003
 41
0.003
  0
VERTEX
  8
0
 10
2.90392
 20
8.60965
 30
0.0
 40
0.003
 41
0.003
  0
VERTEX
  8
0
 10
2.93143
 20
8.5911
 30
0.0
 40
0.003
 41
0.003
  0
VERTEX
  8
0
 10
2.95671
 20
8.58425
 30
0.0
 40
0.003
 41
0.003
  0
VERTEX
  8
0
 10
2.96517
 20
8.58425
 30
0.0
 40
0.003
 41
0.003
  0
VERTEX
  8
0
 10
2.97358
 20
8.58425
 30
0.0
 40
0.003
 41
0.003
  0
VERTEX
  8
0
 10
2.99886
 20
8.5911
 30
0.0
 40
0.003
 41
0.003
  0
VERTEX
  8
0
 10
3.02642
 20
8.60965
 30
0.0
 40
0.003
 41
0.003
  0
VERTEX
  8
0
 10
3.04497
 20
8.63721
 30
0.0
 40
0.003
 41
0.003
  0
VERTEX
  8
0
 10
3.05181
 20
8.66249
 30
0.0
 40
0.003
 41
0.003
  0
VERTEX
  8
0
 10
3.05181
 20
8.6709
 30
0.0
 40
0.003
 41
0.003
  0
SEQEND
 8
0
  0
POLYLINE
  8
0
 62
     0
 66
     1
 10
0
 20
0
 30
0.0
 70
     1
 40
0.216
 41
0.216
  0
VERTEX
  8
0
 10
4.42974
 20
8.6709
 30
0.0
 40
0.003
 41
0.003
  0
VERTEX
  8
0
 10
4.42974
 20
8.67936
 30
0.0
 40
0.003
 41
0.003
  0
VERTEX
  8
0
 10
4.4229
 20
8.70464
 30
0.0
 40
0.003
 41
0.003
  0
VERTEX
  8
0
 10
4.40435
 20
8.73215
 30
0.0
 40
0.003
 41
0.003
  0
VERTEX
  8
0
 10
4.37679
 20
8.75071
 30
0.0
 40
0.003
 41
0.003
  0
VERTEX
  8
0
 10
4.35151
 20
8.75749
 30
0.0
 40
0.003
 41
0.003
  0
VERTEX
  8
0
 10
4.3431
 20
8.75749
 30
0.0
 40
0.003
 41
0.003
  0
VERTEX
  8
0
 10
4.33464
 20
8.75749
 30
0.0
 40
0.003
 41
0.003
  0
VERTEX
  8
0
 10
4.30935
 20
8.75071
 30
0.0
 40
0.003
 41
0.003
  0
VERTEX
  8
0
 10
4.28185
 20
8.73215
 30
0.0
 40
0.003
 41
0.003
  0
VERTEX
  8
0
 10
4.26329
 20
8.70464
 30
0.0
 40
0.003
 41
0.003
  0
VERTEX
  8
0
 10
4.25651
 20
8.67936
 30
0.0
 40
0.003
 41
0.003
  0
VERTEX
  8
0
 10
4.25651
 20
8.6709
 30
0.0
 40
0.003
 41
0.003
  0
VERTEX
  8
0
 10
4.25651
 20
8.66249
 30
0.0
 40
0.003
 41
0.003
  0
VERTEX
  8
0
 10
4.26329
 20
8.63721
 30
0.0
 40
0.003
 41
0.003
  0
VERTEX
  8
0
 10
4.28185
 20
8.60965
 30
0.0
 40
0.003
 41
0.003
  0
VERTEX
  8
0
 10
4.30935
 20
8.5911
 30
0.0
 40
0.003
 41
0.003
  0
VERTEX
  8
0
 10
4.33464
 20
8.58425
 30
0.0
 40
0.003
 41
0.003
  0
VERTEX
  8
0
 10
4.3431
 20
8.58425
 30
0.0
 40
0.003
 41
0.003
  0
VERTEX
  8
0
 10
4.35151
 20
8.58425
 30
0.0
 40
0.003
 41
0.003
  0
VERTEX
  8
0
 10
4.37679
 20
8.5911
 30
0.0
 40
0.003
 41
0.003
  0
VERTEX
  8
0
 10
4.40435
 20
8.60965
 30
0.0
 40
0.003
 41
0.003
  0
VERTEX
  8
0
 10
4.4229
 20
8.63721
 30
0.0
 40
0.003
 41
0.003
  0
VERTEX
  8
0
 10
4.42974
 20
8.66249
 30
0.0
 40
0.003
 41
0.003
  0
VERTEX
  8
0
 10
4.42974
 20
8.6709
 30
0.0
 40
0.003
 41
0.003
  0
SEQEND
 8
0
  0
POLYLINE
  8
0
 62
     0
 66
     1
 10
0
 20
0
 30
0.0
 70
     1
 40
0.216
 41
0.216
  0
VERTEX
  8
0
 10
5.80767
 20
8.6709
 30
0.0
 40
0.003
 41
0.003
  0
VERTEX
  8
0
 10
5.80767
 20
8.67936
 30
0.0
 40
0.003
 41
0.003
  0
VERTEX
  8
0
 10
5.80083
 20
8.70464
 30
0.0
 40
0.003
 41
0.003
  0
VERTEX
  8
0
 10
5.78228
 20
8.73215
 30
0.0
 40
0.003
 41
0.003
  0
VERTEX
  8
0
 10
5.75478
 20
8.75071
 30
0.0
 40
0.003
 41
0.003
  0
VERTEX
  8
0
 10
5.72949
 20
8.75749
 30
0.0
 40
0.003
 41
0.003
  0
VERTEX
  8
0
 10
5.72108
 20
8.75749
 30
0.0
 40
0.003
 41
0.003
  0
VERTEX
  8
0
 10
5.71262
 20
8.75749
 30
0.0
 40
0.003
 41
0.003
  0
VERTEX
  8
0
 10
5.68733
 20
8.75071
 30
0.0
 40
0.003
 41
0.003
  0
VERTEX
  8
0
 10
5.65978
 20
8.73215
 30
0.0
 40
0.003
 41
0.003
  0
VERTEX
  8
0
 10
5.64122
 20
8.70464
 30
0.0
 40
0.003
 41
0.003
  0
VERTEX
  8
0
 10
5.63444
 20
8.67936
 30
0.0
 40
0.003
 41
0.003
  0
VERTEX
  8
0
 10
5.63444
 20
8.6709
 30
0.0
 40
0.003
 41
0.003
  0
VERTEX
  8
0
 10
5.63444
 20
8.66249
 30
0.0
 40
0.003
 41
0.003
  0
VERTEX
  8
0
 10
5.64122
 20
8.63721
 30
0.0
 40
0.003
 41
0.003
  0
VERTEX
  8
0
 10
5.65978
 20
8.60965
 30
0.0
 40
0.003
 41
0.003
  0
VERTEX
  8
0
 10
5.68733
 20
8.5911
 30
0.0
 40
0.003
 41
0.003
  0
VERTEX
  8
0
 10
5.71262
 20
8.58425
 30
0.0
 40
0.003
 41
0.003
  0
VERTEX
  8
0
 10
5.72108
 20
8.58425
 30
0.0
 40
0.003
 41
0.003
  0
VERTEX
  8
0
 10
5.72949
 20
8.58425
 30
0.0
 40
0.003
 41
0.003
  0
VERTEX
  8
0
 10
5.75478
 20
8.5911
 30
0.0
 40
0.003
 41
0.003
  0
VERTEX
  8
0
 10
5.78228
 20
8.60965
 30
0.0
 40
0.003
 41
0.003
  0
VERTEX
  8
0
 10
5.80083
 20
8.63721
 30
0.0
 40
0.003
 41
0.003
  0
VERTEX
  8
0
 10
5.80767
 20
8.66249
 30
0.0
 40
0.003
 41
0.003
  0
VERTEX
  8
0
 10
5.80767
 20
8.6709
 30
0.0
 40
0.003
 41
0.003
  0
SEQEND
 8
0
  0
POLYLINE
  8
0
 62
     0
 66
     1
 10
0
 20
0
 30
0.0
 70
     1
 40
0.216
 41
0.216
  0
VERTEX
  8
0
 10
7.18565
 20
8.6709
 30
0.0
 40
0.003
 41
0.003
  0
VERTEX
  8
0
 10
7.18565
 20
8.67936
 30
0.0
 40
0.003
 41
0.003
  0
VERTEX
  8
0
 10
7.17882
 20
8.70464
 30
0.0
 40
0.003
 41
0.003
  0
VERTEX
  8
0
 10
7.16026
 20
8.73215
 30
0.0
 40
0.003
 41
0.003
  0
VERTEX
  8
0
 10
7.13271
 20
8.75071
 30
0.0
 40
0.003
 41
0.003
  0
VERTEX
  8
0
 10
7.10742
 20
8.75749
 30
0.0
 40
0.003
 41
0.003
  0
VERTEX
  8
0
 10
7.09901
 20
8.75749
 30
0.0
 40
0.003
 41
0.003
  0
VERTEX
  8
0
 10
7.09056
 20
8.75749
 30
0.0
 40
0.003
 41
0.003
  0
VERTEX
  8
0
 10
7.06526
 20
8.75071
 30
0.0
 40
0.003
 41
0.003
  0
VERTEX
  8
0
 10
7.03776
 20
8.73215
 30
0.0
 40
0.003
 41
0.003
  0
VERTEX
  8
0
 10
7.01921
 20
8.70464
 30
0.0
 40
0.003
 41
0.003
  0
VERTEX
  8
0
 10
7.01243
 20
8.67936
 30
0.0
 40
0.003
 41
0.003
  0
VERTEX
  8
0
 10
7.01243
 20
8.6709
 30
0.0
 40
0.003
 41
0.003
  0
VERTEX
  8
0
 10
7.01243
 20
8.66249
 30
0.0
 40
0.003
 41
0.003
  0
VERTEX
  8
0
 10
7.01921
 20
8.63721
 30
0.0
 40
0.003
 41
0.003
  0
VERTEX
  8
0
 10
7.03776
 20
8.60965
 30
0.0
 40
0.003
 41
0.003
  0
VERTEX
  8
0
 10
7.06526
 20
8.5911
 30
0.0
 40
0.003
 41
0.003
  0
VERTEX
  8
0
 10
7.09056
 20
8.58425
 30
0.0
 40
0.003
 41
0.003
  0
VERTEX
  8
0
 10
7.09901
 20
8.58425
 30
0.0
 40
0.003
 41
0.003
  0
VERTEX
  8
0
 10
7.10742
 20
8.58425
 30
0.0
 40
0.003
 41
0.003
  0
VERTEX
  8
0
 10
7.13271
 20
8.5911
 30
0.0
 40
0.003
 41
0.003
  0
VERTEX
  8
0
 10
7.16026
 20
8.60965
 30
0.0
 40
0.003
 41
0.003
  0
VERTEX
  8
0
 10
7.17882
 20
8.63721
 30
0.0
 40
0.003
 41
0.003
  0
VERTEX
  8
0
 10
7.18565
 20
8.66249
 30
0.0
 40
0.003
 41
0.003
  0
VERTEX
  8
0
 10
7.18565
 20
8.6709
 30
0.0
 40
0.003
 41
0.003
  0
SEQEND
 8
0
  0
POLYLINE
  8
0
 62
     0
 66
     1
 10
0
 20
0
 30
0.0
 70
     1
 40
0.216
 41
0.216
  0
VERTEX
  8
0
 10
1.75293
 20
6.82975
 30
0.0
 40
0.003
 41
0.003
  0
VERTEX
  8
0
 10
1.75293
 20
6.83589
 30
0.0
 40
0.003
 41
0.003
  0
VERTEX
  8
0
 10
1.74799
 20
6.85411
 30
0.0
 40
0.003
 41
0.003
  0
VERTEX
  8
0
 10
1.7346
 20
6.87397
 30
0.0
 40
0.003
 41
0.003
  0
VERTEX
  8
0
 10
1.71474
 20
6.88737
 30
0.0
 40
0.003
 41
0.003
  0
VERTEX
  8
0
 10
1.6965
 20
6.89225
 30
0.0
 40
0.003
 41
0.003
  0
VERTEX
  8
0
 10
1.69043
 20
6.89225
 30
0.0
 40
0.003
 41
0.003
  0
VERTEX
  8
0
 10
1.68431
 20
6.89225
 30
0.0
 40
0.003
 41
0.003
  0
VERTEX
  8
0
 10
1.66607
 20
6.88737
 30
0.0
 40
0.003
 41
0.003
  0
VERTEX
  8
0
 10
1.64621
 20
6.87397
 30
0.0
 40
0.003
 41
0.003
  0
VERTEX
  8
0
 10
1.63282
 20
6.85411
 30
0.0
 40
0.003
 41
0.003
  0
VERTEX
  8
0
 10
1.62793
 20
6.83589
 30
0.0
 40
0.003
 41
0.003
  0
VERTEX
  8
0
 10
1.62793
 20
6.82975
 30
0.0
 40
0.003
 41
0.003
  0
VERTEX
  8
0
 10
1.62793
 20
6.82368
 30
0.0
 40
0.003
 41
0.003
  0
VERTEX
  8
0
 10
1.63282
 20
6.80544
 30
0.0
 40
0.003
 41
0.003
  0
VERTEX
  8
0
 10
1.64621
 20
6.7856
 30
0.0
 40
0.003
 41
0.003
  0
VERTEX
  8
0
 10
1.66607
 20
6.77219
 30
0.0
 40
0.003
 41
0.003
  0
VERTEX
  8
0
 10
1.68431
 20
6.76725
 30
0.0
 40
0.003
 41
0.003
  0
VERTEX
  8
0
 10
1.69043
 20
6.76725
 30
0.0
 40
0.003
 41
0.003
  0
VERTEX
  8
0
 10
1.6965
 20
6.76725
 30
0.0
 40
0.003
 41
0.003
  0
VERTEX
  8
0
 10
1.71474
 20
6.77219
 30
0.0
 40
0.003
 41
0.003
  0
VERTEX
  8
0
 10
1.7346
 20
6.7856
 30
0.0
 40
0.003
 41
0.003
  0
VERTEX
  8
0
 10
1.74799
 20
6.80544
 30
0.0
 40
0.003
 41
0.003
  0
VERTEX
  8
0
 10
1.75293
 20
6.82368
 30
0.0
 40
0.003
 41
0.003
  0
VERTEX
  8
0
 10
1.75293
 20
6.82975
 30
0.0
 40
0.003
 41
0.003
  0
SEQEND
 8
0
  0
POLYLINE
  8
0
 62
     0
 66
     1
 10
0
 20
0
 30
0.0
 70
     1
 40
0.216
 41
0.216
  0
VERTEX
  8
0
 10
1.66292
 20
4.95975
 30
0.0
 40
0.003
 41
0.003
  0
VERTEX
  8
0
 10
1.66292
 20
4.96588
 30
0.0
 40
0.003
 41
0.003
  0
VERTEX
  8
0
 10
1.65799
 20
4.9841
 30
0.0
 40
0.003
 41
0.003
  0
VERTEX
  8
0
 10
1.64458
 20
5.00396
 30
0.0
 40
0.003
 41
0.003
  0
VERTEX
  8
0
 10
1.62472
 20
5.01736
 30
0.0
 40
0.003
 41
0.003
  0
VERTEX
  8
0
 10
1.6065
 20
5.02225
 30
0.0
 40
0.003
 41
0.003
  0
VERTEX
  8
0
 10
1.60042
 20
5.02225
 30
0.0
 40
0.003
 41
0.003
  0
VERTEX
  8
0
 10
1.59429
 20
5.02225
 30
0.0
 40
0.003
 41
0.003
  0
VERTEX
  8
0
 10
1.57607
 20
5.01736
 30
0.0
 40
0.003
 41
0.003
  0
VERTEX
  8
0
 10
1.55621
 20
5.00396
 30
0.0
 40
0.003
 41
0.003
  0
VERTEX
  8
0
 10
1.54281
 20
4.9841
 30
0.0
 40
0.003
 41
0.003
  0
VERTEX
  8
0
 10
1.53792
 20
4.96588
 30
0.0
 40
0.003
 41
0.003
  0
VERTEX
  8
0
 10
1.53792
 20
4.95975
 30
0.0
 40
0.003
 41
0.003
  0
VERTEX
  8
0
 10
1.53792
 20
4.95367
 30
0.0
 40
0.003
 41
0.003
  0
VERTEX
  8
0
 10
1.54281
 20
4.93544
 30
0.0
 40
0.003
 41
0.003
  0
VERTEX
  8
0
 10
1.55621
 20
4.91558
 30
0.0
 40
0.003
 41
0.003
  0
VERTEX
  8
0
 10
1.57607
 20
4.90218
 30
0.0
 40
0.003
 41
0.003
  0
VERTEX
  8
0
 10
1.59429
 20
4.89725
 30
0.0
 40
0.003
 41
0.003
  0
VERTEX
  8
0
 10
1.60042
 20
4.89725
 30
0.0
 40
0.003
 41
0.003
  0
VERTEX
  8
0
 10
1.6065
 20
4.89725
 30
0.0
 40
0.003
 41
0.003
  0
VERTEX
  8
0
 10
1.62472
 20
4.90218
 30
0.0
 40
0.003
 41
0.003
  0
VERTEX
  8
0
 10
1.64458
 20
4.91558
 30
0.0
 40
0.003
 41
0.003
  0
VERTEX
  8
0
 10
1.65799
 20
4.93544
 30
0.0
 40
0.003
 41
0.003
  0
VERTEX
  8
0
 10
1.66292
 20
4.95367
 30
0.0
 40
0.003
 41
0.003
  0
VERTEX
  8
0
 10
1.66292
 20
4.95975
 30
0.0
 40
0.003
 41
0.003
  0
SEQEND
 8
0
  0
POLYLINE
  8
0
 62
     250
 66
     1
 10
0
 20
0
 30
0.0
 70
     1
 40
0.216
 41
0.216
  0
VERTEX
  8
0
 10
1.55279
 20
7.74615
 30
0.0
 40
0.003
 41
0.003
  0
VERTEX
  8
0
 10
1.5504
 20
7.74382
 30
0.0
 40
0.003
 41
0.003
  0
VERTEX
  8
0
 10
1.52746
 20
7.70731
 30
0.0
 40
0.003
 41
0.003
  0
VERTEX
  8
0
 10
1.52522
 20
7.70231
 30
0.0
 40
0.003
 41
0.003
  0
VERTEX
  8
0
 10
1.52225
 20
7.69564
 30
0.0
 40
0.003
 41
0.003
  0
VERTEX
  8
0
 10
1.50846
 20
7.66851
 30
0.0
 40
0.003
 41
0.003
  0
VERTEX
  8
0
 10
1.49625
 20
7.64979
 30
0.0
 40
0.003
 41
0.003
  0
VERTEX
  8
0
 10
1.49403
 20
7.64729
 30
0.0
 40
0.003
 41
0.003
  0
VERTEX
  8
0
 10
1.49175
 20
7.64486
 30
0.0
 40
0.003
 41
0.003
  0
VERTEX
  8
0
 10
1.47689
 20
7.63618
 30
0.0
 40
0.003
 41
0.003
  0
VERTEX
  8
0
 10
1.4585
 20
7.63243
 30
0.0
 40
0.003
 41
0.003
  0
VERTEX
  8
0
 10
1.45236
 20
7.63243
 30
0.0
 40
0.003
 41
0.003
  0
VERTEX
  8
0
 10
1.44179
 20
7.63243
 30
0.0
 40
0.003
 41
0.003
  0
VERTEX
  8
0
 10
1.41336
 20
7.64789
 30
0.0
 40
0.003
 41
0.003
  0
VERTEX
  8
0
 10
1.41004
 20
7.65099
 30
0.0
 40
0.003
 41
0.003
  0
VERTEX
  8
0
 10
1.40668
 20
7.65414
 30
0.0
 40
0.003
 41
0.003
  0
VERTEX
  8
0
 10
1.39497
 20
7.6735
 30
0.0
 40
0.003
 41
0.003
  0
VERTEX
  8
0
 10
1.38997
 20
7.69624
 30
0.0
 40
0.003
 41
0.003
  0
VERTEX
  8
0
 10
1.38997
 20
7.70378
 30
0.0
 40
0.003
 41
0.003
  0
VERTEX
  8
0
 10
1.38997
 20
7.71089
 30
0.0
 40
0.003
 41
0.003
  0
VERTEX
  8
0
 10
1.39426
 20
7.72982
 30
0.0
 40
0.003
 41
0.003
  0
VERTEX
  8
0
 10
1.39518
 20
7.73204
 30
0.0
 40
0.003
 41
0.003
  0
VERTEX
  8
0
 10
1.39606
 20
7.73426
 30
0.0
 40
0.003
 41
0.003
  0
VERTEX
  8
0
 10
1.40039
 20
7.74713
 30
0.0
 40
0.003
 41
0.003
  0
VERTEX
  8
0
 10
1.40039
 20
7.75136
 30
0.0
 40
0.003
 41
0.003
  0
VERTEX
  8
0
 10
1.40039
 20
7.75342
 30
0.0
 40
0.003
 41
0.003
  0
VERTEX
  8
0
 10
1.39849
 20
7.7589
 30
0.0
 40
0.003
 41
0.003
  0
VERTEX
  8
0
 10
1.39817
 20
7.7595
 30
0.0
 40
0.003
 41
0.003
  0
VERTEX
  8
0
 10
1.39779
 20
7.76014
 30
0.0
 40
0.003
 41
0.003
  0
VERTEX
  8
0
 10
1.39094
 20
7.76574
 30
0.0
 40
0.003
 41
0.003
  0
VERTEX
  8
0
 10
1.38997
 20
7.76622
 30
0.0
 40
0.003
 41
0.003
  0
VERTEX
  8
0
 10
1.4509
 20
7.77214
 30
0.0
 40
0.003
 41
0.003
  0
VERTEX
  8
0
 10
1.45389
 20
7.76471
 30
0.0
 40
0.003
 41
0.003
  0
VERTEX
  8
0
 10
1.44868
 20
7.76253
 30
0.0
 40
0.003
 41
0.003
  0
VERTEX
  8
0
 10
1.41336
 20
7.73964
 30
0.0
 40
0.003
 41
0.003
  0
VERTEX
  8
0
 10
1.41151
 20
7.73725
 30
0.0
 40
0.003
 41
0.003
  0
VERTEX
  8
0
 10
1.40967
 20
7.73492
 30
0.0
 40
0.003
 41
0.003
  0
VERTEX
  8
0
 10
1.40039
 20
7.70936
 30
0.0
 40
0.003
 41
0.003
  0
VERTEX
  8
0
 10
1.40039
 20
7.70079
 30
0.0
 40
0.003
 41
0.003
  0
VERTEX
  8
0
 10
1.40039
 20
7.69488
 30
0.0
 40
0.003
 41
0.003
  0
VERTEX
  8
0
 10
1.40424
 20
7.67703
 30
0.0
 40
0.003
 41
0.003
  0
VERTEX
  8
0
 10
1.41336
 20
7.6639
 30
0.0
 40
0.003
 41
0.003
  0
VERTEX
  8
0
 10
1.41596
 20
7.66217
 30
0.0
 40
0.003
 41
0.003
  0
VERTEX
  8
0
 10
1.41857
 20
7.66043
 30
0.0
 40
0.003
 41
0.003
  0
VERTEX
  8
0
 10
1.44168
 20
7.65175
 30
0.0
 40
0.003
 41
0.003
  0
VERTEX
  8
0
 10
1.44943
 20
7.65175
 30
0.0
 40
0.003
 41
0.003
  0
VERTEX
  8
0
 10
1.45594
 20
7.65175
 30
0.0
 40
0.003
 41
0.003
  0
VERTEX
  8
0
 10
1.47385
 20
7.65983
 30
0.0
 40
0.003
 41
0.003
  0
VERTEX
  8
0
 10
1.47547
 20
7.6614
 30
0.0
 40
0.003
 41
0.003
  0
VERTEX
  8
0
 10
1.47706
 20
7.66303
 30
0.0
 40
0.003
 41
0.003
  0
VERTEX
  8
0
 10
1.48753
 20
7.67947
 30
0.0
 40
0.003
 41
0.003
  0
VERTEX
  8
0
 10
1.50119
 20
7.70697
 30
0.0
 40
0.003
 41
0.003
  0
VERTEX
  8
0
 10
1.50444
 20
7.71414
 30
0.0
 40
0.003
 41
0.003
  0
VERTEX
  8
0
 10
1.50689
 20
7.72011
 30
0.0
 40
0.003
 41
0.003
  0
VERTEX
  8
0
 10
1.53478
 20
7.76286
 30
0.0
 40
0.003
 41
0.003
  0
VERTEX
  8
0
 10
1.53787
 20
7.76546
 30
0.0
 40
0.003
 41
0.003
  0
VERTEX
  8
0
 10
1.54096
 20
7.76807
 30
0.0
 40
0.003
 41
0.003
  0
VERTEX
  8
0
 10
1.57156
 20
7.78108
 30
0.0
 40
0.003
 41
0.003
  0
VERTEX
  8
0
 10
1.58176
 20
7.78108
 30
0.0
 40
0.003
 41
0.003
  0
VERTEX
  8
0
 10
1.59364
 20
7.78108
 30
0.0
 40
0.003
 41
0.003
  0
VERTEX
  8
0
 10
1.62588
 20
7.76557
 30
0.0
 40
0.003
 41
0.003
  0
VERTEX
  8
0
 10
1.62935
 20
7.76247
 30
0.0
 40
0.003
 41
0.003
  0
VERTEX
  8
0
 10
1.63276
 20
7.75939
 30
0.0
 40
0.003
 41
0.003
  0
VERTEX
  8
0
 10
1.64492
 20
7.73969
 30
0.0
 40
0.003
 41
0.003
  0
VERTEX
  8
0
 10
1.65012
 20
7.71615
 30
0.0
 40
0.003
 41
0.003
  0
VERTEX
  8
0
 10
1.65012
 20
7.70828
 30
0.0
 40
0.003
 41
0.003
  0
VERTEX
  8
0
 10
1.65012
 20
7.70139
 30
0.0
 40
0.003
 41
0.003
  0
VERTEX
  8
0
 10
1.64578
 20
7.68283
 30
0.0
 40
0.003
 41
0.003
  0
VERTEX
  8
0
 10
1.64492
 20
7.68072
 30
0.0
 40
0.003
 41
0.003
  0
VERTEX
  8
0
 10
1.64404
 20
7.67865
 30
0.0
 40
0.003
 41
0.003
  0
VERTEX
  8
0
 10
1.63976
 20
7.66521
 30
0.0
 40
0.003
 41
0.003
  0
VERTEX
  8
0
 10
1.63976
 20
7.66069
 30
0.0
 40
0.003
 41
0.003
  0
VERTEX
  8
0
 10
1.63976
 20
7.65847
 30
0.0
 40
0.003
 41
0.003
  0
VERTEX
  8
0
 10
1.64214
 20
7.6525
 30
0.0
 40
0.003
 41
0.003
  0
VERTEX
  8
0
 10
1.64264
 20
7.65175
 30
0.0
 40
0.003
 41
0.003
  0
VERTEX
  8
0
 10
1.64313
 20
7.65104
 30
0.0
 40
0.003
 41
0.003
  0
VERTEX
  8
0
 10
1.64936
 20
7.64236
 30
0.0
 40
0.003
 41
0.003
  0
VERTEX
  8
0
 10
1.65012
 20
7.64133
 30
0.0
 40
0.003
 41
0.003
  0
VERTEX
  8
0
 10
1.57726
 20
7.62944
 30
0.0
 40
0.003
 41
0.003
  0
VERTEX
  8
0
 10
1.57428
 20
7.63835
 30
0.0
 40
0.003
 41
0.003
  0
VERTEX
  8
0
 10
1.58046
 20
7.64008
 30
0.0
 40
0.003
 41
0.003
  0
VERTEX
  8
0
 10
1.60568
 20
7.65082
 30
0.0
 40
0.003
 41
0.003
  0
VERTEX
  8
0
 10
1.62321
 20
7.66428
 30
0.0
 40
0.003
 41
0.003
  0
VERTEX
  8
0
 10
1.6256
 20
7.66738
 30
0.0
 40
0.003
 41
0.003
  0
VERTEX
  8
0
 10
1.62793
 20
7.67046
 30
0.0
 40
0.003
 41
0.003
  0
VERTEX
  8
0
 10
1.63976
 20
7.69993
 30
0.0
 40
0.003
 41
0.003
  0
VERTEX
  8
0
 10
1.63976
 20
7.70975
 30
0.0
 40
0.003
 41
0.003
  0
VERTEX
  8
0
 10
1.63976
 20
7.71528
 30
0.0
 40
0.003
 41
0.003
  0
VERTEX
  8
0
 10
1.63596
 20
7.73188
 30
0.0
 40
0.003
 41
0.003
  0
VERTEX
  8
0
 10
1.62728
 20
7.74556
 30
0.0
 40
0.003
 41
0.003
  0
VERTEX
  8
0
 10
1.62483
 20
7.74767
 30
0.0
 40
0.003
 41
0.003
  0
VERTEX
  8
0
 10
1.62235
 20
7.74978
 30
0.0
 40
0.003
 41
0.003
  0
VERTEX
  8
0
 10
1.5919
 20
7.76025
 30
0.0
 40
0.003
 41
0.003
  0
VERTEX
  8
0
 10
1.58176
 20
7.76025
 30
0.0
 40
0.003
 41
0.003
  0
VERTEX
  8
0
 10
1.57449
 20
7.76025
 30
0.0
 40
0.003
 41
0.003
  0
VERTEX
  8
0
 10
1.55513
 20
7.74854
 30
0.0
 40
0.003
 41
0.003
  0
VERTEX
  8
0
 10
1.55279
 20
7.74615
 30
0.0
 40
0.003
 41
0.003
  0
SEQEND
 8
0
  0
POLYLINE
  8
0
 62
     250
 66
     1
 10
0
 20
0
 30
0.0
 70
     1
 40
0.216
 41
0.216
  0
VERTEX
  8
0
 10
1.50444
 20
7.95497
 30
0.0
 40
0.003
 41
0.003
  0
VERTEX
  8
0
 10
1.5089
 20
7.95844
 30
0.0
 40
0.003
 41
0.003
  0
VERTEX
  8
0
 10
1.55007
 20
7.97581
 30
0.0
 40
0.003
 41
0.003
  0
VERTEX
  8
0
 10
1.56386
 20
7.97581
 30
0.0
 40
0.003
 41
0.003
  0
VERTEX
  8
0
 10
1.57232
 20
7.97581
 30
0.0
 40
0.003
 41
0.003
  0
VERTEX
  8
0
 10
1.59787
 20
7.97026
 30
0.0
 40
0.003
 41
0.003
  0
VERTEX
  8
0
 10
1.62147
 20
7.95731
 30
0.0
 40
0.003
 41
0.003
  0
VERTEX
  8
0
 10
1.6256
 20
7.95356
 30
0.0
 40
0.003
 41
0.003
  0
VERTEX
  8
0
 10
1.62967
 20
7.94987
 30
0.0
 40
0.003
 41
0.003
  0
VERTEX
  8
0
 10
1.64399
 20
7.92865
 30
0.0
 40
0.003
 41
0.003
  0
VERTEX
  8
0
 10
1.65012
 20
7.90608
 30
0.0
 40
0.003
 41
0.003
  0
VERTEX
  8
0
 10
1.65012
 20
7.89854
 30
0.0
 40
0.003
 41
0.003
  0
VERTEX
  8
0
 10
1.65012
 20
7.89079
 30
0.0
 40
0.003
 41
0.003
  0
VERTEX
  8
0
 10
1.64378
 20
7.86751
 30
0.0
 40
0.003
 41
0.003
  0
VERTEX
  8
0
 10
1.62901
 20
7.8464
 30
0.0
 40
0.003
 41
0.003
  0
VERTEX
  8
0
 10
1.62483
 20
7.84278
 30
0.0
 40
0.003
 41
0.003
  0
VERTEX
  8
0
 10
1.62061
 20
7.83919
 30
0.0
 40
0.003
 41
0.003
  0
VERTEX
  8
0
 10
1.59694
 20
7.82667
 30
0.0
 40
0.003
 41
0.003
  0
VERTEX
  8
0
 10
1.5721
 20
7.82124
 30
0.0
 40
0.003
 41
0.003
  0
VERTEX
  8
0
 10
1.56386
 20
7.82124
 30
0.0
 40
0.003
 41
0.003
  0
VERTEX
  8
0
 10
1.54899
 20
7.82124
 30
0.0
 40
0.003
 41
0.003
  0
VERTEX
  8
0
 10
1.5089
 20
7.83919
 30
0.0
 40
0.003
 41
0.003
  0
VERTEX
  8
0
 10
1.50444
 20
7.84278
 30
0.0
 40
0.003
 41
0.003
  0
VERTEX
  8
0
 10
1.49994
 20
7.8464
 30
0.0
 40
0.003
 41
0.003
  0
VERTEX
  8
0
 10
1.48438
 20
7.86751
 30
0.0
 40
0.003
 41
0.003
  0
VERTEX
  8
0
 10
1.47771
 20
7.89079
 30
0.0
 40
0.003
 41
0.003
  0
VERTEX
  8
0
 10
1.47771
 20
7.89854
 30
0.0
 40
0.003
 41
0.003
  0
VERTEX
  8
0
 10
1.47771
 20
7.90657
 30
0.0
 40
0.003
 41
0.003
  0
VERTEX
  8
0
 10
1.48438
 20
7.9305
 30
0.0
 40
0.003
 41
0.003
  0
VERTEX
  8
0
 10
1.49994
 20
7.9515
 30
0.0
 40
0.003
 41
0.003
  0
VERTEX
  8
0
 10
1.50444
 20
7.95497
 30
0.0
 40
0.003
 41
0.003
  0
SEQEND
 8
0
  0
POLYLINE
  8
0
 62
     250
 66
     1
 10
0
 20
0
 30
0.0
 70
     1
 40
0.216
 41
0.216
  0
VERTEX
  8
0
 10
1.50667
 20
7.86139
 30
0.0
 40
0.003
 41
0.003
  0
VERTEX
  8
0
 10
1.50999
 20
7.85867
 30
0.0
 40
0.003
 41
0.003
  0
VERTEX
  8
0
 10
1.53136
 20
7.84913
 30
0.0
 40
0.003
 41
0.003
  0
VERTEX
  8
0
 10
1.55686
 20
7.845
 30
0.0
 40
0.003
 41
0.003
  0
VERTEX
  8
0
 10
1.56538
 20
7.845
 30
0.0
 40
0.003
 41
0.003
  0
VERTEX
  8
0
 10
1.57379
 20
7.845
 30
0.0
 40
0.003
 41
0.003
  0
VERTEX
  8
0
 10
1.59901
 20
7.8489
 30
0.0
 40
0.003
 41
0.003
  0
VERTEX
  8
0
 10
1.61951
 20
7.85801
 30
0.0
 40
0.003
 41
0.003
  0
VERTEX
  8
0
 10
1.62261
 20
7.86063
 30
0.0
 40
0.003
 41
0.003
  0
VERTEX
  8
0
 10
1.62571
 20
7.86322
 30
0.0
 40
0.003
 41
0.003
  0
VERTEX
  8
0
 10
1.64122
 20
7.88976
 30
0.0
 40
0.003
 41
0.003
  0
VERTEX
  8
0
 10
1.64122
 20
7.89854
 30
0.0
 40
0.003
 41
0.003
  0
VERTEX
  8
0
 10
1.64122
 20
7.90419
 30
0.0
 40
0.003
 41
0.003
  0
VERTEX
  8
0
 10
1.63618
 20
7.92101
 30
0.0
 40
0.003
 41
0.003
  0
VERTEX
  8
0
 10
1.62446
 20
7.9356
 30
0.0
 40
0.003
 41
0.003
  0
VERTEX
  8
0
 10
1.62115
 20
7.93793
 30
0.0
 40
0.003
 41
0.003
  0
VERTEX
  8
0
 10
1.61778
 20
7.94032
 30
0.0
 40
0.003
 41
0.003
  0
VERTEX
  8
0
 10
1.59717
 20
7.94851
 30
0.0
 40
0.003
 41
0.003
  0
VERTEX
  8
0
 10
1.57329
 20
7.95199
 30
0.0
 40
0.003
 41
0.003
  0
VERTEX
  8
0
 10
1.56538
 20
7.95199
 30
0.0
 40
0.003
 41
0.003
  0
VERTEX
  8
0
 10
1.55686
 20
7.95199
 30
0.0
 40
0.003
 41
0.003
  0
VERTEX
  8
0
 10
1.53136
 20
7.94814
 30
0.0
 40
0.003
 41
0.003
  0
VERTEX
  8
0
 10
1.50999
 20
7.93901
 30
0.0
 40
0.003
 41
0.003
  0
VERTEX
  8
0
 10
1.50667
 20
7.93642
 30
0.0
 40
0.003
 41
0.003
  0
VERTEX
  8
0
 10
1.50331
 20
7.93381
 30
0.0
 40
0.003
 41
0.003
  0
VERTEX
  8
0
 10
1.48665
 20
7.90739
 30
0.0
 40
0.003
 41
0.003
  0
VERTEX
  8
0
 10
1.48665
 20
7.89854
 30
0.0
 40
0.003
 41
0.003
  0
VERTEX
  8
0
 10
1.48665
 20
7.88926
 30
0.0
 40
0.003
 41
0.003
  0
VERTEX
  8
0
 10
1.50331
 20
7.86415
 30
0.0
 40
0.003
 41
0.003
  0
VERTEX
  8
0
 10
1.50667
 20
7.86139
 30
0.0
 40
0.003
 41
0.003
  0
SEQEND
 8
0
  0
POLYLINE
  8
0
 62
     250
 66
     1
 10
0
 20
0
 30
0.0
 70
     1
 40
0.216
 41
0.216
  0
VERTEX
  8
0
 10
1.39296
 20
8.03233
 30
0.0
 40
0.003
 41
0.003
  0
VERTEX
  8
0
 10
1.39296
 20
8.04867
 30
0.0
 40
0.003
 41
0.003
  0
VERTEX
  8
0
 10
1.39296
 20
8.05501
 30
0.0
 40
0.003
 41
0.003
  0
VERTEX
  8
0
 10
1.39046
 20
8.07194
 30
0.0
 40
0.003
 41
0.003
  0
VERTEX
  8
0
 10
1.38997
 20
8.07389
 30
0.0
 40
0.003
 41
0.003
  0
VERTEX
  8
0
 10
1.38949
 20
8.0759
 30
0.0
 40
0.003
 41
0.003
  0
VERTEX
  8
0
 10
1.382
 20
8.09451
 30
0.0
 40
0.003
 41
0.003
  0
VERTEX
  8
0
 10
1.38102
 20
8.09625
 30
0.0
 40
0.003
 41
0.003
  0
VERTEX
  8
0
 10
1.38102
 20
8.09924
 30
0.0
 40
0.003
 41
0.003
  0
VERTEX
  8
0
 10
1.62636
 20
8.09924
 30
0.0
 40
0.003
 41
0.003
  0
VERTEX
  8
0
 10
1.62858
 20
8.09924
 30
0.0
 40
0.003
 41
0.003
  0
VERTEX
  8
0
 10
1.63471
 20
8.10232
 30
0.0
 40
0.003
 41
0.003
  0
VERTEX
  8
0
 10
1.63525
 20
8.10292
 30
0.0
 40
0.003
 41
0.003
  0
VERTEX
  8
0
 10
1.63574
 20
8.10357
 30
0.0
 40
0.003
 41
0.003
  0
VERTEX
  8
0
 10
1.63824
 20
8.1104
 30
0.0
 40
0.003
 41
0.003
  0
VERTEX
  8
0
 10
1.63824
 20
8.11263
 30
0.0
 40
0.003
 41
0.003
  0
VERTEX
  8
0
 10
1.63824
 20
8.14681
 30
0.0
 40
0.003
 41
0.003
  0
VERTEX
  8
0
 10
1.64714
 20
8.14681
 30
0.0
 40
0.003
 41
0.003
  0
VERTEX
  8
0
 10
1.64714
 20
8.03088
 30
0.0
 40
0.003
 41
0.003
  0
VERTEX
  8
0
 10
1.63824
 20
8.03088
 30
0.0
 40
0.003
 41
0.003
  0
VERTEX
  8
0
 10
1.63824
 20
8.06506
 30
0.0
 40
0.003
 41
0.003
  0
VERTEX
  8
0
 10
1.63824
 20
8.06765
 30
0.0
 40
0.003
 41
0.003
  0
VERTEX
  8
0
 10
1.63574
 20
8.07497
 30
0.0
 40
0.003
 41
0.003
  0
VERTEX
  8
0
 10
1.63525
 20
8.07547
 30
0.0
 40
0.003
 41
0.003
  0
VERTEX
  8
0
 10
1.63471
 20
8.07596
 30
0.0
 40
0.003
 41
0.003
  0
VERTEX
  8
0
 10
1.62842
 20
8.0784
 30
0.0
 40
0.003
 41
0.003
  0
VERTEX
  8
0
 10
1.62636
 20
8.0784
 30
0.0
 40
0.003
 41
0.003
  0
VERTEX
  8
0
 10
1.41374
 20
8.0784
 30
0.0
 40
0.003
 41
0.003
  0
VERTEX
  8
0
 10
1.41146
 20
8.0784
 30
0.0
 40
0.003
 41
0.003
  0
VERTEX
  8
0
 10
1.40528
 20
8.07596
 30
0.0
 40
0.003
 41
0.003
  0
VERTEX
  8
0
 10
1.40479
 20
8.07547
 30
0.0
 40
0.003
 41
0.003
  0
VERTEX
  8
0
 10
1.40429
 20
8.07497
 30
0.0
 40
0.003
 41
0.003
  0
VERTEX
  8
0
 10
1.40192
 20
8.06754
 30
0.0
 40
0.003
 41
0.003
  0
VERTEX
  8
0
 10
1.40192
 20
8.06506
 30
0.0
 40
0.003
 41
0.003
  0
VERTEX
  8
0
 10
1.40192
 20
8.03233
 30
0.0
 40
0.003
 41
0.003
  0
VERTEX
  8
0
 10
1.39296
 20
8.03233
 30
0.0
 40
0.003
 41
0.003
  0
SEQEND
 8
0
  0
POLYLINE
  8
0
 62
     250
 66
     1
 10
0
 20
0
 30
0.0
 70
     1
 40
0.216
 41
0.216
  0
VERTEX
  8
0
 10
1.64339
 20
8.28722
 30
0.0
 40
0.003
 41
0.003
  0
VERTEX
  8
0
 10
1.64426
 20
8.28515
 30
0.0
 40
0.003
 41
0.003
  0
VERTEX
  8
0
 10
1.6486
 20
8.26389
 30
0.0
 40
0.003
 41
0.003
  0
VERTEX
  8
0
 10
1.6486
 20
8.25678
 30
0.0
 40
0.003
 41
0.003
  0
VERTEX
  8
0
 10
1.6486
 20
8.24642
 30
0.0
 40
0.003
 41
0.003
  0
VERTEX
  8
0
 10
1.63807
 20
8.21767
 30
0.0
 40
0.003
 41
0.003
  0
VERTEX
  8
0
 10
1.63601
 20
8.21517
 30
0.0
 40
0.003
 41
0.003
  0
VERTEX
  8
0
 10
1.6339
 20
8.21272
 30
0.0
 40
0.003
 41
0.003
  0
VERTEX
  8
0
 10
1.61372
 20
8.20025
 30
0.0
 40
0.003
 41
0.003
  0
VERTEX
  8
0
 10
1.60699
 20
8.20025
 30
0.0
 40
0.003
 41
0.003
  0
VERTEX
  8
0
 10
1.60086
 20
8.20025
 30
0.0
 40
0.003
 41
0.003
  0
VERTEX
  8
0
 10
1.58262
 20
8.20606
 30
0.0
 40
0.003
 41
0.003
  0
VERTEX
  8
0
 10
1.56603
 20
8.21951
 30
0.0
 40
0.003
 41
0.003
  0
VERTEX
  8
0
 10
1.56321
 20
8.22336
 30
0.0
 40
0.003
 41
0.003
  0
VERTEX
  8
0
 10
1.56033
 20
8.22721
 30
0.0
 40
0.003
 41
0.003
  0
VERTEX
  8
0
 10
1.54844
 20
8.25776
 30
0.0
 40
0.003
 41
0.003
  0
VERTEX
  8
0
 10
1.53982
 20
8.30333
 30
0.0
 40
0.003
 41
0.003
  0
VERTEX
  8
0
 10
1.53862
 20
8.31472
 30
0.0
 40
0.003
 41
0.003
  0
VERTEX
  8
0
 10
1.52083
 20
8.31472
 30
0.0
 40
0.003
 41
0.003
  0
VERTEX
  8
0
 10
1.51465
 20
8.31472
 30
0.0
 40
0.003
 41
0.003
  0
VERTEX
  8
0
 10
1.49783
 20
8.30925
 30
0.0
 40
0.003
 41
0.003
  0
VERTEX
  8
0
 10
1.49625
 20
8.30811
 30
0.0
 40
0.003
 41
0.003
  0
VERTEX
  8
0
 10
1.49462
 20
8.30701
 30
0.0
 40
0.003
 41
0.003
  0
VERTEX
  8
0
 10
1.48665
 20
8.28494
 30
0.0
 40
0.003
 41
0.003
  0
VERTEX
  8
0
 10
1.48665
 20
8.27756
 30
0.0
 40
0.003
 41
0.003
  0
VERTEX
  8
0
 10
1.48665
 20
8.26867
 30
0.0
 40
0.003
 41
0.003
  0
VERTEX
  8
0
 10
1.49338
 20
8.24365
 30
0.0
 40
0.003
 41
0.003
  0
VERTEX
  8
0
 10
1.49474
 20
8.24192
 30
0.0
 40
0.003
 41
0.003
  0
VERTEX
  8
0
 10
1.4961
 20
8.24018
 30
0.0
 40
0.003
 41
0.003
  0
VERTEX
  8
0
 10
1.51036
 20
8.23394
 30
0.0
 40
0.003
 41
0.003
  0
VERTEX
  8
0
 10
1.51188
 20
8.23443
 30
0.0
 40
0.003
 41
0.003
  0
VERTEX
  8
0
 10
1.51286
 20
8.23497
 30
0.0
 40
0.003
 41
0.003
  0
VERTEX
  8
0
 10
1.52274
 20
8.23497
 30
0.0
 40
0.003
 41
0.003
  0
VERTEX
  8
0
 10
1.52371
 20
8.23443
 30
0.0
 40
0.003
 41
0.003
  0
VERTEX
  8
0
 10
1.52468
 20
8.23394
 30
0.0
 40
0.003
 41
0.003
  0
VERTEX
  8
0
 10
1.52968
 20
8.22547
 30
0.0
 40
0.003
 41
0.003
  0
VERTEX
  8
0
 10
1.52968
 20
8.2226
 30
0.0
 40
0.003
 41
0.003
  0
VERTEX
  8
0
 10
1.52968
 20
8.22021
 30
0.0
 40
0.003
 41
0.003
  0
VERTEX
  8
0
 10
1.52664
 20
8.2136
 30
0.0
 40
0.003
 41
0.003
  0
VERTEX
  8
0
 10
1.52604
 20
8.21294
 30
0.0
 40
0.003
 41
0.003
  0
VERTEX
  8
0
 10
1.52539
 20
8.21235
 30
0.0
 40
0.003
 41
0.003
  0
VERTEX
  8
0
 10
1.51747
 20
8.20921
 30
0.0
 40
0.003
 41
0.003
  0
VERTEX
  8
0
 10
1.51486
 20
8.20921
 30
0.0
 40
0.003
 41
0.003
  0
VERTEX
  8
0
 10
1.50851
 20
8.20921
 30
0.0
 40
0.003
 41
0.003
  0
VERTEX
  8
0
 10
1.49149
 20
8.22537
 30
0.0
 40
0.003
 41
0.003
  0
VERTEX
  8
0
 10
1.48953
 20
8.22857
 30
0.0
 40
0.003
 41
0.003
  0
VERTEX
  8
0
 10
1.48753
 20
8.23182
 30
0.0
 40
0.003
 41
0.003
  0
VERTEX
  8
0
 10
1.47771
 20
8.26503
 30
0.0
 40
0.003
 41
0.003
  0
VERTEX
  8
0
 10
1.47771
 20
8.2761
 30
0.0
 40
0.003
 41
0.003
  0
VERTEX
  8
0
 10
1.47771
 20
8.28728
 30
0.0
 40
0.003
 41
0.003
  0
VERTEX
  8
0
 10
1.48699
 20
8.31825
 30
0.0
 40
0.003
 41
0.003
  0
VERTEX
  8
0
 10
1.48882
 20
8.32069
 30
0.0
 40
0.003
 41
0.003
  0
VERTEX
  8
0
 10
1.49067
 20
8.32319
 30
0.0
 40
0.003
 41
0.003
  0
VERTEX
  8
0
 10
1.51329
 20
8.33556
 30
0.0
 40
0.003
 41
0.003
  0
VERTEX
  8
0
 10
1.52083
 20
8.33556
 30
0.0
 40
0.003
 41
0.003
  0
VERTEX
  8
0
 10
1.61887
 20
8.33556
 30
0.0
 40
0.003
 41
0.003
  0
VERTEX
  8
0
 10
1.6224
 20
8.33556
 30
0.0
 40
0.003
 41
0.003
  0
VERTEX
  8
0
 10
1.63265
 20
8.33746
 30
0.0
 40
0.003
 41
0.003
  0
VERTEX
  8
0
 10
1.63303
 20
8.33778
 30
0.0
 40
0.003
 41
0.003
  0
VERTEX
  8
0
 10
1.6334
 20
8.33817
 30
0.0
 40
0.003
 41
0.003
  0
VERTEX
  8
0
 10
1.63525
 20
8.34403
 30
0.0
 40
0.003
 41
0.003
  0
VERTEX
  8
0
 10
1.63525
 20
8.34597
 30
0.0
 40
0.003
 41
0.003
  0
VERTEX
  8
0
 10
1.63525
 20
8.34858
 30
0.0
 40
0.003
 41
0.003
  0
VERTEX
  8
0
 10
1.62967
 20
8.35585
 30
0.0
 40
0.003
 41
0.003
  0
VERTEX
  8
0
 10
1.62858
 20
8.35633
 30
0.0
 40
0.003
 41
0.003
  0
VERTEX
  8
0
 10
1.62744
 20
8.35688
 30
0.0
 40
0.003
 41
0.003
  0
VERTEX
  8
0
 10
1.61431
 20
8.35932
 30
0.0
 40
0.003
 41
0.003
  0
VERTEX
  8
0
 10
1.60997
 20
8.35932
 30
0.0
 40
0.003
 41
0.003
  0
VERTEX
  8
0
 10
1.60997
 20
8.36675
 30
0.0
 40
0.003
 41
0.003
  0
VERTEX
  8
0
 10
1.61719
 20
8.36675
 30
0.0
 40
0.003
 41
0.003
  0
VERTEX
  8
0
 10
1.63758
 20
8.36057
 30
0.0
 40
0.003
 41
0.003
  0
VERTEX
  8
0
 10
1.639
 20
8.35932
 30
0.0
 40
0.003
 41
0.003
  0
VERTEX
  8
0
 10
1.64035
 20
8.35812
 30
0.0
 40
0.003
 41
0.003
  0
VERTEX
  8
0
 10
1.64714
 20
8.34462
 30
0.0
 40
0.003
 41
0.003
  0
VERTEX
  8
0
 10
1.64714
 20
8.34006
 30
0.0
 40
0.003
 41
0.003
  0
VERTEX
  8
0
 10
1.64714
 20
8.33599
 30
0.0
 40
0.003
 41
0.003
  0
VERTEX
  8
0
 10
1.64333
 20
8.32471
 30
0.0
 40
0.003
 41
0.003
  0
VERTEX
  8
0
 10
1.64264
 20
8.32368
 30
0.0
 40
0.003
 41
0.003
  0
VERTEX
  8
0
 10
1.64187
 20
8.32269
 30
0.0
 40
0.003
 41
0.003
  0
VERTEX
  8
0
 10
1.6295
 20
8.31526
 30
0.0
 40
0.003
 41
0.003
  0
VERTEX
  8
0
 10
1.62782
 20
8.31472
 30
0.0
 40
0.003
 41
0.003
  0
VERTEX
  8
0
 10
1.6295
 20
8.31228
 30
0.0
 40
0.003
 41
0.003
  0
VERTEX
  8
0
 10
1.64253
 20
8.28933
 30
0.0
 40
0.003
 41
0.003
  0
VERTEX
  8
0
 10
1.64339
 20
8.28722
 30
0.0
 40
0.003
 41
0.003
  0
SEQEND
 8
0
  0
POLYLINE
  8
0
 62
     250
 66
     1
 10
0
 20
0
 30
0.0
 70
     1
 40
0.216
 41
0.216
  0
VERTEX
  8
0
 10
1.5676
 20
8.2449
 30
0.0
 40
0.003
 41
0.003
  0
VERTEX
  8
0
 10
1.56993
 20
8.24169
 30
0.0
 40
0.003
 41
0.003
  0
VERTEX
  8
0
 10
1.5944
 20
8.22558
 30
0.0
 40
0.003
 41
0.003
  0
VERTEX
  8
0
 10
1.6026
 20
8.22558
 30
0.0
 40
0.003
 41
0.003
  0
VERTEX
  8
0
 10
1.60867
 20
8.22558
 30
0.0
 40
0.003
 41
0.003
  0
VERTEX
  8
0
 10
1.62517
 20
8.23242
 30
0.0
 40
0.003
 41
0.003
  0
VERTEX
  8
0
 10
1.62706
 20
8.23378
 30
0.0
 40
0.003
 41
0.003
  0
VERTEX
  8
0
 10
1.6289
 20
8.23514
 30
0.0
 40
0.003
 41
0.003
  0
VERTEX
  8
0
 10
1.63824
 20
8.25364
 30
0.0
 40
0.003
 41
0.003
  0
VERTEX
  8
0
 10
1.63824
 20
8.25976
 30
0.0
 40
0.003
 41
0.003
  0
VERTEX
  8
0
 10
1.63824
 20
8.2665
 30
0.0
 40
0.003
 41
0.003
  0
VERTEX
  8
0
 10
1.6339
 20
8.28429
 30
0.0
 40
0.003
 41
0.003
  0
VERTEX
  8
0
 10
1.63303
 20
8.28651
 30
0.0
 40
0.003
 41
0.003
  0
VERTEX
  8
0
 10
1.63211
 20
8.28874
 30
0.0
 40
0.003
 41
0.003
  0
VERTEX
  8
0
 10
1.61914
 20
8.31228
 30
0.0
 40
0.003
 41
0.003
  0
VERTEX
  8
0
 10
1.6174
 20
8.31472
 30
0.0
 40
0.003
 41
0.003
  0
VERTEX
  8
0
 10
1.54753
 20
8.31472
 30
0.0
 40
0.003
 41
0.003
  0
VERTEX
  8
0
 10
1.5485
 20
8.30632
 30
0.0
 40
0.003
 41
0.003
  0
VERTEX
  8
0
 10
1.5555
 20
8.27208
 30
0.0
 40
0.003
 41
0.003
  0
VERTEX
  8
0
 10
1.56521
 20
8.24815
 30
0.0
 40
0.003
 41
0.003
  0
VERTEX
  8
0
 10
1.5676
 20
8.2449
 30
0.0
 40
0.003
 41
0.003
  0
SEQEND
 8
0
  0
POLYLINE
  8
0
 62
     250
 66
     1
 10
0
 20
0
 30
0.0
 70
     1
 40
0.216
 41
0.216
  0
VERTEX
  8
0
 10
1.47325
 20
8.45003
 30
0.0
 40
0.003
 41
0.003
  0
VERTEX
  8
0
 10
1.52669
 20
8.45003
 30
0.0
 40
0.003
 41
0.003
  0
VERTEX
  8
0
 10
1.52274
 20
8.45253
 30
0.0
 40
0.003
 41
0.003
  0
VERTEX
  8
0
 10
1.4924
 20
8.47917
 30
0.0
 40
0.003
 41
0.003
  0
VERTEX
  8
0
 10
1.49029
 20
8.48199
 30
0.0
 40
0.003
 41
0.003
  0
VERTEX
  8
0
 10
1.48817
 20
8.48486
 30
0.0
 40
0.003
 41
0.003
  0
VERTEX
  8
0
 10
1.47771
 20
8.50896
 30
0.0
 40
0.003
 41
0.003
  0
VERTEX
  8
0
 10
1.47771
 20
8.51693
 30
0.0
 40
0.003
 41
0.003
  0
VERTEX
  8
0
 10
1.47771
 20
8.52274
 30
0.0
 40
0.003
 41
0.003
  0
VERTEX
  8
0
 10
1.48318
 20
8.53863
 30
0.0
 40
0.003
 41
0.003
  0
VERTEX
  8
0
 10
1.48432
 20
8.53999
 30
0.0
 40
0.003
 41
0.003
  0
VERTEX
  8
0
 10
1.4854
 20
8.54135
 30
0.0
 40
0.003
 41
0.003
  0
VERTEX
  8
0
 10
1.49631
 20
8.54818
 30
0.0
 40
0.003
 41
0.003
  0
VERTEX
  8
0
 10
1.49994
 20
8.54818
 30
0.0
 40
0.003
 41
0.003
  0
VERTEX
  8
0
 10
1.50293
 20
8.54818
 30
0.0
 40
0.003
 41
0.003
  0
VERTEX
  8
0
 10
1.51113
 20
8.54508
 30
0.0
 40
0.003
 41
0.003
  0
VERTEX
  8
0
 10
1.51188
 20
8.54443
 30
0.0
 40
0.003
 41
0.003
  0
VERTEX
  8
0
 10
1.51258
 20
8.54383
 30
0.0
 40
0.003
 41
0.003
  0
VERTEX
  8
0
 10
1.51633
 20
8.53592
 30
0.0
 40
0.003
 41
0.003
  0
VERTEX
  8
0
 10
1.51633
 20
8.53326
 30
0.0
 40
0.003
 41
0.003
  0
VERTEX
  8
0
 10
1.51633
 20
8.53049
 30
0.0
 40
0.003
 41
0.003
  0
VERTEX
  8
0
 10
1.51258
 20
8.52279
 30
0.0
 40
0.003
 41
0.003
  0
VERTEX
  8
0
 10
1.51188
 20
8.52214
 30
0.0
 40
0.003
 41
0.003
  0
VERTEX
  8
0
 10
1.51113
 20
8.52154
 30
0.0
 40
0.003
 41
0.003
  0
VERTEX
  8
0
 10
1.50119
 20
8.51964
 30
0.0
 40
0.003
 41
0.003
  0
VERTEX
  8
0
 10
1.49994
 20
8.51986
 30
0.0
 40
0.003
 41
0.003
  0
VERTEX
  8
0
 10
1.49804
 20
8.51986
 30
0.0
 40
0.003
 41
0.003
  0
VERTEX
  8
0
 10
1.493
 20
8.51867
 30
0.0
 40
0.003
 41
0.003
  0
VERTEX
  8
0
 10
1.49251
 20
8.51839
 30
0.0
 40
0.003
 41
0.003
  0
VERTEX
  8
0
 10
1.49203
 20
8.51818
 30
0.0
 40
0.003
 41
0.003
  0
VERTEX
  8
0
 10
1.48953
 20
8.51167
 30
0.0
 40
0.003
 41
0.003
  0
VERTEX
  8
0
 10
1.48953
 20
8.50944
 30
0.0
 40
0.003
 41
0.003
  0
VERTEX
  8
0
 10
1.48953
 20
8.50222
 30
0.0
 40
0.003
 41
0.003
  0
VERTEX
  8
0
 10
1.50196
 20
8.48335
 30
0.0
 40
0.003
 41
0.003
  0
VERTEX
  8
0
 10
1.50444
 20
8.48047
 30
0.0
 40
0.003
 41
0.003
  0
VERTEX
  8
0
 10
1.50689
 20
8.47765
 30
0.0
 40
0.003
 41
0.003
  0
VERTEX
  8
0
 10
1.54156
 20
8.45231
 30
0.0
 40
0.003
 41
0.003
  0
VERTEX
  8
0
 10
1.54606
 20
8.45003
 30
0.0
 40
0.003
 41
0.003
  0
VERTEX
  8
0
 10
1.62636
 20
8.45003
 30
0.0
 40
0.003
 41
0.003
  0
VERTEX
  8
0
 10
1.62858
 20
8.45003
 30
0.0
 40
0.003
 41
0.003
  0
VERTEX
  8
0
 10
1.63471
 20
8.45313
 30
0.0
 40
0.003
 41
0.003
  0
VERTEX
  8
0
 10
1.63525
 20
8.45372
 30
0.0
 40
0.003
 41
0.003
  0
VERTEX
  8
0
 10
1.63574
 20
8.45438
 30
0.0
 40
0.003
 41
0.003
  0
VERTEX
  8
0
 10
1.63824
 20
8.46121
 30
0.0
 40
0.003
 41
0.003
  0
VERTEX
  8
0
 10
1.63824
 20
8.46343
 30
0.0
 40
0.003
 41
0.003
  0
VERTEX
  8
0
 10
1.63824
 20
8.4961
 30
0.0
 40
0.003
 41
0.003
  0
VERTEX
  8
0
 10
1.64714
 20
8.4961
 30
0.0
 40
0.003
 41
0.003
  0
VERTEX
  8
0
 10
1.64714
 20
8.38613
 30
0.0
 40
0.003
 41
0.003
  0
VERTEX
  8
0
 10
1.63824
 20
8.38613
 30
0.0
 40
0.003
 41
0.003
  0
VERTEX
  8
0
 10
1.63824
 20
8.41585
 30
0.0
 40
0.003
 41
0.003
  0
VERTEX
  8
0
 10
1.63824
 20
8.41846
 30
0.0
 40
0.003
 41
0.003
  0
VERTEX
  8
0
 10
1.63574
 20
8.42578
 30
0.0
 40
0.003
 41
0.003
  0
VERTEX
  8
0
 10
1.63525
 20
8.42626
 30
0.0
 40
0.003
 41
0.003
  0
VERTEX
  8
0
 10
1.63471
 20
8.42676
 30
0.0
 40
0.003
 41
0.003
  0
VERTEX
  8
0
 10
1.62842
 20
8.42925
 30
0.0
 40
0.003
 41
0.003
  0
VERTEX
  8
0
 10
1.62636
 20
8.42925
 30
0.0
 40
0.003
 41
0.003
  0
VERTEX
  8
0
 10
1.50293
 20
8.42925
 30
0.0
 40
0.003
 41
0.003
  0
VERTEX
  8
0
 10
1.50049
 20
8.42925
 30
0.0
 40
0.003
 41
0.003
  0
VERTEX
  8
0
 10
1.49387
 20
8.42676
 30
0.0
 40
0.003
 41
0.003
  0
VERTEX
  8
0
 10
1.49328
 20
8.42626
 30
0.0
 40
0.003
 41
0.003
  0
VERTEX
  8
0
 10
1.49263
 20
8.42578
 30
0.0
 40
0.003
 41
0.003
  0
VERTEX
  8
0
 10
1.48953
 20
8.41835
 30
0.0
 40
0.003
 41
0.003
  0
VERTEX
  8
0
 10
1.48953
 20
8.41585
 30
0.0
 40
0.003
 41
0.003
  0
VERTEX
  8
0
 10
1.48953
 20
8.38764
 30
0.0
 40
0.003
 41
0.003
  0
VERTEX
  8
0
 10
1.48068
 20
8.38764
 30
0.0
 40
0.003
 41
0.003
  0
VERTEX
  8
0
 10
1.48068
 20
8.39947
 30
0.0
 40
0.003
 41
0.003
  0
VERTEX
  8
0
 10
1.48068
 20
8.40565
 30
0.0
 40
0.003
 41
0.003
  0
VERTEX
  8
0
 10
1.47879
 20
8.42171
 30
0.0
 40
0.003
 41
0.003
  0
VERTEX
  8
0
 10
1.47846
 20
8.42404
 30
0.0
 40
0.003
 41
0.003
  0
VERTEX
  8
0
 10
1.47808
 20
8.42643
 30
0.0
 40
0.003
 41
0.003
  0
VERTEX
  8
0
 10
1.47374
 20
8.44433
 30
0.0
 40
0.003
 41
0.003
  0
VERTEX
  8
0
 10
1.47325
 20
8.44558
 30
0.0
 40
0.003
 41
0.003
  0
VERTEX
  8
0
 10
1.47325
 20
8.45003
 30
0.0
 40
0.003
 41
0.003
  0
SEQEND
 8
0
  0
POLYLINE
  8
0
 62
     250
 66
     1
 10
0
 20
0
 30
0.0
 70
     1
 40
0.216
 41
0.216
  0
VERTEX
  8
0
 10
1.78244
 20
7.55365
 30
0.0
 40
0.003
 41
0.003
  0
VERTEX
  8
0
 10
1.78244
 20
7.54921
 30
0.0
 40
0.003
 41
0.003
  0
VERTEX
  8
0
 10
1.77349
 20
7.54921
 30
0.0
 40
0.003
 41
0.003
  0
VERTEX
  8
0
 10
1.77349
 20
7.60271
 30
0.0
 40
0.003
 41
0.003
  0
VERTEX
  8
0
 10
1.78244
 20
7.60271
 30
0.0
 40
0.003
 41
0.003
  0
VERTEX
  8
0
 10
1.78244
 20
7.59674
 30
0.0
 40
0.003
 41
0.003
  0
VERTEX
  8
0
 10
1.78244
 20
7.59397
 30
0.0
 40
0.003
 41
0.003
  0
VERTEX
  8
0
 10
1.78614
 20
7.58649
 30
0.0
 40
0.003
 41
0.003
  0
VERTEX
  8
0
 10
1.78689
 20
7.58561
 30
0.0
 40
0.003
 41
0.003
  0
VERTEX
  8
0
 10
1.7876
 20
7.58475
 30
0.0
 40
0.003
 41
0.003
  0
VERTEX
  8
0
 10
1.80122
 20
7.5779
 30
0.0
 40
0.003
 41
0.003
  0
VERTEX
  8
0
 10
1.80322
 20
7.57742
 30
0.0
 40
0.003
 41
0.003
  0
VERTEX
  8
0
 10
2.02772
 20
7.51644
 30
0.0
 40
0.003
 41
0.003
  0
VERTEX
  8
0
 10
2.02772
 20
7.5076
 30
0.0
 40
0.003
 41
0.003
  0
VERTEX
  8
0
 10
1.80322
 20
7.45253
 30
0.0
 40
0.003
 41
0.003
  0
VERTEX
  8
0
 10
1.80149
 20
7.45231
 30
0.0
 40
0.003
 41
0.003
  0
VERTEX
  8
0
 10
1.78847
 20
7.44797
 30
0.0
 40
0.003
 41
0.003
  0
VERTEX
  8
0
 10
1.78765
 20
7.44732
 30
0.0
 40
0.003
 41
0.003
  0
VERTEX
  8
0
 10
1.78678
 20
7.44672
 30
0.0
 40
0.003
 41
0.003
  0
VERTEX
  8
0
 10
1.78244
 20
7.43892
 30
0.0
 40
0.003
 41
0.003
  0
VERTEX
  8
0
 10
1.78244
 20
7.43625
 30
0.0
 40
0.003
 41
0.003
  0
VERTEX
  8
0
 10
1.78244
 20
7.42876
 30
0.0
 40
0.003
 41
0.003
  0
VERTEX
  8
0
 10
1.77349
 20
7.42876
 30
0.0
 40
0.003
 41
0.003
  0
VERTEX
  8
0
 10
1.77349
 20
7.49268
 30
0.0
 40
0.003
 41
0.003
  0
VERTEX
  8
0
 10
1.78244
 20
7.49268
 30
0.0
 40
0.003
 41
0.003
  0
VERTEX
  8
0
 10
1.78244
 20
7.48671
 30
0.0
 40
0.003
 41
0.003
  0
VERTEX
  8
0
 10
1.78244
 20
7.48432
 30
0.0
 40
0.003
 41
0.003
  0
VERTEX
  8
0
 10
1.78614
 20
7.47743
 30
0.0
 40
0.003
 41
0.003
  0
VERTEX
  8
0
 10
1.78689
 20
7.47706
 30
0.0
 40
0.003
 41
0.003
  0
VERTEX
  8
0
 10
1.7876
 20
7.47672
 30
0.0
 40
0.003
 41
0.003
  0
VERTEX
  8
0
 10
1.79747
 20
7.47607
 30
0.0
 40
0.003
 41
0.003
  0
VERTEX
  8
0
 10
1.79872
 20
7.47629
 30
0.0
 40
0.003
 41
0.003
  0
VERTEX
  8
0
 10
1.97271
 20
7.51796
 30
0.0
 40
0.003
 41
0.003
  0
VERTEX
  8
0
 10
1.97271
 20
7.52089
 30
0.0
 40
0.003
 41
0.003
  0
VERTEX
  8
0
 10
1.80322
 20
7.56554
 30
0.0
 40
0.003
 41
0.003
  0
VERTEX
  8
0
 10
1.80149
 20
7.56608
 30
0.0
 40
0.003
 41
0.003
  0
VERTEX
  8
0
 10
1.78847
 20
7.56608
 30
0.0
 40
0.003
 41
0.003
  0
VERTEX
  8
0
 10
1.78765
 20
7.56554
 30
0.0
 40
0.003
 41
0.003
  0
VERTEX
  8
0
 10
1.78678
 20
7.56506
 30
0.0
 40
0.003
 41
0.003
  0
VERTEX
  8
0
 10
1.78244
 20
7.55653
 30
0.0
 40
0.003
 41
0.003
  0
VERTEX
  8
0
 10
1.78244
 20
7.55365
 30
0.0
 40
0.003
 41
0.003
  0
SEQEND
 8
0
  0
POLYLINE
  8
0
 62
     250
 66
     1
 10
0
 20
0
 30
0.0
 70
     1
 40
0.216
 41
0.216
  0
VERTEX
  8
0
 10
1.88499
 20
7.76471
 30
0.0
 40
0.003
 41
0.003
  0
VERTEX
  8
0
 10
1.88943
 20
7.76818
 30
0.0
 40
0.003
 41
0.003
  0
VERTEX
  8
0
 10
1.93067
 20
7.78554
 30
0.0
 40
0.003
 41
0.003
  0
VERTEX
  8
0
 10
1.94444
 20
7.78554
 30
0.0
 40
0.003
 41
0.003
  0
VERTEX
  8
0
 10
1.9529
 20
7.78554
 30
0.0
 40
0.003
 41
0.003
  0
VERTEX
  8
0
 10
1.97846
 20
7.78
 30
0.0
 40
0.003
 41
0.003
  0
VERTEX
  8
0
 10
2.00201
 20
7.76699
 30
0.0
 40
0.003
 41
0.003
  0
VERTEX
  8
0
 10
2.00612
 20
7.76324
 30
0.0
 40
0.003
 41
0.003
  0
VERTEX
  8
0
 10
2.01019
 20
7.75956
 30
0.0
 40
0.003
 41
0.003
  0
VERTEX
  8
0
 10
2.02453
 20
7.73839
 30
0.0
 40
0.003
 41
0.003
  0
VERTEX
  8
0
 10
2.03071
 20
7.71582
 30
0.0
 40
0.003
 41
0.003
  0
VERTEX
  8
0
 10
2.03071
 20
7.70828
 30
0.0
 40
0.003
 41
0.003
  0
VERTEX
  8
0
 10
2.03071
 20
7.70053
 30
0.0
 40
0.003
 41
0.003
  0
VERTEX
  8
0
 10
2.02436
 20
7.67725
 30
0.0
 40
0.003
 41
0.003
  0
VERTEX
  8
0
 10
2.00956
 20
7.65608
 30
0.0
 40
0.003
 41
0.003
  0
VERTEX
  8
0
 10
2.00537
 20
7.6525
 30
0.0
 40
0.003
 41
0.003
  0
VERTEX
  8
0
 10
2.00114
 20
7.64893
 30
0.0
 40
0.003
 41
0.003
  0
VERTEX
  8
0
 10
1.97749
 20
7.63639
 30
0.0
 40
0.003
 41
0.003
  0
VERTEX
  8
0
 10
1.95269
 20
7.63097
 30
0.0
 40
0.003
 41
0.003
  0
VERTEX
  8
0
 10
1.94444
 20
7.63097
 30
0.0
 40
0.003
 41
0.003
  0
VERTEX
  8
0
 10
1.92958
 20
7.63097
 30
0.0
 40
0.003
 41
0.003
  0
VERTEX
  8
0
 10
1.88943
 20
7.64893
 30
0.0
 40
0.003
 41
0.003
  0
VERTEX
  8
0
 10
1.88499
 20
7.6525
 30
0.0
 40
0.003
 41
0.003
  0
VERTEX
  8
0
 10
1.88053
 20
7.65608
 30
0.0
 40
0.003
 41
0.003
  0
VERTEX
  8
0
 10
1.8649
 20
7.67725
 30
0.0
 40
0.003
 41
0.003
  0
VERTEX
  8
0
 10
1.85824
 20
7.70053
 30
0.0
 40
0.003
 41
0.003
  0
VERTEX
  8
0
 10
1.85824
 20
7.70828
 30
0.0
 40
0.003
 41
0.003
  0
VERTEX
  8
0
 10
1.85824
 20
7.71631
 30
0.0
 40
0.003
 41
0.003
  0
VERTEX
  8
0
 10
1.8649
 20
7.74024
 30
0.0
 40
0.003
 41
0.003
  0
VERTEX
  8
0
 10
1.88053
 20
7.76124
 30
0.0
 40
0.003
 41
0.003
  0
VERTEX
  8
0
 10
1.88499
 20
7.76471
 30
0.0
 40
0.003
 41
0.003
  0
SEQEND
 8
0
  0
POLYLINE
  8
0
 62
     250
 66
     1
 10
0
 20
0
 30
0.0
 70
     1
 40
0.216
 41
0.216
  0
VERTEX
  8
0
 10
1.88721
 20
7.67111
 30
0.0
 40
0.003
 41
0.003
  0
VERTEX
  8
0
 10
1.89051
 20
7.6684
 30
0.0
 40
0.003
 41
0.003
  0
VERTEX
  8
0
 10
1.91189
 20
7.65886
 30
0.0
 40
0.003
 41
0.003
  0
VERTEX
  8
0
 10
1.93744
 20
7.65474
 30
0.0
 40
0.003
 41
0.003
  0
VERTEX
  8
0
 10
1.94596
 20
7.65474
 30
0.0
 40
0.003
 41
0.003
  0
VERTEX
  8
0
 10
1.95432
 20
7.65474
 30
0.0
 40
0.003
 41
0.003
  0
VERTEX
  8
0
 10
1.97954
 20
7.65864
 30
0.0
 40
0.003
 41
0.003
  0
VERTEX
  8
0
 10
2.00006
 20
7.66775
 30
0.0
 40
0.003
 41
0.003
  0
VERTEX
  8
0
 10
2.00315
 20
7.67036
 30
0.0
 40
0.003
 41
0.003
  0
VERTEX
  8
0
 10
2.00624
 20
7.67296
 30
0.0
 40
0.003
 41
0.003
  0
VERTEX
  8
0
 10
2.02175
 20
7.69949
 30
0.0
 40
0.003
 41
0.003
  0
VERTEX
  8
0
 10
2.02175
 20
7.70828
 30
0.0
 40
0.003
 41
0.003
  0
VERTEX
  8
0
 10
2.02175
 20
7.71392
 30
0.0
 40
0.003
 41
0.003
  0
VERTEX
  8
0
 10
2.01671
 20
7.73074
 30
0.0
 40
0.003
 41
0.003
  0
VERTEX
  8
0
 10
2.00499
 20
7.74533
 30
0.0
 40
0.003
 41
0.003
  0
VERTEX
  8
0
 10
2.00168
 20
7.74767
 30
0.0
 40
0.003
 41
0.003
  0
VERTEX
  8
0
 10
1.99832
 20
7.75006
 30
0.0
 40
0.003
 41
0.003
  0
VERTEX
  8
0
 10
1.97771
 20
7.75825
 30
0.0
 40
0.003
 41
0.003
  0
VERTEX
  8
0
 10
1.95389
 20
7.76172
 30
0.0
 40
0.003
 41
0.003
  0
VERTEX
  8
0
 10
1.94596
 20
7.76172
 30
0.0
 40
0.003
 41
0.003
  0
VERTEX
  8
0
 10
1.93744
 20
7.76172
 30
0.0
 40
0.003
 41
0.003
  0
VERTEX
  8
0
 10
1.91189
 20
7.75786
 30
0.0
 40
0.003
 41
0.003
  0
VERTEX
  8
0
 10
1.89051
 20
7.74875
 30
0.0
 40
0.003
 41
0.003
  0
VERTEX
  8
0
 10
1.88721
 20
7.74615
 30
0.0
 40
0.003
 41
0.003
  0
VERTEX
  8
0
 10
1.88385
 20
7.74354
 30
0.0
 40
0.003
 41
0.003
  0
VERTEX
  8
0
 10
1.86719
 20
7.71712
 30
0.0
 40
0.003
 41
0.003
  0
VERTEX
  8
0
 10
1.86719
 20
7.70828
 30
0.0
 40
0.003
 41
0.003
  0
VERTEX
  8
0
 10
1.86719
 20
7.699
 30
0.0
 40
0.003
 41
0.003
  0
VERTEX
  8
0
 10
1.88385
 20
7.67389
 30
0.0
 40
0.003
 41
0.003
  0
VERTEX
  8
0
 10
1.88721
 20
7.67111
 30
0.0
 40
0.003
 41
0.003
  0
SEQEND
 8
0
  0
POLYLINE
  8
0
 62
     250
 66
     1
 10
0
 20
0
 30
0.0
 70
     1
 40
0.216
 41
0.216
  0
VERTEX
  8
0
 10
1.77349
 20
7.84201
 30
0.0
 40
0.003
 41
0.003
  0
VERTEX
  8
0
 10
1.77349
 20
7.8584
 30
0.0
 40
0.003
 41
0.003
  0
VERTEX
  8
0
 10
1.77349
 20
7.86475
 30
0.0
 40
0.003
 41
0.003
  0
VERTEX
  8
0
 10
1.771
 20
7.88167
 30
0.0
 40
0.003
 41
0.003
  0
VERTEX
  8
0
 10
1.77051
 20
7.88362
 30
0.0
 40
0.003
 41
0.003
  0
VERTEX
  8
0
 10
1.77001
 20
7.88564
 30
0.0
 40
0.003
 41
0.003
  0
VERTEX
  8
0
 10
1.76253
 20
7.90424
 30
0.0
 40
0.003
 41
0.003
  0
VERTEX
  8
0
 10
1.76156
 20
7.90597
 30
0.0
 40
0.003
 41
0.003
  0
VERTEX
  8
0
 10
1.76156
 20
7.90896
 30
0.0
 40
0.003
 41
0.003
  0
VERTEX
  8
0
 10
2.00689
 20
7.90896
 30
0.0
 40
0.003
 41
0.003
  0
VERTEX
  8
0
 10
2.00911
 20
7.90896
 30
0.0
 40
0.003
 41
0.003
  0
VERTEX
  8
0
 10
2.01531
 20
7.91206
 30
0.0
 40
0.003
 41
0.003
  0
VERTEX
  8
0
 10
2.01579
 20
7.91265
 30
0.0
 40
0.003
 41
0.003
  0
VERTEX
  8
0
 10
2.01628
 20
7.91331
 30
0.0
 40
0.003
 41
0.003
  0
VERTEX
  8
0
 10
2.01878
 20
7.92008
 30
0.0
 40
0.003
 41
0.003
  0
VERTEX
  8
0
 10
2.01878
 20
7.92231
 30
0.0
 40
0.003
 41
0.003
  0
VERTEX
  8
0
 10
2.01878
 20
7.95654
 30
0.0
 40
0.003
 41
0.003
  0
VERTEX
  8
0
 10
2.02772
 20
7.95654
 30
0.0
 40
0.003
 41
0.003
  0
VERTEX
  8
0
 10
2.02772
 20
7.84056
 30
0.0
 40
0.003
 41
0.003
  0
VERTEX
  8
0
 10
2.01878
 20
7.84056
 30
0.0
 40
0.003
 41
0.003
  0
VERTEX
  8
0
 10
2.01878
 20
7.87478
 30
0.0
 40
0.003
 41
0.003
  0
VERTEX
  8
0
 10
2.01878
 20
7.87739
 30
0.0
 40
0.003
 41
0.003
  0
VERTEX
  8
0
 10
2.01628
 20
7.88465
 30
0.0
 40
0.003
 41
0.003
  0
VERTEX
  8
0
 10
2.01579
 20
7.88514
 30
0.0
 40
0.003
 41
0.003
  0
VERTEX
  8
0
 10
2.01531
 20
7.88569
 30
0.0
 40
0.003
 41
0.003
  0
VERTEX
  8
0
 10
2.00896
 20
7.88813
 30
0.0
 40
0.003
 41
0.003
  0
VERTEX
  8
0
 10
2.00689
 20
7.88813
 30
0.0
 40
0.003
 41
0.003
  0
VERTEX
  8
0
 10
1.79432
 20
7.88813
 30
0.0
 40
0.003
 41
0.003
  0
VERTEX
  8
0
 10
1.79204
 20
7.88813
 30
0.0
 40
0.003
 41
0.003
  0
VERTEX
  8
0
 10
1.78586
 20
7.88569
 30
0.0
 40
0.003
 41
0.003
  0
VERTEX
  8
0
 10
1.78537
 20
7.88514
 30
0.0
 40
0.003
 41
0.003
  0
VERTEX
  8
0
 10
1.78489
 20
7.88465
 30
0.0
 40
0.003
 41
0.003
  0
VERTEX
  8
0
 10
1.78244
 20
7.87728
 30
0.0
 40
0.003
 41
0.003
  0
VERTEX
  8
0
 10
1.78244
 20
7.87478
 30
0.0
 40
0.003
 41
0.003
  0
VERTEX
  8
0
 10
1.78244
 20
7.84201
 30
0.0
 40
0.003
 41
0.003
  0
VERTEX
  8
0
 10
1.77349
 20
7.84201
 30
0.0
 40
0.003
 41
0.003
  0
SEQEND
 8
0
  0
POLYLINE
  8
0
 62
     250
 66
     1
 10
0
 20
0
 30
0.0
 70
     1
 40
0.216
 41
0.216
  0
VERTEX
  8
0
 10
1.87011
 20
8.08285
 30
0.0
 40
0.003
 41
0.003
  0
VERTEX
  8
0
 10
1.98014
 20
8.08285
 30
0.0
 40
0.003
 41
0.003
  0
VERTEX
  8
0
 10
1.98719
 20
8.08285
 30
0.0
 40
0.003
 41
0.003
  0
VERTEX
  8
0
 10
2.00711
 20
8.08908
 30
0.0
 40
0.003
 41
0.003
  0
VERTEX
  8
0
 10
2.00836
 20
8.09028
 30
0.0
 40
0.003
 41
0.003
  0
VERTEX
  8
0
 10
2.00956
 20
8.09153
 30
0.0
 40
0.003
 41
0.003
  0
VERTEX
  8
0
 10
2.01579
 20
8.10736
 30
0.0
 40
0.003
 41
0.003
  0
VERTEX
  8
0
 10
2.01579
 20
8.11263
 30
0.0
 40
0.003
 41
0.003
  0
VERTEX
  8
0
 10
2.01579
 20
8.1186
 30
0.0
 40
0.003
 41
0.003
  0
VERTEX
  8
0
 10
2.00776
 20
8.13493
 30
0.0
 40
0.003
 41
0.003
  0
VERTEX
  8
0
 10
2.00612
 20
8.13639
 30
0.0
 40
0.003
 41
0.003
  0
VERTEX
  8
0
 10
2.0045
 20
8.13792
 30
0.0
 40
0.003
 41
0.003
  0
VERTEX
  8
0
 10
1.98161
 20
8.14779
 30
0.0
 40
0.003
 41
0.003
  0
VERTEX
  8
0
 10
1.97862
 20
8.14828
 30
0.0
 40
0.003
 41
0.003
  0
VERTEX
  8
0
 10
1.98161
 20
8.15565
 30
0.0
 40
0.003
 41
0.003
  0
VERTEX
  8
0
 10
1.98508
 20
8.15517
 30
0.0
 40
0.003
 41
0.003
  0
VERTEX
  8
0
 10
2.01357
 20
8.14219
 30
0.0
 40
0.003
 41
0.003
  0
VERTEX
  8
0
 10
2.01579
 20
8.14008
 30
0.0
 40
0.003
 41
0.003
  0
VERTEX
  8
0
 10
2.01801
 20
8.13797
 30
0.0
 40
0.003
 41
0.003
  0
VERTEX
  8
0
 10
2.02919
 20
8.11453
 30
0.0
 40
0.003
 41
0.003
  0
VERTEX
  8
0
 10
2.02919
 20
8.10667
 30
0.0
 40
0.003
 41
0.003
  0
VERTEX
  8
0
 10
2.02919
 20
8.09831
 30
0.0
 40
0.003
 41
0.003
  0
VERTEX
  8
0
 10
2.01801
 20
8.07503
 30
0.0
 40
0.003
 41
0.003
  0
VERTEX
  8
0
 10
2.01579
 20
8.07314
 30
0.0
 40
0.003
 41
0.003
  0
VERTEX
  8
0
 10
2.01357
 20
8.07129
 30
0.0
 40
0.003
 41
0.003
  0
VERTEX
  8
0
 10
1.984
 20
8.06207
 30
0.0
 40
0.003
 41
0.003
  0
VERTEX
  8
0
 10
1.97418
 20
8.06207
 30
0.0
 40
0.003
 41
0.003
  0
VERTEX
  8
0
 10
1.87011
 20
8.06207
 30
0.0
 40
0.003
 41
0.003
  0
VERTEX
  8
0
 10
1.87011
 20
8.01747
 30
0.0
 40
0.003
 41
0.003
  0
VERTEX
  8
0
 10
1.86122
 20
8.01747
 30
0.0
 40
0.003
 41
0.003
  0
VERTEX
  8
0
 10
1.86122
 20
8.02935
 30
0.0
 40
0.003
 41
0.003
  0
VERTEX
  8
0
 10
1.86122
 20
8.03663
 30
0.0
 40
0.003
 41
0.003
  0
VERTEX
  8
0
 10
1.85189
 20
8.05647
 30
0.0
 40
0.003
 41
0.003
  0
VERTEX
  8
0
 10
1.85004
 20
8.05832
 30
0.0
 40
0.003
 41
0.003
  0
VERTEX
  8
0
 10
1.84814
 20
8.06022
 30
0.0
 40
0.003
 41
0.003
  0
VERTEX
  8
0
 10
1.81907
 20
8.072
 30
0.0
 40
0.003
 41
0.003
  0
VERTEX
  8
0
 10
1.81511
 20
8.07249
 30
0.0
 40
0.003
 41
0.003
  0
VERTEX
  8
0
 10
1.80322
 20
8.07389
 30
0.0
 40
0.003
 41
0.003
  0
VERTEX
  8
0
 10
1.80322
 20
8.08285
 30
0.0
 40
0.003
 41
0.003
  0
VERTEX
  8
0
 10
1.86122
 20
8.08285
 30
0.0
 40
0.003
 41
0.003
  0
VERTEX
  8
0
 10
1.86122
 20
8.14231
 30
0.0
 40
0.003
 41
0.003
  0
VERTEX
  8
0
 10
1.87011
 20
8.14231
 30
0.0
 40
0.003
 41
0.003
  0
VERTEX
  8
0
 10
1.87011
 20
8.08285
 30
0.0
 40
0.003
 41
0.003
  0
SEQEND
 8
0
  0
POLYLINE
  8
0
 62
     250
 66
     1
 10
0
 20
0
 30
0.0
 70
     1
 40
0.216
 41
0.216
  0
VERTEX
  8
0
 10
2.02399
 20
8.28722
 30
0.0
 40
0.003
 41
0.003
  0
VERTEX
  8
0
 10
2.02485
 20
8.28515
 30
0.0
 40
0.003
 41
0.003
  0
VERTEX
  8
0
 10
2.02919
 20
8.26389
 30
0.0
 40
0.003
 41
0.003
  0
VERTEX
  8
0
 10
2.02919
 20
8.25678
 30
0.0
 40
0.003
 41
0.003
  0
VERTEX
  8
0
 10
2.02919
 20
8.24642
 30
0.0
 40
0.003
 41
0.003
  0
VERTEX
  8
0
 10
2.01861
 20
8.21767
 30
0.0
 40
0.003
 41
0.003
  0
VERTEX
  8
0
 10
2.01654
 20
8.21517
 30
0.0
 40
0.003
 41
0.003
  0
VERTEX
  8
0
 10
2.01443
 20
8.21272
 30
0.0
 40
0.003
 41
0.003
  0
VERTEX
  8
0
 10
1.99425
 20
8.20025
 30
0.0
 40
0.003
 41
0.003
  0
VERTEX
  8
0
 10
1.98757
 20
8.20025
 30
0.0
 40
0.003
 41
0.003
  0
VERTEX
  8
0
 10
1.98144
 20
8.20025
 30
0.0
 40
0.003
 41
0.003
  0
VERTEX
  8
0
 10
1.96322
 20
8.20606
 30
0.0
 40
0.003
 41
0.003
  0
VERTEX
  8
0
 10
1.94656
 20
8.21951
 30
0.0
 40
0.003
 41
0.003
  0
VERTEX
  8
0
 10
1.94374
 20
8.22336
 30
0.0
 40
0.003
 41
0.003
  0
VERTEX
  8
0
 10
1.94086
 20
8.22721
 30
0.0
 40
0.003
 41
0.003
  0
VERTEX
  8
0
 10
1.92904
 20
8.25776
 30
0.0
 40
0.003
 41
0.003
  0
VERTEX
  8
0
 10
1.92042
 20
8.30333
 30
0.0
 40
0.003
 41
0.003
  0
VERTEX
  8
0
 10
1.91922
 20
8.31472
 30
0.0
 40
0.003
 41
0.003
  0
VERTEX
  8
0
 10
1.90136
 20
8.31472
 30
0.0
 40
0.003
 41
0.003
  0
VERTEX
  8
0
 10
1.89524
 20
8.31472
 30
0.0
 40
0.003
 41
0.003
  0
VERTEX
  8
0
 10
1.87842
 20
8.30925
 30
0.0
 40
0.003
 41
0.003
  0
VERTEX
  8
0
 10
1.87685
 20
8.30811
 30
0.0
 40
0.003
 41
0.003
  0
VERTEX
  8
0
 10
1.87522
 20
8.30701
 30
0.0
 40
0.003
 41
0.003
  0
VERTEX
  8
0
 10
1.86719
 20
8.28494
 30
0.0
 40
0.003
 41
0.003
  0
VERTEX
  8
0
 10
1.86719
 20
8.27756
 30
0.0
 40
0.003
 41
0.003
  0
VERTEX
  8
0
 10
1.86719
 20
8.26867
 30
0.0
 40
0.003
 41
0.003
  0
VERTEX
  8
0
 10
1.87397
 20
8.24365
 30
0.0
 40
0.003
 41
0.003
  0
VERTEX
  8
0
 10
1.87532
 20
8.24192
 30
0.0
 40
0.003
 41
0.003
  0
VERTEX
  8
0
 10
1.87668
 20
8.24018
 30
0.0
 40
0.003
 41
0.003
  0
VERTEX
  8
0
 10
1.8909
 20
8.23394
 30
0.0
 40
0.003
 41
0.003
  0
VERTEX
  8
0
 10
1.89242
 20
8.23443
 30
0.0
 40
0.003
 41
0.003
  0
VERTEX
  8
0
 10
1.89339
 20
8.23497
 30
0.0
 40
0.003
 41
0.003
  0
VERTEX
  8
0
 10
1.90326
 20
8.23497
 30
0.0
 40
0.003
 41
0.003
  0
VERTEX
  8
0
 10
1.90429
 20
8.23443
 30
0.0
 40
0.003
 41
0.003
  0
VERTEX
  8
0
 10
1.90528
 20
8.23394
 30
0.0
 40
0.003
 41
0.003
  0
VERTEX
  8
0
 10
1.91026
 20
8.22547
 30
0.0
 40
0.003
 41
0.003
  0
VERTEX
  8
0
 10
1.91026
 20
8.2226
 30
0.0
 40
0.003
 41
0.003
  0
VERTEX
  8
0
 10
1.91026
 20
8.22021
 30
0.0
 40
0.003
 41
0.003
  0
VERTEX
  8
0
 10
1.90717
 20
8.2136
 30
0.0
 40
0.003
 41
0.003
  0
VERTEX
  8
0
 10
1.90657
 20
8.21294
 30
0.0
 40
0.003
 41
0.003
  0
VERTEX
  8
0
 10
1.90593
 20
8.21235
 30
0.0
 40
0.003
 41
0.003
  0
VERTEX
  8
0
 10
1.898
 20
8.20921
 30
0.0
 40
0.003
 41
0.003
  0
VERTEX
  8
0
 10
1.8954
 20
8.20921
 30
0.0
 40
0.003
 41
0.003
  0
VERTEX
  8
0
 10
1.88906
 20
8.20921
 30
0.0
 40
0.003
 41
0.003
  0
VERTEX
  8
0
 10
1.87207
 20
8.22537
 30
0.0
 40
0.003
 41
0.003
  0
VERTEX
  8
0
 10
1.87011
 20
8.22857
 30
0.0
 40
0.003
 41
0.003
  0
VERTEX
  8
0
 10
1.86811
 20
8.23182
 30
0.0
 40
0.003
 41
0.003
  0
VERTEX
  8
0
 10
1.85824
 20
8.26503
 30
0.0
 40
0.003
 41
0.003
  0
VERTEX
  8
0
 10
1.85824
 20
8.2761
 30
0.0
 40
0.003
 41
0.003
  0
VERTEX
  8
0
 10
1.85824
 20
8.28728
 30
0.0
 40
0.003
 41
0.003
  0
VERTEX
  8
0
 10
1.86751
 20
8.31825
 30
0.0
 40
0.003
 41
0.003
  0
VERTEX
  8
0
 10
1.86942
 20
8.32069
 30
0.0
 40
0.003
 41
0.003
  0
VERTEX
  8
0
 10
1.87125
 20
8.32319
 30
0.0
 40
0.003
 41
0.003
  0
VERTEX
  8
0
 10
1.89382
 20
8.33556
 30
0.0
 40
0.003
 41
0.003
  0
VERTEX
  8
0
 10
1.90136
 20
8.33556
 30
0.0
 40
0.003
 41
0.003
  0
VERTEX
  8
0
 10
1.9994
 20
8.33556
 30
0.0
 40
0.003
 41
0.003
  0
VERTEX
  8
0
 10
2.00293
 20
8.33556
 30
0.0
 40
0.003
 41
0.003
  0
VERTEX
  8
0
 10
2.01318
 20
8.33746
 30
0.0
 40
0.003
 41
0.003
  0
VERTEX
  8
0
 10
2.01357
 20
8.33778
 30
0.0
 40
0.003
 41
0.003
  0
VERTEX
  8
0
 10
2.01394
 20
8.33817
 30
0.0
 40
0.003
 41
0.003
  0
VERTEX
  8
0
 10
2.01579
 20
8.34403
 30
0.0
 40
0.003
 41
0.003
  0
VERTEX
  8
0
 10
2.01579
 20
8.34597
 30
0.0
 40
0.003
 41
0.003
  0
VERTEX
  8
0
 10
2.01579
 20
8.34858
 30
0.0
 40
0.003
 41
0.003
  0
VERTEX
  8
0
 10
2.01019
 20
8.35585
 30
0.0
 40
0.003
 41
0.003
  0
VERTEX
  8
0
 10
2.00911
 20
8.35633
 30
0.0
 40
0.003
 41
0.003
  0
VERTEX
  8
0
 10
2.00797
 20
8.35688
 30
0.0
 40
0.003
 41
0.003
  0
VERTEX
  8
0
 10
1.9949
 20
8.35932
 30
0.0
 40
0.003
 41
0.003
  0
VERTEX
  8
0
 10
1.99056
 20
8.35932
 30
0.0
 40
0.003
 41
0.003
  0
VERTEX
  8
0
 10
1.99056
 20
8.36675
 30
0.0
 40
0.003
 41
0.003
  0
VERTEX
  8
0
 10
1.99778
 20
8.36675
 30
0.0
 40
0.003
 41
0.003
  0
VERTEX
  8
0
 10
2.01812
 20
8.36057
 30
0.0
 40
0.003
 41
0.003
  0
VERTEX
  8
0
 10
2.01953
 20
8.35932
 30
0.0
 40
0.003
 41
0.003
  0
VERTEX
  8
0
 10
2.02089
 20
8.35812
 30
0.0
 40
0.003
 41
0.003
  0
VERTEX
  8
0
 10
2.02772
 20
8.34462
 30
0.0
 40
0.003
 41
0.003
  0
VERTEX
  8
0
 10
2.02772
 20
8.34006
 30
0.0
 40
0.003
 41
0.003
  0
VERTEX
  8
0
 10
2.02772
 20
8.33599
 30
0.0
 40
0.003
 41
0.003
  0
VERTEX
  8
0
 10
2.02393
 20
8.32471
 30
0.0
 40
0.003
 41
0.003
  0
VERTEX
  8
0
 10
2.02322
 20
8.32368
 30
0.0
 40
0.003
 41
0.003
  0
VERTEX
  8
0
 10
2.02246
 20
8.32269
 30
0.0
 40
0.003
 41
0.003
  0
VERTEX
  8
0
 10
2.0101
 20
8.31526
 30
0.0
 40
0.003
 41
0.003
  0
VERTEX
  8
0
 10
2.00836
 20
8.31472
 30
0.0
 40
0.003
 41
0.003
  0
VERTEX
  8
0
 10
2.0101
 20
8.31228
 30
0.0
 40
0.003
 41
0.003
  0
VERTEX
  8
0
 10
2.02311
 20
8.28933
 30
0.0
 40
0.003
 41
0.003
  0
VERTEX
  8
0
 10
2.02399
 20
8.28722
 30
0.0
 40
0.003
 41
0.003
  0
SEQEND
 8
0
  0
POLYLINE
  8
0
 62
     250
 66
     1
 10
0
 20
0
 30
0.0
 70
     1
 40
0.216
 41
0.216
  0
VERTEX
  8
0
 10
1.94819
 20
8.2449
 30
0.0
 40
0.003
 41
0.003
  0
VERTEX
  8
0
 10
1.95053
 20
8.24169
 30
0.0
 40
0.003
 41
0.003
  0
VERTEX
  8
0
 10
1.97493
 20
8.22558
 30
0.0
 40
0.003
 41
0.003
  0
VERTEX
  8
0
 10
1.98313
 20
8.22558
 30
0.0
 40
0.003
 41
0.003
  0
VERTEX
  8
0
 10
1.98921
 20
8.22558
 30
0.0
 40
0.003
 41
0.003
  0
VERTEX
  8
0
 10
2.00569
 20
8.23242
 30
0.0
 40
0.003
 41
0.003
  0
VERTEX
  8
0
 10
2.0076
 20
8.23378
 30
0.0
 40
0.003
 41
0.003
  0
VERTEX
  8
0
 10
2.00944
 20
8.23514
 30
0.0
 40
0.003
 41
0.003
  0
VERTEX
  8
0
 10
2.01878
 20
8.25364
 30
0.0
 40
0.003
 41
0.003
  0
VERTEX
  8
0
 10
2.01878
 20
8.25976
 30
0.0
 40
0.003
 41
0.003
  0
VERTEX
  8
0
 10
2.01878
 20
8.2665
 30
0.0
 40
0.003
 41
0.003
  0
VERTEX
  8
0
 10
2.01443
 20
8.28429
 30
0.0
 40
0.003
 41
0.003
  0
VERTEX
  8
0
 10
2.01357
 20
8.28651
 30
0.0
 40
0.003
 41
0.003
  0
VERTEX
  8
0
 10
2.01269
 20
8.28874
 30
0.0
 40
0.003
 41
0.003
  0
VERTEX
  8
0
 10
1.99968
 20
8.31228
 30
0.0
 40
0.003
 41
0.003
  0
VERTEX
  8
0
 10
1.99794
 20
8.31472
 30
0.0
 40
0.003
 41
0.003
  0
VERTEX
  8
0
 10
1.92806
 20
8.31472
 30
0.0
 40
0.003
 41
0.003
  0
VERTEX
  8
0
 10
1.92904
 20
8.30632
 30
0.0
 40
0.003
 41
0.003
  0
VERTEX
  8
0
 10
1.93608
 20
8.27208
 30
0.0
 40
0.003
 41
0.003
  0
VERTEX
  8
0
 10
1.94581
 20
8.24815
 30
0.0
 40
0.003
 41
0.003
  0
VERTEX
  8
0
 10
1.94819
 20
8.2449
 30
0.0
 40
0.003
 41
0.003
  0
SEQEND
 8
0
  0
POLYLINE
  8
0
 62
     250
 66
     1
 10
0
 20
0
 30
0.0
 70
     1
 40
0.216
 41
0.216
  0
VERTEX
  8
0
 10
1.87978
 20
8.43739
 30
0.0
 40
0.003
 41
0.003
  0
VERTEX
  8
0
 10
1.88163
 20
8.43554
 30
0.0
 40
0.003
 41
0.003
  0
VERTEX
  8
0
 10
1.90756
 20
8.42626
 30
0.0
 40
0.003
 41
0.003
  0
VERTEX
  8
0
 10
1.91624
 20
8.42626
 30
0.0
 40
0.003
 41
0.003
  0
VERTEX
  8
0
 10
1.92383
 20
8.42626
 30
0.0
 40
0.003
 41
0.003
  0
VERTEX
  8
0
 10
1.94456
 20
8.43494
 30
0.0
 40
0.003
 41
0.003
  0
VERTEX
  8
0
 10
1.94667
 20
8.43664
 30
0.0
 40
0.003
 41
0.003
  0
VERTEX
  8
0
 10
1.94874
 20
8.43837
 30
0.0
 40
0.003
 41
0.003
  0
VERTEX
  8
0
 10
1.95931
 20
8.45828
 30
0.0
 40
0.003
 41
0.003
  0
VERTEX
  8
0
 10
1.95931
 20
8.4649
 30
0.0
 40
0.003
 41
0.003
  0
VERTEX
  8
0
 10
1.95931
 20
8.47217
 30
0.0
 40
0.003
 41
0.003
  0
VERTEX
  8
0
 10
1.95003
 20
8.49229
 30
0.0
 40
0.003
 41
0.003
  0
VERTEX
  8
0
 10
1.94819
 20
8.49388
 30
0.0
 40
0.003
 41
0.003
  0
VERTEX
  8
0
 10
1.94629
 20
8.4955
 30
0.0
 40
0.003
 41
0.003
  0
VERTEX
  8
0
 10
1.92372
 20
8.50358
 30
0.0
 40
0.003
 41
0.003
  0
VERTEX
  8
0
 10
1.91624
 20
8.50358
 30
0.0
 40
0.003
 41
0.003
  0
VERTEX
  8
0
 10
1.90713
 20
8.50358
 30
0.0
 40
0.003
 41
0.003
  0
VERTEX
  8
0
 10
1.88163
 20
8.49431
 30
0.0
 40
0.003
 41
0.003
  0
VERTEX
  8
0
 10
1.87978
 20
8.4924
 30
0.0
 40
0.003
 41
0.003
  0
VERTEX
  8
0
 10
1.87793
 20
8.49056
 30
0.0
 40
0.003
 41
0.003
  0
VERTEX
  8
0
 10
1.86865
 20
8.47136
 30
0.0
 40
0.003
 41
0.003
  0
VERTEX
  8
0
 10
1.86865
 20
8.4649
 30
0.0
 40
0.003
 41
0.003
  0
VERTEX
  8
0
 10
1.86865
 20
8.45806
 30
0.0
 40
0.003
 41
0.003
  0
VERTEX
  8
0
 10
1.87793
 20
8.43929
 30
0.0
 40
0.003
 41
0.003
  0
VERTEX
  8
0
 10
1.87978
 20
8.43739
 30
0.0
 40
0.003
 41
0.003
  0
SEQEND
 8
0
  0
POLYLINE
  8
0
 62
     250
 66
     1
 10
0
 20
0
 30
0.0
 70
     1
 40
0.216
 41
0.216
  0
VERTEX
  8
0
 10
1.99278
 20
8.47162
 30
0.0
 40
0.003
 41
0.003
  0
VERTEX
  8
0
 10
1.99311
 20
8.47424
 30
0.0
 40
0.003
 41
0.003
  0
VERTEX
  8
0
 10
1.99625
 20
8.49713
 30
0.0
 40
0.003
 41
0.003
  0
VERTEX
  8
0
 10
1.99653
 20
8.49908
 30
0.0
 40
0.003
 41
0.003
  0
VERTEX
  8
0
 10
1.99701
 20
8.50282
 30
0.0
 40
0.003
 41
0.003
  0
VERTEX
  8
0
 10
2.00749
 20
8.53006
 30
0.0
 40
0.003
 41
0.003
  0
VERTEX
  8
0
 10
2.00911
 20
8.53179
 30
0.0
 40
0.003
 41
0.003
  0
VERTEX
  8
0
 10
2.01069
 20
8.53353
 30
0.0
 40
0.003
 41
0.003
  0
VERTEX
  8
0
 10
2.02903
 20
8.54221
 30
0.0
 40
0.003
 41
0.003
  0
VERTEX
  8
0
 10
2.03515
 20
8.54221
 30
0.0
 40
0.003
 41
0.003
  0
VERTEX
  8
0
 10
2.04015
 20
8.54221
 30
0.0
 40
0.003
 41
0.003
  0
VERTEX
  8
0
 10
2.05518
 20
8.53754
 30
0.0
 40
0.003
 41
0.003
  0
VERTEX
  8
0
 10
2.06858
 20
8.52669
 30
0.0
 40
0.003
 41
0.003
  0
VERTEX
  8
0
 10
2.07081
 20
8.5236
 30
0.0
 40
0.003
 41
0.003
  0
VERTEX
  8
0
 10
2.07303
 20
8.52051
 30
0.0
 40
0.003
 41
0.003
  0
VERTEX
  8
0
 10
2.08078
 20
8.49968
 30
0.0
 40
0.003
 41
0.003
  0
VERTEX
  8
0
 10
2.08415
 20
8.47364
 30
0.0
 40
0.003
 41
0.003
  0
VERTEX
  8
0
 10
2.08415
 20
8.4649
 30
0.0
 40
0.003
 41
0.003
  0
VERTEX
  8
0
 10
2.08415
 20
8.45226
 30
0.0
 40
0.003
 41
0.003
  0
VERTEX
  8
0
 10
2.07362
 20
8.41758
 30
0.0
 40
0.003
 41
0.003
  0
VERTEX
  8
0
 10
2.07156
 20
8.41433
 30
0.0
 40
0.003
 41
0.003
  0
VERTEX
  8
0
 10
2.06944
 20
8.41114
 30
0.0
 40
0.003
 41
0.003
  0
VERTEX
  8
0
 10
2.04926
 20
8.39507
 30
0.0
 40
0.003
 41
0.003
  0
VERTEX
  8
0
 10
2.04254
 20
8.39507
 30
0.0
 40
0.003
 41
0.003
  0
VERTEX
  8
0
 10
2.03733
 20
8.39507
 30
0.0
 40
0.003
 41
0.003
  0
VERTEX
  8
0
 10
2.02344
 20
8.40126
 30
0.0
 40
0.003
 41
0.003
  0
VERTEX
  8
0
 10
2.02175
 20
8.40246
 30
0.0
 40
0.003
 41
0.003
  0
VERTEX
  8
0
 10
2.02001
 20
8.40369
 30
0.0
 40
0.003
 41
0.003
  0
VERTEX
  8
0
 10
2.00635
 20
8.42356
 30
0.0
 40
0.003
 41
0.003
  0
VERTEX
  8
0
 10
2.00537
 20
8.42626
 30
0.0
 40
0.003
 41
0.003
  0
VERTEX
  8
0
 10
2.00461
 20
8.42481
 30
0.0
 40
0.003
 41
0.003
  0
VERTEX
  8
0
 10
1.99664
 20
8.41297
 30
0.0
 40
0.003
 41
0.003
  0
VERTEX
  8
0
 10
1.99576
 20
8.41211
 30
0.0
 40
0.003
 41
0.003
  0
VERTEX
  8
0
 10
1.99485
 20
8.41129
 30
0.0
 40
0.003
 41
0.003
  0
VERTEX
  8
0
 10
1.98606
 20
8.4069
 30
0.0
 40
0.003
 41
0.003
  0
VERTEX
  8
0
 10
1.98313
 20
8.4069
 30
0.0
 40
0.003
 41
0.003
  0
VERTEX
  8
0
 10
1.97922
 20
8.4069
 30
0.0
 40
0.003
 41
0.003
  0
VERTEX
  8
0
 10
1.96858
 20
8.41189
 30
0.0
 40
0.003
 41
0.003
  0
VERTEX
  8
0
 10
1.9675
 20
8.41287
 30
0.0
 40
0.003
 41
0.003
  0
VERTEX
  8
0
 10
1.96636
 20
8.41385
 30
0.0
 40
0.003
 41
0.003
  0
VERTEX
  8
0
 10
1.95708
 20
8.42626
 30
0.0
 40
0.003
 41
0.003
  0
VERTEX
  8
0
 10
1.95637
 20
8.42774
 30
0.0
 40
0.003
 41
0.003
  0
VERTEX
  8
0
 10
1.95514
 20
8.42626
 30
0.0
 40
0.003
 41
0.003
  0
VERTEX
  8
0
 10
1.94021
 20
8.41325
 30
0.0
 40
0.003
 41
0.003
  0
VERTEX
  8
0
 10
1.93853
 20
8.41211
 30
0.0
 40
0.003
 41
0.003
  0
VERTEX
  8
0
 10
1.93674
 20
8.41103
 30
0.0
 40
0.003
 41
0.003
  0
VERTEX
  8
0
 10
1.92133
 20
8.40543
 30
0.0
 40
0.003
 41
0.003
  0
VERTEX
  8
0
 10
1.91624
 20
8.40543
 30
0.0
 40
0.003
 41
0.003
  0
VERTEX
  8
0
 10
1.90636
 20
8.40543
 30
0.0
 40
0.003
 41
0.003
  0
VERTEX
  8
0
 10
1.87967
 20
8.41846
 30
0.0
 40
0.003
 41
0.003
  0
VERTEX
  8
0
 10
1.87685
 20
8.42106
 30
0.0
 40
0.003
 41
0.003
  0
VERTEX
  8
0
 10
1.87397
 20
8.42367
 30
0.0
 40
0.003
 41
0.003
  0
VERTEX
  8
0
 10
1.86393
 20
8.43983
 30
0.0
 40
0.003
 41
0.003
  0
VERTEX
  8
0
 10
1.85969
 20
8.45865
 30
0.0
 40
0.003
 41
0.003
  0
VERTEX
  8
0
 10
1.85969
 20
8.4649
 30
0.0
 40
0.003
 41
0.003
  0
VERTEX
  8
0
 10
1.85969
 20
8.47071
 30
0.0
 40
0.003
 41
0.003
  0
VERTEX
  8
0
 10
1.86219
 20
8.48611
 30
0.0
 40
0.003
 41
0.003
  0
VERTEX
  8
0
 10
1.86268
 20
8.48796
 30
0.0
 40
0.003
 41
0.003
  0
VERTEX
  8
0
 10
1.86317
 20
8.48986
 30
0.0
 40
0.003
 41
0.003
  0
VERTEX
  8
0
 10
1.87185
 20
8.50532
 30
0.0
 40
0.003
 41
0.003
  0
VERTEX
  8
0
 10
1.8731
 20
8.50657
 30
0.0
 40
0.003
 41
0.003
  0
VERTEX
  8
0
 10
1.87185
 20
8.50831
 30
0.0
 40
0.003
 41
0.003
  0
VERTEX
  8
0
 10
1.86257
 20
8.52376
 30
0.0
 40
0.003
 41
0.003
  0
VERTEX
  8
0
 10
1.86199
 20
8.52507
 30
0.0
 40
0.003
 41
0.003
  0
VERTEX
  8
0
 10
1.86133
 20
8.52647
 30
0.0
 40
0.003
 41
0.003
  0
VERTEX
  8
0
 10
1.85824
 20
8.53608
 30
0.0
 40
0.003
 41
0.003
  0
VERTEX
  8
0
 10
1.85824
 20
8.53922
 30
0.0
 40
0.003
 41
0.003
  0
VERTEX
  8
0
 10
1.85824
 20
8.54183
 30
0.0
 40
0.003
 41
0.003
  0
VERTEX
  8
0
 10
1.86257
 20
8.5491
 30
0.0
 40
0.003
 41
0.003
  0
VERTEX
  8
0
 10
1.86344
 20
8.54958
 30
0.0
 40
0.003
 41
0.003
  0
VERTEX
  8
0
 10
1.86431
 20
8.55013
 30
0.0
 40
0.003
 41
0.003
  0
VERTEX
  8
0
 10
1.87088
 20
8.55257
 30
0.0
 40
0.003
 41
0.003
  0
VERTEX
  8
0
 10
1.8731
 20
8.55257
 30
0.0
 40
0.003
 41
0.003
  0
VERTEX
  8
0
 10
1.87549
 20
8.55257
 30
0.0
 40
0.003
 41
0.003
  0
VERTEX
  8
0
 10
1.88211
 20
8.55072
 30
0.0
 40
0.003
 41
0.003
  0
VERTEX
  8
0
 10
1.88276
 20
8.55035
 30
0.0
 40
0.003
 41
0.003
  0
VERTEX
  8
0
 10
1.88336
 20
8.54997
 30
0.0
 40
0.003
 41
0.003
  0
VERTEX
  8
0
 10
1.88644
 20
8.54417
 30
0.0
 40
0.003
 41
0.003
  0
VERTEX
  8
0
 10
1.88644
 20
8.54221
 30
0.0
 40
0.003
 41
0.003
  0
VERTEX
  8
0
 10
1.88644
 20
8.54036
 30
0.0
 40
0.003
 41
0.003
  0
VERTEX
  8
0
 10
1.8846
 20
8.53526
 30
0.0
 40
0.003
 41
0.003
  0
VERTEX
  8
0
 10
1.88422
 20
8.53478
 30
0.0
 40
0.003
 41
0.003
  0
VERTEX
  8
0
 10
1.88385
 20
8.53429
 30
0.0
 40
0.003
 41
0.003
  0
VERTEX
  8
0
 10
1.87831
 20
8.5306
 30
0.0
 40
0.003
 41
0.003
  0
VERTEX
  8
0
 10
1.87761
 20
8.53033
 30
0.0
 40
0.003
 41
0.003
  0
VERTEX
  8
0
 10
1.87685
 20
8.53011
 30
0.0
 40
0.003
 41
0.003
  0
VERTEX
  8
0
 10
1.87369
 20
8.52447
 30
0.0
 40
0.003
 41
0.003
  0
VERTEX
  8
0
 10
1.87386
 20
8.5236
 30
0.0
 40
0.003
 41
0.003
  0
VERTEX
  8
0
 10
1.87397
 20
8.52274
 30
0.0
 40
0.003
 41
0.003
  0
VERTEX
  8
0
 10
1.87825
 20
8.51346
 30
0.0
 40
0.003
 41
0.003
  0
VERTEX
  8
0
 10
1.87901
 20
8.51243
 30
0.0
 40
0.003
 41
0.003
  0
VERTEX
  8
0
 10
1.87999
 20
8.51346
 30
0.0
 40
0.003
 41
0.003
  0
VERTEX
  8
0
 10
1.89361
 20
8.52089
 30
0.0
 40
0.003
 41
0.003
  0
VERTEX
  8
0
 10
1.8954
 20
8.52138
 30
0.0
 40
0.003
 41
0.003
  0
VERTEX
  8
0
 10
1.89714
 20
8.52186
 30
0.0
 40
0.003
 41
0.003
  0
VERTEX
  8
0
 10
1.91146
 20
8.52436
 30
0.0
 40
0.003
 41
0.003
  0
VERTEX
  8
0
 10
1.91624
 20
8.52436
 30
0.0
 40
0.003
 41
0.003
  0
VERTEX
  8
0
 10
1.92497
 20
8.52436
 30
0.0
 40
0.003
 41
0.003
  0
VERTEX
  8
0
 10
1.94829
 20
8.51264
 30
0.0
 40
0.003
 41
0.003
  0
VERTEX
  8
0
 10
1.95117
 20
8.51025
 30
0.0
 40
0.003
 41
0.003
  0
VERTEX
  8
0
 10
1.954
 20
8.50792
 30
0.0
 40
0.003
 41
0.003
  0
VERTEX
  8
0
 10
1.96392
 20
8.49186
 30
0.0
 40
0.003
 41
0.003
  0
VERTEX
  8
0
 10
1.96821
 20
8.47168
 30
0.0
 40
0.003
 41
0.003
  0
VERTEX
  8
0
 10
1.96821
 20
8.4649
 30
0.0
 40
0.003
 41
0.003
  0
VERTEX
  8
0
 10
1.96821
 20
8.46083
 30
0.0
 40
0.003
 41
0.003
  0
VERTEX
  8
0
 10
1.96636
 20
8.44976
 30
0.0
 40
0.003
 41
0.003
  0
VERTEX
  8
0
 10
1.96599
 20
8.44851
 30
0.0
 40
0.003
 41
0.003
  0
VERTEX
  8
0
 10
1.9656
 20
8.44732
 30
0.0
 40
0.003
 41
0.003
  0
VERTEX
  8
0
 10
1.96126
 20
8.43739
 30
0.0
 40
0.003
 41
0.003
  0
VERTEX
  8
0
 10
1.96078
 20
8.43664
 30
0.0
 40
0.003
 41
0.003
  0
VERTEX
  8
0
 10
1.96126
 20
8.43565
 30
0.0
 40
0.003
 41
0.003
  0
VERTEX
  8
0
 10
1.96744
 20
8.42828
 30
0.0
 40
0.003
 41
0.003
  0
VERTEX
  8
0
 10
1.96821
 20
8.42774
 30
0.0
 40
0.003
 41
0.003
  0
VERTEX
  8
0
 10
1.96892
 20
8.42725
 30
0.0
 40
0.003
 41
0.003
  0
VERTEX
  8
0
 10
1.97396
 20
8.42475
 30
0.0
 40
0.003
 41
0.003
  0
VERTEX
  8
0
 10
1.97564
 20
8.42475
 30
0.0
 40
0.003
 41
0.003
  0
VERTEX
  8
0
 10
1.97786
 20
8.42475
 30
0.0
 40
0.003
 41
0.003
  0
VERTEX
  8
0
 10
1.9841
 20
8.42725
 30
0.0
 40
0.003
 41
0.003
  0
VERTEX
  8
0
 10
1.9846
 20
8.42774
 30
0.0
 40
0.003
 41
0.003
  0
VERTEX
  8
0
 10
1.98508
 20
8.42828
 30
0.0
 40
0.003
 41
0.003
  0
VERTEX
  8
0
 10
1.98757
 20
8.43457
 30
0.0
 40
0.003
 41
0.003
  0
VERTEX
  8
0
 10
1.98757
 20
8.43664
 30
0.0
 40
0.003
 41
0.003
  0
VERTEX
  8
0
 10
1.98807
 20
8.43989
 30
0.0
 40
0.003
 41
0.003
  0
VERTEX
  8
0
 10
1.9924
 20
8.46903
 30
0.0
 40
0.003
 41
0.003
  0
VERTEX
  8
0
 10
1.99278
 20
8.47162
 30
0.0
 40
0.003
 41
0.003
  0
SEQEND
 8
0
  0
POLYLINE
  8
0
 62
     250
 66
     1
 10
0
 20
0
 30
0.0
 70
     1
 40
0.216
 41
0.216
  0
VERTEX
  8
0
 10
2.01357
 20
8.47526
 30
0.0
 40
0.003
 41
0.003
  0
VERTEX
  8
0
 10
2.01318
 20
8.47233
 30
0.0
 40
0.003
 41
0.003
  0
VERTEX
  8
0
 10
2.00885
 20
8.44135
 30
0.0
 40
0.003
 41
0.003
  0
VERTEX
  8
0
 10
2.00836
 20
8.4381
 30
0.0
 40
0.003
 41
0.003
  0
VERTEX
  8
0
 10
2.00933
 20
8.43593
 30
0.0
 40
0.003
 41
0.003
  0
VERTEX
  8
0
 10
2.02111
 20
8.42042
 30
0.0
 40
0.003
 41
0.003
  0
VERTEX
  8
0
 10
2.02251
 20
8.41954
 30
0.0
 40
0.003
 41
0.003
  0
VERTEX
  8
0
 10
2.02387
 20
8.41872
 30
0.0
 40
0.003
 41
0.003
  0
VERTEX
  8
0
 10
2.03788
 20
8.41433
 30
0.0
 40
0.003
 41
0.003
  0
VERTEX
  8
0
 10
2.04254
 20
8.41433
 30
0.0
 40
0.003
 41
0.003
  0
VERTEX
  8
0
 10
2.04812
 20
8.41433
 30
0.0
 40
0.003
 41
0.003
  0
VERTEX
  8
0
 10
2.0631
 20
8.42551
 30
0.0
 40
0.003
 41
0.003
  0
VERTEX
  8
0
 10
2.06489
 20
8.42774
 30
0.0
 40
0.003
 41
0.003
  0
VERTEX
  8
0
 10
2.06657
 20
8.42996
 30
0.0
 40
0.003
 41
0.003
  0
VERTEX
  8
0
 10
2.07531
 20
8.45844
 30
0.0
 40
0.003
 41
0.003
  0
VERTEX
  8
0
 10
2.07531
 20
8.46789
 30
0.0
 40
0.003
 41
0.003
  0
VERTEX
  8
0
 10
2.07531
 20
8.47792
 30
0.0
 40
0.003
 41
0.003
  0
VERTEX
  8
0
 10
2.06847
 20
8.50558
 30
0.0
 40
0.003
 41
0.003
  0
VERTEX
  8
0
 10
2.06711
 20
8.50803
 30
0.0
 40
0.003
 41
0.003
  0
VERTEX
  8
0
 10
2.06569
 20
8.51053
 30
0.0
 40
0.003
 41
0.003
  0
VERTEX
  8
0
 10
2.04829
 20
8.52285
 30
0.0
 40
0.003
 41
0.003
  0
VERTEX
  8
0
 10
2.04254
 20
8.52285
 30
0.0
 40
0.003
 41
0.003
  0
VERTEX
  8
0
 10
2.03842
 20
8.52285
 30
0.0
 40
0.003
 41
0.003
  0
VERTEX
  8
0
 10
2.02718
 20
8.51981
 30
0.0
 40
0.003
 41
0.003
  0
VERTEX
  8
0
 10
2.02621
 20
8.51915
 30
0.0
 40
0.003
 41
0.003
  0
VERTEX
  8
0
 10
2.02518
 20
8.51856
 30
0.0
 40
0.003
 41
0.003
  0
VERTEX
  8
0
 10
2.01899
 20
8.50928
 30
0.0
 40
0.003
 41
0.003
  0
VERTEX
  8
0
 10
2.01878
 20
8.50803
 30
0.0
 40
0.003
 41
0.003
  0
VERTEX
  8
0
 10
2.01828
 20
8.50558
 30
0.0
 40
0.003
 41
0.003
  0
VERTEX
  8
0
 10
2.01394
 20
8.47825
 30
0.0
 40
0.003
 41
0.003
  0
VERTEX
  8
0
 10
2.01357
 20
8.47526
 30
0.0
 40
0.003
 41
0.003
  0
SEQEND
 8
0
  0
POLYLINE
  8
0
 62
     250
 66
     1
 10
0
 20
0
 30
0.0
 70
     1
 40
0.216
 41
0.216
  0
VERTEX
  8
0
 10
1.93554
 20
8.61208
 30
0.0
 40
0.003
 41
0.003
  0
VERTEX
  8
0
 10
1.93554
 20
8.70725
 30
0.0
 40
0.003
 41
0.003
  0
VERTEX
  8
0
 10
1.93007
 20
8.70751
 30
0.0
 40
0.003
 41
0.003
  0
VERTEX
  8
0
 10
1.90674
 20
8.70518
 30
0.0
 40
0.003
 41
0.003
  0
VERTEX
  8
0
 10
1.88857
 20
8.69819
 30
0.0
 40
0.003
 41
0.003
  0
VERTEX
  8
0
 10
1.88574
 20
8.69607
 30
0.0
 40
0.003
 41
0.003
  0
VERTEX
  8
0
 10
1.88286
 20
8.69396
 30
0.0
 40
0.003
 41
0.003
  0
VERTEX
  8
0
 10
1.86865
 20
8.67046
 30
0.0
 40
0.003
 41
0.003
  0
VERTEX
  8
0
 10
1.86865
 20
8.6626
 30
0.0
 40
0.003
 41
0.003
  0
VERTEX
  8
0
 10
1.86865
 20
8.65354
 30
0.0
 40
0.003
 41
0.003
  0
VERTEX
  8
0
 10
1.88346
 20
8.62858
 30
0.0
 40
0.003
 41
0.003
  0
VERTEX
  8
0
 10
1.88644
 20
8.62619
 30
0.0
 40
0.003
 41
0.003
  0
VERTEX
  8
0
 10
1.88943
 20
8.62386
 30
0.0
 40
0.003
 41
0.003
  0
VERTEX
  8
0
 10
1.92399
 20
8.61208
 30
0.0
 40
0.003
 41
0.003
  0
VERTEX
  8
0
 10
1.93554
 20
8.61208
 30
0.0
 40
0.003
 41
0.003
  0
SEQEND
 8
0
  0
POLYLINE
  8
0
 62
     250
 66
     1
 10
0
 20
0
 30
0.0
 70
     1
 40
0.216
 41
0.216
  0
VERTEX
  8
0
 10
1.94444
 20
8.73247
 30
0.0
 40
0.003
 41
0.003
  0
VERTEX
  8
0
 10
1.94444
 20
8.61208
 30
0.0
 40
0.003
 41
0.003
  0
VERTEX
  8
0
 10
1.95301
 20
8.61208
 30
0.0
 40
0.003
 41
0.003
  0
VERTEX
  8
0
 10
1.97879
 20
8.616
 30
0.0
 40
0.003
 41
0.003
  0
VERTEX
  8
0
 10
1.99881
 20
8.62511
 30
0.0
 40
0.003
 41
0.003
  0
VERTEX
  8
0
 10
2.00168
 20
8.62771
 30
0.0
 40
0.003
 41
0.003
  0
VERTEX
  8
0
 10
2.0045
 20
8.63032
 30
0.0
 40
0.003
 41
0.003
  0
VERTEX
  8
0
 10
2.01878
 20
8.65901
 30
0.0
 40
0.003
 41
0.003
  0
VERTEX
  8
0
 10
2.01878
 20
8.66857
 30
0.0
 40
0.003
 41
0.003
  0
VERTEX
  8
0
 10
2.01878
 20
8.67676
 30
0.0
 40
0.003
 41
0.003
  0
VERTEX
  8
0
 10
2.00944
 20
8.69906
 30
0.0
 40
0.003
 41
0.003
  0
VERTEX
  8
0
 10
2.0076
 20
8.70128
 30
0.0
 40
0.003
 41
0.003
  0
VERTEX
  8
0
 10
2.00569
 20
8.7035
 30
0.0
 40
0.003
 41
0.003
  0
VERTEX
  8
0
 10
1.98286
 20
8.71962
 30
0.0
 40
0.003
 41
0.003
  0
VERTEX
  8
0
 10
1.98014
 20
8.7206
 30
0.0
 40
0.003
 41
0.003
  0
VERTEX
  8
0
 10
1.98313
 20
8.72803
 30
0.0
 40
0.003
 41
0.003
  0
VERTEX
  8
0
 10
1.98583
 20
8.72732
 30
0.0
 40
0.003
 41
0.003
  0
VERTEX
  8
0
 10
2.01247
 20
8.7105
 30
0.0
 40
0.003
 41
0.003
  0
VERTEX
  8
0
 10
2.01508
 20
8.7079
 30
0.0
 40
0.003
 41
0.003
  0
VERTEX
  8
0
 10
2.01768
 20
8.70535
 30
0.0
 40
0.003
 41
0.003
  0
VERTEX
  8
0
 10
2.03071
 20
8.67557
 30
0.0
 40
0.003
 41
0.003
  0
VERTEX
  8
0
 10
2.03071
 20
8.66558
 30
0.0
 40
0.003
 41
0.003
  0
VERTEX
  8
0
 10
2.03071
 20
8.65782
 30
0.0
 40
0.003
 41
0.003
  0
VERTEX
  8
0
 10
2.02507
 20
8.63456
 30
0.0
 40
0.003
 41
0.003
  0
VERTEX
  8
0
 10
2.01204
 20
8.61344
 30
0.0
 40
0.003
 41
0.003
  0
VERTEX
  8
0
 10
2.00836
 20
8.60981
 30
0.0
 40
0.003
 41
0.003
  0
VERTEX
  8
0
 10
2.00461
 20
8.60622
 30
0.0
 40
0.003
 41
0.003
  0
VERTEX
  8
0
 10
1.98122
 20
8.59369
 30
0.0
 40
0.003
 41
0.003
  0
VERTEX
  8
0
 10
1.95361
 20
8.58832
 30
0.0
 40
0.003
 41
0.003
  0
VERTEX
  8
0
 10
1.94444
 20
8.58832
 30
0.0
 40
0.003
 41
0.003
  0
VERTEX
  8
0
 10
1.93593
 20
8.58832
 30
0.0
 40
0.003
 41
0.003
  0
VERTEX
  8
0
 10
1.91043
 20
8.59369
 30
0.0
 40
0.003
 41
0.003
  0
VERTEX
  8
0
 10
1.88683
 20
8.60622
 30
0.0
 40
0.003
 41
0.003
  0
VERTEX
  8
0
 10
1.88276
 20
8.60981
 30
0.0
 40
0.003
 41
0.003
  0
VERTEX
  8
0
 10
1.87864
 20
8.61344
 30
0.0
 40
0.003
 41
0.003
  0
VERTEX
  8
0
 10
1.86436
 20
8.63379
 30
0.0
 40
0.003
 41
0.003
  0
VERTEX
  8
0
 10
1.85824
 20
8.65543
 30
0.0
 40
0.003
 41
0.003
  0
VERTEX
  8
0
 10
1.85824
 20
8.6626
 30
0.0
 40
0.003
 41
0.003
  0
VERTEX
  8
0
 10
1.85824
 20
8.67486
 30
0.0
 40
0.003
 41
0.003
  0
VERTEX
  8
0
 10
1.87435
 20
8.70817
 30
0.0
 40
0.003
 41
0.003
  0
VERTEX
  8
0
 10
1.87761
 20
8.71164
 30
0.0
 40
0.003
 41
0.003
  0
VERTEX
  8
0
 10
1.88081
 20
8.71517
 30
0.0
 40
0.003
 41
0.003
  0
VERTEX
  8
0
 10
1.90392
 20
8.72732
 30
0.0
 40
0.003
 41
0.003
  0
VERTEX
  8
0
 10
1.93431
 20
8.73247
 30
0.0
 40
0.003
 41
0.003
  0
VERTEX
  8
0
 10
1.94444
 20
8.73247
 30
0.0
 40
0.003
 41
0.003
  0
SEQEND
 8
0
  0
POLYLINE
  8
0
 62
     0
 66
     1
 10
0
 20
0
 30
0.0
 70
     1
 40
0.216
 41
0.216
  0
VERTEX
  8
0
 10
7.76699
 20
6.62799
 30
0.0
 40
0.003
 41
0.003
  0
VERTEX
  8
0
 10
7.37088
 20
6.07351
 30
0.0
 40
0.003
 41
0.003
  0
VERTEX
  8
0
 10
7.05078
 20
5.48753
 30
0.0
 40
0.003
 41
0.003
  0
VERTEX
  8
0
 10
7.05078
 20
5.17671
 30
0.0
 40
0.003
 41
0.003
  0
VERTEX
  8
0
 10
7.05138
 20
5.17671
 30
0.0
 40
0.003
 41
0.003
  0
VERTEX
  8
0
 10
7.05138
 20
5.17649
 30
0.0
 40
0.003
 41
0.003
  0
VERTEX
  8
0
 10
7.2461
 20
5.17649
 30
0.0
 40
0.003
 41
0.003
  0
VERTEX
  8
0
 10
7.2461
 20
5.17671
 30
0.0
 40
0.003
 41
0.003
  0
VERTEX
  8
0
 10
7.28776
 20
5.17671
 30
0.0
 40
0.003
 41
0.003
  0
VERTEX
  8
0
 10
7.28776
 20
5.37619
 30
0.0
 40
0.003
 41
0.003
  0
VERTEX
  8
0
 10
7.55154
 20
5.37619
 30
0.0
 40
0.003
 41
0.003
  0
VERTEX
  8
0
 10
7.55154
 20
5.57292
 30
0.0
 40
0.003
 41
0.003
  0
VERTEX
  8
0
 10
7.46224
 20
5.57292
 30
0.0
 40
0.003
 41
0.003
  0
VERTEX
  8
0
 10
7.46224
 20
5.72965
 30
0.0
 40
0.003
 41
0.003
  0
VERTEX
  8
0
 10
7.55154
 20
5.72965
 30
0.0
 40
0.003
 41
0.003
  0
VERTEX
  8
0
 10
7.55154
 20
5.9241
 30
0.0
 40
0.003
 41
0.003
  0
VERTEX
  8
0
 10
7.72613
 20
5.9241
 30
0.0
 40
0.003
 41
0.003
  0
VERTEX
  8
0
 10
7.72613
 20
5.72965
 30
0.0
 40
0.003
 41
0.003
  0
VERTEX
  8
0
 10
7.81739
 20
5.72965
 30
0.0
 40
0.003
 41
0.003
  0
VERTEX
  8
0
 10
7.81739
 20
5.57292
 30
0.0
 40
0.003
 41
0.003
  0
VERTEX
  8
0
 10
7.72613
 20
5.57292
 30
0.0
 40
0.003
 41
0.003
  0
VERTEX
  8
0
 10
7.72613
 20
5.37619
 30
0.0
 40
0.003
 41
0.003
  0
VERTEX
  8
0
 10
7.99283
 20
5.37619
 30
0.0
 40
0.003
 41
0.003
  0
VERTEX
  8
0
 10
7.99283
 20
5.17686
 30
0.0
 40
0.003
 41
0.003
  0
VERTEX
  8
0
 10
8.03342
 20
5.17686
 30
0.0
 40
0.003
 41
0.003
  0
VERTEX
  8
0
 10
8.03342
 20
5.17681
 30
0.0
 40
0.003
 41
0.003
  0
VERTEX
  8
0
 10
8.23008
 20
5.17681
 30
0.0
 40
0.003
 41
0.003
  0
VERTEX
  8
0
 10
8.23008
 20
5.37489
 30
0.0
 40
0.003
 41
0.003
  0
VERTEX
  8
0
 10
8.22993
 20
5.37489
 30
0.0
 40
0.003
 41
0.003
  0
VERTEX
  8
0
 10
8.22993
 20
5.37619
 30
0.0
 40
0.003
 41
0.003
  0
VERTEX
  8
0
 10
8.23008
 20
5.37619
 30
0.0
 40
0.003
 41
0.003
  0
VERTEX
  8
0
 10
8.23008
 20
5.57178
 30
0.0
 40
0.003
 41
0.003
  0
VERTEX
  8
0
 10
8.22874
 20
5.57178
 30
0.0
 40
0.003
 41
0.003
  0
VERTEX
  8
0
 10
8.0849
 20
6.40104
 30
0.0
 40
0.003
 41
0.003
  0
VERTEX
  8
0
 10
7.76699
 20
6.62799
 30
0.0
 40
0.003
 41
0.003
  0
SEQEND
 8
0
  0
POLYLINE
  8
0
 62
     5
 66
     1
 10
0
 20
0
 30
0.0
 70
     1
 40
0.216
 41
0.216
  0
VERTEX
  8
0
 10
7.92785
 20
6.26417
 30
0.0
 40
0.003
 41
0.003
  0
VERTEX
  8
0
 10
7.96386
 20
6.23807
 30
0.0
 40
0.003
 41
0.003
  0
VERTEX
  8
0
 10
7.84636
 20
6.0759
 30
0.0
 40
0.003
 41
0.003
  0
VERTEX
  8
0
 10
7.81033
 20
6.102
 30
0.0
 40
0.003
 41
0.003
  0
VERTEX
  8
0
 10
7.92785
 20
6.26417
 30
0.0
 40
0.003
 41
0.003
  0
SEQEND
 8
0
  0
POLYLINE
  8
0
 62
     5
 66
     1
 10
0
 20
0
 30
0.0
 70
     1
 40
0.216
 41
0.216
  0
VERTEX
  8
0
 10
0.488553
 20
7.59511
 30
0.0
 40
0.003
 41
0.003
  0
VERTEX
  8
0
 10
0.494467
 20
7.60107
 30
0.0
 40
0.003
 41
0.003
  0
VERTEX
  8
0
 10
0.517199
 20
7.61415
 30
0.0
 40
0.003
 41
0.003
  0
VERTEX
  8
0
 10
0.549804
 20
7.6205
 30
0.0
 40
0.003
 41
0.003
  0
VERTEX
  8
0
 10
0.582357
 20
7.61415
 30
0.0
 40
0.003
 41
0.003
  0
VERTEX
  8
0
 10
0.605089
 20
7.60107
 30
0.0
 40
0.003
 41
0.003
  0
VERTEX
  8
0
 10
0.611057
 20
7.59511
 30
0.0
 40
0.003
 41
0.003
  0
VERTEX
  8
0
 10
0.616971
 20
7.58919
 30
0.0
 40
0.003
 41
0.003
  0
VERTEX
  8
0
 10
0.630046
 20
7.56651
 30
0.0
 40
0.003
 41
0.003
  0
VERTEX
  8
0
 10
0.636393
 20
7.5339
 30
0.0
 40
0.003
 41
0.003
  0
VERTEX
  8
0
 10
0.630046
 20
7.50131
 30
0.0
 40
0.003
 41
0.003
  0
VERTEX
  8
0
 10
0.616971
 20
7.47863
 30
0.0
 40
0.003
 41
0.003
  0
VERTEX
  8
0
 10
0.611057
 20
7.47265
 30
0.0
 40
0.003
 41
0.003
  0
VERTEX
  8
0
 10
0.605089
 20
7.46669
 30
0.0
 40
0.003
 41
0.003
  0
VERTEX
  8
0
 10
0.582357
 20
7.45361
 30
0.0
 40
0.003
 41
0.003
  0
VERTEX
  8
0
 10
0.549804
 20
7.44726
 30
0.0
 40
0.003
 41
0.003
  0
VERTEX
  8
0
 10
0.517199
 20
7.45361
 30
0.0
 40
0.003
 41
0.003
  0
VERTEX
  8
0
 10
0.494467
 20
7.46674
 30
0.0
 40
0.003
 41
0.003
  0
VERTEX
  8
0
 10
0.488553
 20
7.47265
 30
0.0
 40
0.003
 41
0.003
  0
VERTEX
  8
0
 10
0.482585
 20
7.47863
 30
0.0
 40
0.003
 41
0.003
  0
VERTEX
  8
0
 10
0.46951
 20
7.50131
 30
0.0
 40
0.003
 41
0.003
  0
VERTEX
  8
0
 10
0.463162
 20
7.5339
 30
0.0
 40
0.003
 41
0.003
  0
VERTEX
  8
0
 10
0.46951
 20
7.56651
 30
0.0
 40
0.003
 41
0.003
  0
VERTEX
  8
0
 10
0.482585
 20
7.58919
 30
0.0
 40
0.003
 41
0.003
  0
VERTEX
  8
0
 10
0.488553
 20
7.59511
 30
0.0
 40
0.003
 41
0.003
  0
SEQEND
 8
0
  0
POLYLINE
  8
0
 62
     5
 66
     1
 10
0
 20
0
 30
0.0
 70
     1
 40
0.216
 41
0.216
  0
VERTEX
  8
0
 10
0.903429
 20
7.65132
 30
0.0
 40
0.003
 41
0.003
  0
VERTEX
  8
0
 10
1.14339
 20
7.65132
 30
0.0
 40
0.003
 41
0.003
  0
VERTEX
  8
0
 10
1.14339
 20
7.41639
 30
0.0
 40
0.003
 41
0.003
  0
VERTEX
  8
0
 10
0.903429
 20
7.41639
 30
0.0
 40
0.003
 41
0.003
  0
VERTEX
  8
0
 10
0.903429
 20
7.65132
 30
0.0
 40
0.003
 41
0.003
  0
SEQEND
 8
0
  0
POLYLINE
  8
0
 62
     5
 66
     1
 10
0
 20
0
 30
0.0
 70
     1
 40
0.216
 41
0.216
  0
VERTEX
  8
0
 10
-0.040039
 20
7.65132
 30
0.0
 40
0.003
 41
0.003
  0
VERTEX
  8
0
 10
0.199924
 20
7.65132
 30
0.0
 40
0.003
 41
0.003
  0
VERTEX
  8
0
 10
0.199924
 20
7.41639
 30
0.0
 40
0.003
 41
0.003
  0
VERTEX
  8
0
 10
-0.040039
 20
7.41639
 30
0.0
 40
0.003
 41
0.003
  0
VERTEX
  8
0
 10
-0.040039
 20
7.65132
 30
0.0
 40
0.003
 41
0.003
  0
SEQEND
 8
0
  0
POLYLINE
  8
0
 62
     5
 66
     1
 10
0
 20
0
 30
0.0
 70
     1
 40
0.216
 41
0.216
  0
VERTEX
  8
0
 10
0.488553
 20
8.73389
 30
0.0
 40
0.003
 41
0.003
  0
VERTEX
  8
0
 10
0.494467
 20
8.73986
 30
0.0
 40
0.003
 41
0.003
  0
VERTEX
  8
0
 10
0.517199
 20
8.75293
 30
0.0
 40
0.003
 41
0.003
  0
VERTEX
  8
0
 10
0.549804
 20
8.75928
 30
0.0
 40
0.003
 41
0.003
  0
VERTEX
  8
0
 10
0.582411
 20
8.75293
 30
0.0
 40
0.003
 41
0.003
  0
VERTEX
  8
0
 10
0.605089
 20
8.73986
 30
0.0
 40
0.003
 41
0.003
  0
VERTEX
  8
0
 10
0.611057
 20
8.73389
 30
0.0
 40
0.003
 41
0.003
  0
VERTEX
  8
0
 10
0.616971
 20
8.72797
 30
0.0
 40
0.003
 41
0.003
  0
VERTEX
  8
0
 10
0.6301
 20
8.70529
 30
0.0
 40
0.003
 41
0.003
  0
VERTEX
  8
0
 10
0.636447
 20
8.67269
 30
0.0
 40
0.003
 41
0.003
  0
VERTEX
  8
0
 10
0.6301
 20
8.64008
 30
0.0
 40
0.003
 41
0.003
  0
VERTEX
  8
0
 10
0.616971
 20
8.6174
 30
0.0
 40
0.003
 41
0.003
  0
VERTEX
  8
0
 10
0.611057
 20
8.61143
 30
0.0
 40
0.003
 41
0.003
  0
VERTEX
  8
0
 10
0.605089
 20
8.60553
 30
0.0
 40
0.003
 41
0.003
  0
VERTEX
  8
0
 10
0.582411
 20
8.59239
 30
0.0
 40
0.003
 41
0.003
  0
VERTEX
  8
0
 10
0.549804
 20
8.58604
 30
0.0
 40
0.003
 41
0.003
  0
VERTEX
  8
0
 10
0.517199
 20
8.59239
 30
0.0
 40
0.003
 41
0.003
  0
VERTEX
  8
0
 10
0.494467
 20
8.60553
 30
0.0
 40
0.003
 41
0.003
  0
VERTEX
  8
0
 10
0.488553
 20
8.61143
 30
0.0
 40
0.003
 41
0.003
  0
VERTEX
  8
0
 10
0.482585
 20
8.6174
 30
0.0
 40
0.003
 41
0.003
  0
VERTEX
  8
0
 10
0.46951
 20
8.64008
 30
0.0
 40
0.003
 41
0.003
  0
VERTEX
  8
0
 10
0.463162
 20
8.67269
 30
0.0
 40
0.003
 41
0.003
  0
VERTEX
  8
0
 10
0.46951
 20
8.70529
 30
0.0
 40
0.003
 41
0.003
  0
VERTEX
  8
0
 10
0.482585
 20
8.72797
 30
0.0
 40
0.003
 41
0.003
  0
VERTEX
  8
0
 10
0.488553
 20
8.73389
 30
0.0
 40
0.003
 41
0.003
  0
SEQEND
 8
0
  0
POLYLINE
  8
0
 62
     5
 66
     1
 10
0
 20
0
 30
0.0
 70
     1
 40
0.216
 41
0.216
  0
VERTEX
  8
0
 10
0.903483
 20
8.79015
 30
0.0
 40
0.003
 41
0.003
  0
VERTEX
  8
0
 10
1.14339
 20
8.79015
 30
0.0
 40
0.003
 41
0.003
  0
VERTEX
  8
0
 10
1.14339
 20
8.55518
 30
0.0
 40
0.003
 41
0.003
  0
VERTEX
  8
0
 10
0.903483
 20
8.55518
 30
0.0
 40
0.003
 41
0.003
  0
VERTEX
  8
0
 10
0.903483
 20
8.79015
 30
0.0
 40
0.003
 41
0.003
  0
SEQEND
 8
0
  0
POLYLINE
  8
0
 62
     5
 66
     1
 10
0
 20
0
 30
0.0
 70
     1
 40
0.216
 41
0.216
  0
VERTEX
  8
0
 10
-0.0399849
 20
8.79015
 30
0.0
 40
0.003
 41
0.003
  0
VERTEX
  8
0
 10
0.199924
 20
8.79015
 30
0.0
 40
0.003
 41
0.003
  0
VERTEX
  8
0
 10
0.199924
 20
8.55518
 30
0.0
 40
0.003
 41
0.003
  0
VERTEX
  8
0
 10
-0.0399849
 20
8.55518
 30
0.0
 40
0.003
 41
0.003
  0
VERTEX
  8
0
 10
-0.0399849
 20
8.79015
 30
0.0
 40
0.003
 41
0.003
  0
SEQEND
 8
0
  0
POLYLINE
  8
0
 62
     0
 66
     1
 10
0
 20
0
 30
0.0
 70
     1
 40
0.216
 41
0.216
  0
VERTEX
  8
0
 10
8.83892
 20
6.6211
 30
0.0
 40
0.003
 41
0.003
  0
VERTEX
  8
0
 10
9.23503
 20
6.06663
 30
0.0
 40
0.003
 41
0.003
  0
VERTEX
  8
0
 10
9.55512
 20
5.48063
 30
0.0
 40
0.003
 41
0.003
  0
VERTEX
  8
0
 10
9.55512
 20
5.16976
 30
0.0
 40
0.003
 41
0.003
  0
VERTEX
  8
0
 10
9.55447
 20
5.16976
 30
0.0
 40
0.003
 41
0.003
  0
VERTEX
  8
0
 10
9.55447
 20
5.16954
 30
0.0
 40
0.003
 41
0.003
  0
VERTEX
  8
0
 10
9.35981
 20
5.16954
 30
0.0
 40
0.003
 41
0.003
  0
VERTEX
  8
0
 10
9.35981
 20
5.16976
 30
0.0
 40
0.003
 41
0.003
  0
VERTEX
  8
0
 10
9.31814
 20
5.16976
 30
0.0
 40
0.003
 41
0.003
  0
VERTEX
  8
0
 10
9.31814
 20
5.36925
 30
0.0
 40
0.003
 41
0.003
  0
VERTEX
  8
0
 10
9.05436
 20
5.36925
 30
0.0
 40
0.003
 41
0.003
  0
VERTEX
  8
0
 10
9.05436
 20
5.56597
 30
0.0
 40
0.003
 41
0.003
  0
VERTEX
  8
0
 10
9.14367
 20
5.56597
 30
0.0
 40
0.003
 41
0.003
  0
VERTEX
  8
0
 10
9.14367
 20
5.72276
 30
0.0
 40
0.003
 41
0.003
  0
VERTEX
  8
0
 10
9.05436
 20
5.72276
 30
0.0
 40
0.003
 41
0.003
  0
VERTEX
  8
0
 10
9.05436
 20
5.91721
 30
0.0
 40
0.003
 41
0.003
  0
VERTEX
  8
0
 10
8.87978
 20
5.91721
 30
0.0
 40
0.003
 41
0.003
  0
VERTEX
  8
0
 10
8.87978
 20
5.72276
 30
0.0
 40
0.003
 41
0.003
  0
VERTEX
  8
0
 10
8.78851
 20
5.72276
 30
0.0
 40
0.003
 41
0.003
  0
VERTEX
  8
0
 10
8.78851
 20
5.56597
 30
0.0
 40
0.003
 41
0.003
  0
VERTEX
  8
0
 10
8.87978
 20
5.56597
 30
0.0
 40
0.003
 41
0.003
  0
VERTEX
  8
0
 10
8.87978
 20
5.36925
 30
0.0
 40
0.003
 41
0.003
  0
VERTEX
  8
0
 10
8.61307
 20
5.36925
 30
0.0
 40
0.003
 41
0.003
  0
VERTEX
  8
0
 10
8.61307
 20
5.16992
 30
0.0
 40
0.003
 41
0.003
  0
VERTEX
  8
0
 10
8.37576
 20
5.16992
 30
0.0
 40
0.003
 41
0.003
  0
VERTEX
  8
0
 10
8.37576
 20
5.36794
 30
0.0
 40
0.003
 41
0.003
  0
VERTEX
  8
0
 10
8.37592
 20
5.36794
 30
0.0
 40
0.003
 41
0.003
  0
VERTEX
  8
0
 10
8.37592
 20
5.36925
 30
0.0
 40
0.003
 41
0.003
  0
VERTEX
  8
0
 10
8.37576
 20
5.36925
 30
0.0
 40
0.003
 41
0.003
  0
VERTEX
  8
0
 10
8.37576
 20
5.56483
 30
0.0
 40
0.003
 41
0.003
  0
VERTEX
  8
0
 10
8.37711
 20
5.56483
 30
0.0
 40
0.003
 41
0.003
  0
VERTEX
  8
0
 10
8.52094
 20
6.39415
 30
0.0
 40
0.003
 41
0.003
  0
VERTEX
  8
0
 10
8.83892
 20
6.6211
 30
0.0
 40
0.003
 41
0.003
  0
SEQEND
 8
0
  0
ENDSEC
  0
EOF
