<?xml version="1.0" encoding="UTF-8"?>
<!DOCTYPE svg PUBLIC "-//W3C//DTD SVG 1.1//EN" "http://www.w3.org/Graphics/SVG/1.1/DTD/svg11.dtd">
<!-- Creator: CorelDRAW -->
<svg xmlns="http://www.w3.org/2000/svg" xml:space="preserve" width="8.5in" height="11in" style="shape-rendering:geometricPrecision; text-rendering:geometricPrecision; image-rendering:optimizeQuality; fill-rule:evenodd; clip-rule:evenodd"
viewBox="0 0 8.5 11"
 xmlns:xlink="http://www.w3.org/1999/xlink">
 <defs>
  <style type="text/css">
   <![CDATA[
    .str1 {stroke:#1F1A17;stroke-width:0.003}
    .str0 {stroke:black;stroke-width:0.003;stroke-linejoin:bevel}
    .str2 {stroke:black;stroke-width:0.003}
    .str3 {stroke:blue;stroke-width:0.003}
    .str4 {stroke:blue;stroke-width:0.003;stroke-linecap:round;stroke-linejoin:round}
    .fil0 {fill:none}
    .fil1 {fill:none;fill-rule:nonzero}
   ]]>
  </style>
 </defs>
 <g id="_0">
  <metadata id="CorelCorpID_0Corel-Layer"/>
  <line class="fil0 str0" x1="-5.62144" y1="2.09433" x2="-5.62144" y2= "6.22819" />
  <line class="fil0 str0" x1="-5.24987" y1="3.18691" x2="-5.07309" y2= "3.01013" />
  <line class="fil0 str0" x1="-4.59148" y1="2.52852" x2="-4.4147" y2= "2.35174" />
  <line class="fil0 str0" x1="-5.07309" y1="3.36368" x2="-4.89631" y2= "3.18691" />
  <line class="fil0 str0" x1="-4.4147" y1="2.70529" x2="-4.23792" y2= "2.52852" />
  <line class="fil0 str0" x1="-4.4147" y1="5.97079" x2="-4.59148" y2= "5.79401" />
  <line class="fil0 str0" x1="-5.07309" y1="5.3124" x2="-5.24987" y2= "5.13563" />
  <line class="fil0 str0" x1="-4.23792" y1="5.79401" x2="-4.4147" y2= "5.61724" />
  <line class="fil0 str0" x1="-4.89631" y1="5.13563" x2="-5.07309" y2= "4.95885" />
  <line class="fil0 str0" x1="-5.07309" y1="4.95885" x2="-5.24987" y2= "5.13563" />
  <line class="fil0 str0" x1="-2.64276" y1="2.52852" x2="-2.46598" y2= "2.35174" />
  <line class="fil0 str0" x1="-2.2892" y1="2.52852" x2="-2.46598" y2= "2.70529" />
  <line class="fil0 str0" x1="-4.89631" y1="5.13563" x2="-5.07309" y2= "5.3124" />
  <line class="fil0 str0" x1="-4.59148" y1="5.79401" x2="-4.4147" y2= "5.61724" />
  <line class="fil0 str0" x1="-1.98437" y1="3.18691" x2="-1.80759" y2= "3.01013" />
  <line class="fil0 str0" x1="-4.23792" y1="5.79401" x2="-4.4147" y2= "5.97079" />
  <line class="fil0 str0" x1="-1.80759" y1="3.36368" x2="-1.63081" y2= "3.18691" />
  <line class="fil0 str0" x1="4.09903" y1="8.05148" x2="4.19746" y2= "8.05148" />
  <line class="fil0 str0" x1="4.78801" y1="8.05148" x2="4.88643" y2= "8.05148" />
  <line class="fil0 str0" x1="4.78801" y1="7.80148" x2="4.57935" y2= "7.80148" />
  <line class="fil0 str0" x1="4.40612" y1="7.80148" x2="4.19746" y2= "7.80148" />
  <line class="fil0 str0" x1="-2.64276" y1="5.79401" x2="-2.46598" y2= "5.97079" />
  <line class="fil0 str0" x1="-5.07309" y1="3.36368" x2="-5.24987" y2= "3.18691" />
  <line class="fil0 str0" x1="-5.07309" y1="3.01013" x2="-4.89631" y2= "3.18691" />
  <line class="fil0 str0" x1="-2.46598" y1="5.61724" x2="-2.2892" y2= "5.79401" />
  <line class="fil0 str0" x1="4.31557" y1="7.60463" x2="4.40612" y2= "7.60463" />
  <line class="fil0 str0" x1="4.57935" y1="7.60463" x2="4.6699" y2= "7.60463" />
  <line class="fil0 str0" x1="4.31557" y1="7.44715" x2="4.40612" y2= "7.44715" />
  <line class="fil0 str0" x1="4.57935" y1="7.44715" x2="4.6699" y2= "7.44715" />
  <line class="fil0 str0" x1="-1.80759" y1="4.95885" x2="-1.98437" y2= "5.13563" />
  <line class="fil0 str0" x1="-2.46598" y1="5.61724" x2="-2.64276" y2= "5.79401" />
  <line class="fil0 str0" x1="4.40612" y1="7.26211" x2="4.57935" y2= "7.26211" />
  <line class="fil0 str0" x1="-1.80759" y1="5.3124" x2="-1.98437" y2= "5.13563" />
  <line class="fil0 str0" x1="-4.4147" y1="2.70529" x2="-4.59148" y2= "2.52852" />
  <line class="fil0 str0" x1="-1.80759" y1="4.95885" x2="-1.63081" y2= "5.13563" />
  <line class="fil0 str0" x1="-4.23792" y1="2.52852" x2="-4.4147" y2= "2.35174" />
  <line class="fil0 str0" x1="-1.63081" y1="5.13563" x2="-1.80759" y2= "5.3124" />
  <line class="fil0 str0" x1="-2.2892" y1="5.79401" x2="-2.46598" y2= "5.97079" />
  <line class="fil0 str0" x1="-5.22774" y1="6.62189" x2="1.85887" y2= "6.62189" />
  <path class="fil0 str0" d="M6.46123 6.37826l0 0m0 0l-0.25 0"/>
  <line class="fil0 str0" x1="2.52423" y1="6.37826" x2="2.77423" y2= "6.37826" />
  <line class="fil0 str0" x1="6.01439" y1="6.26015" x2="5.85691" y2= "6.26015" />
  <line class="fil0 str0" x1="2.97108" y1="6.26015" x2="3.12856" y2= "6.26015" />
  <path class="fil0 str0" d="M6.21123 6.16959l0 0m0 0l-0.196846 0"/>
  <line class="fil0 str0" x1="5.85691" y1="6.16959" x2="5.67187" y2= "6.16959" />
  <line class="fil0 str0" x1="2.77423" y1="6.16959" x2="2.97108" y2= "6.16959" />
  <line class="fil0 str0" x1="3.12856" y1="6.16959" x2="3.3136" y2= "6.16959" />
  <path class="fil0 str0" d="M6.21123 5.99637l0 0m0 0l-0.196846 0"/>
  <line class="fil0 str0" x1="5.85691" y1="5.99637" x2="5.67187" y2= "5.99637" />
  <line class="fil0 str0" x1="2.77423" y1="5.99637" x2="2.97108" y2= "5.99637" />
  <line class="fil0 str0" x1="3.12856" y1="5.99637" x2="3.3136" y2= "5.99637" />
  <line class="fil0 str0" x1="6.01439" y1="5.90581" x2="5.85691" y2= "5.90581" />
  <line class="fil0 str0" x1="2.97108" y1="5.90581" x2="3.12856" y2= "5.90581" />
  <line class="fil0 str0" x1="-2.64276" y1="2.52852" x2="-2.46598" y2= "2.70529" />
  <line class="fil0 str0" x1="-1.98437" y1="3.18691" x2="-1.80759" y2= "3.36368" />
  <path class="fil0 str0" d="M6.46123 5.7877l0 0m0 0l-0.25 0"/>
  <line class="fil0 str0" x1="2.52423" y1="5.7877" x2="2.77423" y2= "5.7877" />
  <line class="fil0 str0" x1="-2.46598" y1="2.35174" x2="-2.2892" y2= "2.52852" />
  <line class="fil0 str0" x1="-1.80759" y1="3.01013" x2="-1.63081" y2= "3.18691" />
  <line class="fil0 str0" x1="4.57935" y1="4.90385" x2="4.40612" y2= "4.90385" />
  <line class="fil0 str0" x1="4.6699" y1="4.71881" x2="4.57935" y2= "4.71881" />
  <line class="fil0 str0" x1="4.40612" y1="4.71881" x2="4.31557" y2= "4.71881" />
  <line class="fil0 str0" x1="4.6699" y1="4.56133" x2="4.57935" y2= "4.56133" />
  <line class="fil0 str0" x1="4.40612" y1="4.56133" x2="4.31557" y2= "4.56133" />
  <line class="fil0 str0" x1="4.19746" y1="4.36448" x2="4.40612" y2= "4.36448" />
  <line class="fil0 str0" x1="4.57935" y1="4.36448" x2="4.78801" y2= "4.36448" />
  <line class="fil0 str0" x1="2.57147" y1="2.85432" x2="2.37462" y2= "3.44487" />
  <line class="fil0 str0" x1="4.88643" y1="4.11448" x2="4.78801" y2= "4.11448" />
  <line class="fil0 str0" x1="4.19746" y1="4.11448" x2="4.09903" y2= "4.11448" />
  <line class="fil0 str0" x1="3.85244" y1="6.38921" x2="4.1865" y2= "6.72328" />
  <line class="fil0 str0" x1="2.25257" y1="6.22819" x2="2.25257" y2= "2.09433" />
  <line class="fil0 str0" x1="2.37462" y1="3.44487" x2="2.37462" y2= "3.69487" />
  <line class="fil0 str0" x1="2.52423" y1="5.68928" x2="2.52423" y2= "5.7877" />
  <line class="fil0 str0" x1="2.52423" y1="6.37826" x2="2.52423" y2= "6.47668" />
  <line class="fil0 str0" x1="2.57147" y1="2.45412" x2="2.57147" y2= "2.85432" />
  <path class="fil0 str0" d="M7.68958 3.69487l0 0m0 0l-0.25 0"/>
  <path class="fil0 str0" d="M6.75848 3.69487l0 0m0 0l-0.25 0"/>
  <path class="fil0 str0" d="M6.31163 3.69487l0 0m0 0l-0.249996 0"/>
  <line class="fil0 str0" x1="5.38053" y1="3.69487" x2="5.13053" y2= "3.69487" />
  <line class="fil0 str0" x1="4.93368" y1="3.69487" x2="4.68368" y2= "3.69487" />
  <line class="fil0 str0" x1="4.00257" y1="3.69487" x2="3.75257" y2= "3.69487" />
  <line class="fil0 str0" x1="3.55572" y1="3.69487" x2="3.30572" y2= "3.69487" />
  <line class="fil0 str0" x1="2.62462" y1="3.69487" x2="2.37462" y2= "3.69487" />
  <line class="fil0 str0" x1="2.62462" y1="3.44487" x2="2.87856" y2= "3.44487" />
  <line class="fil0 str0" x1="3.05179" y1="3.44487" x2="3.30572" y2= "3.44487" />
  <line class="fil0 str0" x1="4.00257" y1="3.44487" x2="4.25651" y2= "3.44487" />
  <line class="fil0 str0" x1="4.42974" y1="3.44487" x2="4.68368" y2= "3.44487" />
  <line class="fil0 str0" x1="5.38053" y1="3.44487" x2="5.63446" y2= "3.44487" />
  <line class="fil0 str0" x1="5.80769" y1="3.44487" x2="6.06163" y2= "3.44487" />
  <path class="fil0 str0" d="M7.01241 3.44487l0 0m-0.253937 0l0.253937 0"/>
  <path class="fil0 str0" d="M7.43958 3.44487l0 0m-0.253937 0l0.253937 0"/>
  <line class="fil0 str0" x1="3.43485" y1="5.3035" x2="3.79676" y2= "5.6654" />
  <line class="fil0 str0" x1="2.62462" y1="3.44487" x2="2.62462" y2= "3.69487" />
  <line class="fil0 str0" x1="2.6699" y1="2.20412" x2="2.6699" y2= "2.45412" />
  <line class="fil0 str0" x1="2.77423" y1="6.37826" x2="2.77423" y2= "6.16959" />
  <line class="fil0 str0" x1="2.77423" y1="5.99637" x2="2.77423" y2= "5.7877" />
  <line class="fil0 str0" x1="2.78801" y1="3.24802" x2="2.78801" y2= "3.09054" />
  <line class="fil0 str0" x1="2.87856" y1="3.44487" x2="2.87856" y2= "3.24802" />
  <line class="fil0 str0" x1="2.87856" y1="3.09054" x2="2.87856" y2= "2.9055" />
  <line class="fil0 str0" x1="2.97108" y1="5.90581" x2="2.97108" y2= "5.99637" />
  <line class="fil0 str0" x1="2.97108" y1="6.16959" x2="2.97108" y2= "6.26015" />
  <line class="fil0 str0" x1="3.05179" y1="3.44487" x2="3.05179" y2= "3.24802" />
  <line class="fil0 str0" x1="3.05179" y1="3.09054" x2="3.05179" y2= "2.9055" />
  <line class="fil0 str0" x1="3.71324" y1="5.02511" x2="3.43485" y2= "5.3035" />
  <line class="fil0 str0" x1="2.78801" y1="3.24802" x2="2.87856" y2= "3.24802" />
  <line class="fil0 str0" x1="3.05179" y1="3.24802" x2="3.14234" y2= "3.24802" />
  <line class="fil0 str0" x1="4.16596" y1="3.24802" x2="4.25651" y2= "3.24802" />
  <line class="fil0 str0" x1="4.42974" y1="3.24802" x2="4.52029" y2= "3.24802" />
  <line class="fil0 str0" x1="5.54391" y1="3.24802" x2="5.63446" y2= "3.24802" />
  <line class="fil0 str0" x1="5.80769" y1="3.24802" x2="5.89824" y2= "3.24802" />
  <path class="fil0 str0" d="M7.01241 3.24802l0 0m-0.0905512 0l0.0905512 0"/>
  <path class="fil0 str0" d="M7.27619 3.24802l0 0m-0.0905512 0l0.0905512 0"/>
  <line class="fil0 str0" x1="2.78801" y1="3.09054" x2="2.87856" y2= "3.09054" />
  <line class="fil0 str0" x1="3.05179" y1="3.09054" x2="3.14234" y2= "3.09054" />
  <line class="fil0 str0" x1="4.16596" y1="3.09054" x2="4.25651" y2= "3.09054" />
  <line class="fil0 str0" x1="4.42974" y1="3.09054" x2="4.52029" y2= "3.09054" />
  <line class="fil0 str0" x1="5.54391" y1="3.09054" x2="5.63446" y2= "3.09054" />
  <line class="fil0 str0" x1="5.80769" y1="3.09054" x2="5.89824" y2= "3.09054" />
  <path class="fil0 str0" d="M7.01241 3.09054l0 0m-0.0905512 0l0.0905512 0"/>
  <path class="fil0 str0" d="M7.27619 3.09054l0 0m-0.0905512 0l0.0905512 0"/>
  <line class="fil0 str0" x1="2.87856" y1="2.9055" x2="3.05179" y2= "2.9055" />
  <line class="fil0 str0" x1="4.25651" y1="2.9055" x2="4.42974" y2= "2.9055" />
  <line class="fil0 str0" x1="5.63446" y1="2.9055" x2="5.80769" y2= "2.9055" />
  <path class="fil0 str0" d="M7.18564 2.9055l0 0m-0.173228 0l0.173228 0"/>
  <line class="fil0 str0" x1="4.07515" y1="5.38701" x2="3.71324" y2= "5.02511" />
  <line class="fil0 str0" x1="4.8268" y1="6.08298" x2="4.49273" y2= "5.74892" />
  <line class="fil0 str0" x1="3.12856" y1="5.90581" x2="3.12856" y2= "5.99637" />
  <line class="fil0 str0" x1="3.12856" y1="6.16959" x2="3.12856" y2= "6.26015" />
  <line class="fil0 str0" x1="3.14234" y1="3.24802" x2="3.14234" y2= "3.09054" />
  <line class="fil0 str0" x1="3.26045" y1="2.45412" x2="3.26045" y2= "2.20412" />
  <line class="fil0 str0" x1="3.30572" y1="3.44487" x2="3.30572" y2= "3.69487" />
  <line class="fil0 str0" x1="3.3136" y1="5.99637" x2="3.3136" y2= "6.16959" />
  <line class="fil0 str0" x1="3.35887" y1="2.85432" x2="3.35887" y2= "2.45412" />
  <line class="fil0 str0" x1="3.55572" y1="3.44487" x2="3.55572" y2= "3.69487" />
  <line class="fil0 str0" x1="3.94943" y1="2.85432" x2="3.75257" y2= "3.44487" />
  <line class="fil0 str0" x1="3.79676" y1="5.6654" x2="4.07515" y2= "5.38701" />
  <line class="fil0 str0" x1="2.57147" y1="2.45412" x2="2.6699" y2= "2.45412" />
  <line class="fil0 str0" x1="3.26045" y1="2.45412" x2="3.35887" y2= "2.45412" />
  <line class="fil0 str0" x1="3.94943" y1="2.45412" x2="4.04785" y2= "2.45412" />
  <line class="fil0 str0" x1="4.6384" y1="2.45412" x2="4.73683" y2= "2.45412" />
  <line class="fil0 str0" x1="5.32738" y1="2.45412" x2="5.4258" y2= "2.45412" />
  <line class="fil0 str0" x1="6.01635" y1="2.45412" x2="6.11478" y2= "2.45412" />
  <path class="fil0 str0" d="M6.80375 2.45412l0 0m-0.0984252 0l0.0984252 0"/>
  <path class="fil0 str0" d="M7.49273 2.45412l0 0m-0.0984252 0l0.0984252 0"/>
  <line class="fil0 str0" x1="3.75257" y1="3.44487" x2="3.75257" y2= "3.69487" />
  <line class="fil0 str0" x1="3.94943" y1="2.45412" x2="3.94943" y2= "2.85432" />
  <line class="fil0 str0" x1="4.00257" y1="3.44487" x2="4.00257" y2= "3.69487" />
  <line class="fil0 str0" x1="4.04785" y1="2.20412" x2="4.04785" y2= "2.45412" />
  <line class="fil0 str0" x1="2.57955" y1="2.20412" x2="2.6699" y2= "2.20412" />
  <line class="fil0 str0" x1="3.26045" y1="2.20412" x2="3.3508" y2= "2.20412" />
  <line class="fil0 str0" x1="3.9575" y1="2.20412" x2="4.04785" y2= "2.20412" />
  <line class="fil0 str0" x1="4.6384" y1="2.20412" x2="4.72875" y2= "2.20412" />
  <line class="fil0 str0" x1="5.33545" y1="2.20412" x2="5.4258" y2= "2.20412" />
  <line class="fil0 str0" x1="6.01635" y1="2.20412" x2="6.1067" y2= "2.20412" />
  <path class="fil0 str0" d="M6.80375 2.20412l0 0m-0.0903504 0l0.0903504 0"/>
  <path class="fil0 str0" d="M7.48465 2.20412l0 0m-0.0903465 0l0.0903465 0"/>
  <path class="fil0 str0" d="M7.25651 1.92263l0 0m0 0l-0.314961 0"/>
  <line class="fil0 str0" x1="5.87856" y1="1.92263" x2="5.5636" y2= "1.92263" />
  <line class="fil0 str0" x1="4.50061" y1="1.92263" x2="4.18565" y2= "1.92263" />
  <line class="fil0 str0" x1="3.12265" y1="1.92263" x2="2.80769" y2= "1.92263" />
  <line class="fil0 str0" x1="3.55572" y1="3.44487" x2="3.35887" y2= "2.85432" />
  <line class="fil0 str0" x1="4.16596" y1="3.24802" x2="4.16596" y2= "3.09054" />
  <line class="fil0 str0" x1="4.19746" y1="4.11448" x2="4.19746" y2= "4.36448" />
  <line class="fil0 str0" x1="4.19746" y1="8.05148" x2="4.19746" y2= "7.80148" />
  <line class="fil0 str0" x1="4.25651" y1="3.44487" x2="4.25651" y2= "3.24802" />
  <line class="fil0 str0" x1="4.25651" y1="3.09054" x2="4.25651" y2= "2.9055" />
  <line class="fil0 str0" x1="4.31557" y1="4.56133" x2="4.31557" y2= "4.71881" />
  <line class="fil0 str0" x1="4.31557" y1="7.60463" x2="4.31557" y2= "7.44715" />
  <line class="fil0 str0" x1="4.40612" y1="4.36448" x2="4.40612" y2= "4.56133" />
  <line class="fil0 str0" x1="4.40612" y1="4.71881" x2="4.40612" y2= "4.90385" />
  <line class="fil0 str0" x1="4.40612" y1="7.80148" x2="4.40612" y2= "7.60463" />
  <line class="fil0 str0" x1="4.40612" y1="7.44715" x2="4.40612" y2= "7.26211" />
  <line class="fil0 str0" x1="4.42974" y1="3.44487" x2="4.42974" y2= "3.24802" />
  <line class="fil0 str0" x1="4.42974" y1="3.09054" x2="4.42974" y2= "2.9055" />
  <line class="fil0 str0" x1="4.52029" y1="3.24802" x2="4.52029" y2= "3.09054" />
  <line class="fil0 str0" x1="5.32738" y1="2.85432" x2="5.13053" y2= "3.44487" />
  <line class="fil0 str0" x1="4.49273" y1="5.74892" x2="3.85244" y2= "6.38921" />
  <line class="fil0 str0" x1="1.85887" y1="1.70063" x2="-5.22774" y2= "1.70063" />
  <line class="fil0 str0" x1="4.57935" y1="4.36448" x2="4.57935" y2= "4.56133" />
  <line class="fil0 str0" x1="4.57935" y1="4.71881" x2="4.57935" y2= "4.90385" />
  <line class="fil0 str0" x1="4.57935" y1="7.80148" x2="4.57935" y2= "7.60463" />
  <line class="fil0 str0" x1="4.57935" y1="7.44715" x2="4.57935" y2= "7.26211" />
  <line class="fil0 str0" x1="4.6384" y1="2.45412" x2="4.6384" y2= "2.20412" />
  <line class="fil0 str0" x1="4.6699" y1="4.56133" x2="4.6699" y2= "4.71881" />
  <line class="fil0 str0" x1="4.6699" y1="7.60463" x2="4.6699" y2= "7.44715" />
  <line class="fil0 str0" x1="4.68368" y1="3.44487" x2="4.68368" y2= "3.69487" />
  <line class="fil0 str0" x1="4.73683" y1="2.85432" x2="4.73683" y2= "2.45412" />
  <line class="fil0 str0" x1="4.78801" y1="4.11448" x2="4.78801" y2= "4.36448" />
  <line class="fil0 str0" x1="4.78801" y1="8.05148" x2="4.78801" y2= "7.80148" />
  <line class="fil0 str0" x1="4.93368" y1="3.44487" x2="4.93368" y2= "3.69487" />
  <line class="fil0 str0" x1="4.1865" y1="6.72328" x2="4.8268" y2= "6.08298" />
  <line class="fil0 str0" x1="5.13053" y1="3.44487" x2="5.13053" y2= "3.69487" />
  <line class="fil0 str0" x1="5.32738" y1="2.45412" x2="5.32738" y2= "2.85432" />
  <line class="fil0 str0" x1="5.38053" y1="3.44487" x2="5.38053" y2= "3.69487" />
  <line class="fil0 str0" x1="5.4258" y1="2.20412" x2="5.4258" y2= "2.45412" />
  <line class="fil0 str0" x1="4.93368" y1="3.44487" x2="4.73683" y2= "2.85432" />
  <line class="fil0 str0" x1="5.54391" y1="3.24802" x2="5.54391" y2= "3.09054" />
  <line class="fil0 str0" x1="5.63446" y1="3.44487" x2="5.63446" y2= "3.24802" />
  <line class="fil0 str0" x1="5.63446" y1="3.09054" x2="5.63446" y2= "2.9055" />
  <line class="fil0 str0" x1="5.67187" y1="6.16959" x2="5.67187" y2= "5.99637" />
  <line class="fil0 str0" x1="5.80769" y1="3.44487" x2="5.80769" y2= "3.24802" />
  <line class="fil0 str0" x1="5.80769" y1="3.09054" x2="5.80769" y2= "2.9055" />
  <line class="fil0 str0" x1="5.85691" y1="6.26015" x2="5.85691" y2= "6.16959" />
  <line class="fil0 str0" x1="5.85691" y1="5.99637" x2="5.85691" y2= "5.90581" />
  <line class="fil0 str0" x1="5.89824" y1="3.24802" x2="5.89824" y2= "3.09054" />
  <line class="fil0 str0" x1="6.01439" y1="6.26015" x2="6.01439" y2= "6.16959" />
  <line class="fil0 str0" x1="6.01439" y1="5.99637" x2="6.01439" y2= "5.90581" />
  <path class="fil0 str0" d="M6.70533 2.85432l0 0m0 0l-0.19685 0.590551"/>
  <line class="fil0 str0" x1="6.01635" y1="2.45412" x2="6.01635" y2= "2.20412" />
  <line class="fil0 str0" x1="6.06163" y1="3.44487" x2="6.06163" y2= "3.69487" />
  <path class="fil0 str0" d="M6.11478 2.45412l0 0m0 0.400201l0 -0.400201"/>
  <path class="fil0 str0" d="M6.21123 5.7877l0 0m0 0l0 0.208661"/>
  <path class="fil0 str0" d="M6.21123 6.16959l0 0m0 0l0 0.208661"/>
  <path class="fil0 str0" d="M6.31163 3.44487l0 0m0 0l0 0.25"/>
  <path class="fil0 str0" d="M6.46123 6.37826l0 0m0 0.0984252l0 -0.0984252"/>
  <path class="fil0 str0" d="M6.46123 5.68928l0 0m0 0.0984252l0 -0.0984252"/>
  <line class="fil0 str0" x1="6.31163" y1="3.44487" x2="6.11478" y2= "2.85432" />
  <path class="fil0 str0" d="M6.50848 3.44487l0 0m0 0l0 0.25"/>
  <path class="fil0 str0" d="M6.70533 2.45412l0 0m0 0l0 0.400201"/>
  <path class="fil0 str0" d="M6.75848 3.44487l0 0m0 0l0 0.25"/>
  <path class="fil0 str0" d="M6.80375 2.20412l0 0m0 0l0 0.25"/>
  <path class="fil0 str0" d="M6.92186 3.09054l0 0m0 0.15748l0 -0.15748"/>
  <path class="fil0 str0" d="M7.01241 3.24802l0 0m0 0.19685l0 -0.19685"/>
  <path class="fil0 str0" d="M7.01241 2.9055l0 0m0 0.185039l0 -0.185039"/>
  <path class="fil0 str0" d="M7.18564 3.24802l0 0m0 0.19685l0 -0.19685"/>
  <path class="fil0 str0" d="M7.18564 2.9055l0 0m0 0.185039l0 -0.185039"/>
  <path class="fil0 str0" d="M7.27619 3.09054l0 0m0 0.15748l0 -0.15748"/>
  <path class="fil0 str0" d="M7.3943 2.20412l0 0m0 0.25l0 -0.25"/>
  <path class="fil0 str0" d="M7.43958 3.44487l0 0m0 0l0 0.25"/>
  <path class="fil0 str0" d="M7.49273 2.45412l0 0m0 0.400201l0 -0.400201"/>
  <path class="fil0 str0" d="M7.68958 3.44487l0 0m0 0l0 0.25"/>
  <line class="fil0 str0" x1="7.68958" y1="3.44487" x2="7.49273" y2= "2.85432" />
  <path class="fil0 str0" d="M-5.62144 6.22819c0,0.104417 0.0414803,0.204555 0.115311,0.27839 0.0738346,0.0738346 0.173972,0.115311 0.27839,0.115311"/>
  <path class="fil0 str0" d="M-4.65728 5.46482c0,-0.0478346 -0.0387795,-0.0866142 -0.0866142,-0.0866142 -0.0478346,0 -0.0866142,0.0387795 -0.0866142,0.0866142 0,0.0478346 0.0387795,0.0866142 0.0866142,0.0866142 0.0478346,0 0.0866142,-0.0387795 0.0866142,-0.0866142z"/>
  <path class="fil0 str0" d="M-2.05017 5.46482c0,-0.0478346 -0.0387795,-0.0866142 -0.0866142,-0.0866142 -0.0478386,0 -0.0866142,0.0387795 -0.0866142,0.0866142 0,0.0478346 0.0387756,0.0866142 0.0866102,0.0866142 0.0478386,0 0.0866181,-0.0387795 0.0866181,-0.0866142z"/>
  <path class="fil0 str0" d="M-5.22774 1.70063c-0.104417,0 -0.204555,0.0414803 -0.27839,0.115315 -0.0738307,0.0738307 -0.115311,0.173972 -0.115311,0.278386"/>
  <path class="fil0 str0" d="M-4.65728 2.85771c0,-0.0478386 -0.0387795,-0.0866142 -0.0866142,-0.0866142 -0.0478346,0 -0.0866142,0.0387756 -0.0866142,0.0866102 0,0.0478386 0.0387795,0.0866142 0.0866142,0.0866181 0.0478346,0 0.0866142,-0.0387795 0.0866142,-0.0866142z"/>
  <path class="fil0 str0" d="M-2.05017 2.85771c0,-0.0478386 -0.0387795,-0.0866142 -0.0866142,-0.0866142 -0.0478386,0 -0.0866142,0.0387756 -0.0866142,0.0866102 0,0.0478386 0.0387756,0.0866142 0.0866102,0.0866181 0.0478386,0 0.0866181,-0.0387795 0.0866181,-0.0866142z"/>
  <path class="fil0 str0" d="M-0.277051 5.43024c0,-0.0345157 -0.0279843,-0.0625 -0.0625,-0.0625 -0.0345157,0 -0.0625,0.0279843 -0.0625,0.0625 0,0.0345157 0.0279843,0.0625 0.0625,0.0625 0.0345157,0 0.0625,-0.0279843 0.0625,-0.0625z"/>
  <path class="fil0 str0" d="M-0.277051 4.33024c0,-0.0345157 -0.0279843,-0.0625 -0.0625,-0.0625 -0.0345157,0 -0.0625,0.0279843 -0.0625,0.0625 0,0.0345157 0.0279843,0.0625 0.0625,0.0625 0.0345157,0 0.0625,-0.0279843 0.0625,-0.0625z"/>
  <path class="fil0 str0" d="M4.09903 4.11448c-0.794689,0.158941 -1.41587,0.780118 -1.5748,1.5748"/>
  <path class="fil0 str0" d="M2.52423 6.47668c0.158937,0.794689 0.780114,1.41587 1.5748,1.5748"/>
  <path class="fil0 str0" d="M4.88643 8.05148c0.794685,-0.158937 1.41586,-0.780114 1.5748,-1.5748"/>
  <path class="fil0 str0" d="M6.46123 5.68928c-0.158937,-0.794685 -0.780114,-1.41586 -1.5748,-1.5748"/>
  <path class="fil0 str0" d="M1.85887 6.62189c0.104413,0 0.204555,-0.0414764 0.27839,-0.115311 0.0738307,-0.0738346 0.115311,-0.173972 0.115311,-0.27839"/>
  <path class="fil0 str0" d="M4.00028 6.60496c0,-0.0163071 -0.0132205,-0.0295276 -0.0295276,-0.0295276 -0.0163071,0 -0.0295276,0.0132205 -0.0295276,0.0295276 0,0.0163071 0.0132205,0.0295276 0.0295276,0.0295276 0.0163071,0 0.0295276,-0.0132205 0.0295276,-0.0295276z"/>
  <path class="fil0 str0" d="M4.73801 5.86723c0,-0.0163071 -0.0132205,-0.0295276 -0.0295276,-0.0295276 -0.016311,0 -0.0295276,0.0132205 -0.0295276,0.0295276 0,0.0163071 0.0132165,0.0295276 0.0295276,0.0295276 0.0163071,0 0.0295276,-0.0132205 0.0295276,-0.0295276z"/>
  <path class="fil0 str0" d="M2.80769 1.92263c-0.117276,0.0511811 -0.202358,0.156161 -0.228146,0.281496"/>
  <path class="fil0 str0" d="M3.3508 2.20412c-0.0257835,-0.125335 -0.11087,-0.230315 -0.228142,-0.281496"/>
  <path class="fil0 str0" d="M4.18565 1.92263c-0.117276,0.0511811 -0.202358,0.156161 -0.228146,0.281496"/>
  <path class="fil0 str0" d="M4.72875 2.20412c-0.0257835,-0.125335 -0.11087,-0.230315 -0.228142,-0.281496"/>
  <path class="fil0 str0" d="M5.5636 1.92263c-0.117276,0.0511811 -0.202358,0.156161 -0.228146,0.281496"/>
  <path class="fil0 str0" d="M6.1067 2.20412c-0.0257795,-0.125335 -0.110866,-0.230315 -0.228138,-0.281496"/>
  <path class="fil0 str0" d="M6.94155 1.92263c-0.117276,0.0511811 -0.202358,0.156161 -0.228146,0.281496"/>
  <path class="fil0 str0" d="M7.48465 2.20412c-0.0257835,-0.125335 -0.11087,-0.230315 -0.228142,-0.281496"/>
  <path class="fil0 str0" d="M2.25257 2.09433c0,-0.104413 -0.0414803,-0.204555 -0.115311,-0.278386 -0.0738346,-0.0738346 -0.173976,-0.115315 -0.27839,-0.115315"/>
  <path class="fil0 str0" d="M3.05179 2.32912c0,-0.0478386 -0.0387795,-0.0866142 -0.0866142,-0.0866142 -0.0478346,0 -0.0866142,0.0387756 -0.0866142,0.0866142 0,0.0478346 0.0387756,0.0866142 0.0866142,0.0866142 0.0478346,0 0.0866142,-0.0387795 0.0866142,-0.0866142z"/>
  <path class="fil0 str0" d="M4.42974 2.32912c0,-0.0478386 -0.0387795,-0.0866142 -0.0866142,-0.0866142 -0.0478346,0 -0.0866142,0.0387756 -0.0866142,0.0866142 0,0.0478346 0.0387756,0.0866142 0.0866142,0.0866142 0.0478346,0 0.0866142,-0.0387795 0.0866142,-0.0866142z"/>
  <path class="fil0 str0" d="M5.80769 2.32912c0,-0.0478386 -0.0387795,-0.0866142 -0.0866142,-0.0866142 -0.0478346,0 -0.0866142,0.0387756 -0.0866142,0.0866142 0,0.0478346 0.0387756,0.0866142 0.0866142,0.0866142 0.0478346,0 0.0866142,-0.0387795 0.0866142,-0.0866142z"/>
  <path class="fil0 str0" d="M7.18564 2.32912c0,-0.0478386 -0.0387795,-0.0866142 -0.0866142,-0.0866142 -0.0478346,0 -0.0866142,0.0387756 -0.0866142,0.0866142 0,0.0478346 0.0387756,0.0866142 0.0866142,0.0866142 0.0478346,0 0.0866142,-0.0387795 0.0866142,-0.0866142z"/>
  <path class="fil0 str0" d="M1.75295 4.17024c0,-0.0345157 -0.0279843,-0.0625 -0.0625,-0.0625 -0.0345157,0 -0.0625,0.0279843 -0.0625,0.0625 0,0.0345157 0.0279843,0.0625 0.0625,0.0625 0.0345157,0 0.0625,-0.0279843 0.0625,-0.0625z"/>
  <path class="fil0 str0" d="M1.66295 6.04024c0,-0.0345157 -0.0279843,-0.0625 -0.0625,-0.0625 -0.0345157,0 -0.0625,0.0279843 -0.0625,0.0625 0,0.0345157 0.0279843,0.0625 0.0625,0.0625 0.0345157,0 0.0625,-0.0279843 0.0625,-0.0625z"/>
  <path class="fil1 str1" d="M1.55278 3.25387c-0.00945276,0.00938583 -0.0185866,0.0240394 -0.0275315,0.0438268 -0.0119213,0.0267638 -0.0223228,0.0450945 -0.0312008,0.0549921 -0.00894488,0.00995669 -0.0228346,0.0149055 -0.0416693,0.0149055 -0.0148425,0 -0.0289882,-0.00621654 -0.042311,-0.0185866 -0.013378,-0.0124331 -0.0201024,-0.0299961 -0.0201024,-0.0527677 0,-0.00996063 0.0017126,-0.0193465 0.00520079,-0.0282913 0.00348819,-0.00887402 0.00520079,-0.0153465 0.00520079,-0.0192795 0,-0.00298031 -0.000759843,-0.00570866 -0.00221654,-0.0081811 -0.00146063,-0.00247244 -0.00418898,-0.00469291 -0.00818504,-0.00672441l0.0609528 -0.00589764 0.00298031 0.00742126c-0.0208031,0.00887795 -0.0349488,0.0180787 -0.0423701,0.0274606 -0.00741732,0.00945276 -0.0111614,0.0215669 -0.0111614,0.0364724 0,0.0187756 0.00520472,0.0317126 0.0156024,0.038626 0.0104016,0.00691339 0.0215669,0.0104016 0.0334882,0.0104016 0.0108465,0 0.0195354,-0.00323622 0.0260039,-0.00964173 0.00640551,-0.0064685 0.0161102,-0.0240354 0.0289882,-0.0527717 0.0098937,-0.0237795 0.0210591,-0.0409055 0.0334213,-0.0513071 0.0123701,-0.0104055 0.0270236,-0.0156063 0.0438898,-0.0156063 0.0178268,0 0.0336811,0.00621654 0.0475748,0.0185866 0.0138228,0.0123661 0.0207992,0.0304409 0.0207992,0.0542283 0,0.00995669 -0.00177559,0.0190906 -0.00520079,0.0275236 -0.00348425,0.00843701 -0.00519685,0.0150984 -0.00519685,0.0200433 0,0.00298031 0.000952756,0.00596457 0.00291339,0.00894488 0.00203543,0.00298031 0.00450394,0.0064685 0.00748425,0.0104016l-0.072874 0.0119252 -0.00298031 -0.00894488c0.0247992,-0.00691339 0.0419252,-0.0166181 0.051311,-0.0289843 0.00938976,-0.0123661 0.0141457,-0.0265118 0.0141457,-0.0423701 0,-0.0168701 -0.00501181,-0.0294882 -0.0149055,-0.0379252 -0.0098937,-0.00837402 -0.0242953,-0.012622 -0.0430709,-0.012622 -0.00995276,0 -0.0195945,0.00469291 -0.0289803,0.0141417zm-0.0483307 -0.208862c0.0178228,-0.0138898 0.0376732,-0.0208071 0.0594291,-0.0208071 0.0247953,0 0.0453504,0.00742126 0.0617126,0.0222638 0.0163661,0.0149094 0.0245433,0.0332402 0.0245433,0.0549921 0,0.0228346 -0.00843701,0.0414134 -0.0253031,0.055752 -0.016811,0.0143976 -0.0371693,0.021563 -0.0609528,0.021563 -0.0217559,0 -0.0416063,-0.00716535 -0.0594291,-0.021563 -0.0178228,-0.0143386 -0.0267677,-0.0329173 -0.0267677,-0.055752 0,-0.0237835 0.00894488,-0.0425591 0.0267677,-0.0564488zm0.00222047 0.0936181c0.0133819,0.0109055 0.0329134,0.0163622 0.0587323,0.0163622 0.025748,0 0.0448386,-0.00520079 0.0572087,-0.0156063 0.0123701,-0.0103976 0.0185866,-0.0230197 0.0185866,-0.0379252 0,-0.016811 -0.00666142,-0.029937 -0.0200472,-0.0393858 -0.0133819,-0.00938976 -0.0319685,-0.0140827 -0.055748,-0.0140827 -0.0258189,0 -0.0453504,0.00520079 -0.0587323,0.0156024 -0.0133858,0.0104055 -0.0200433,0.0230236 -0.0200433,0.0378661 0,0.0138898 0.00665748,0.0262598 0.0200433,0.0371693zm-0.113724 -0.170937l0 -0.0163622c0,-0.00887795 -0.00101181,-0.017315 -0.00298031,-0.0252441 -0.00196457,-0.00792913 -0.00494488,-0.0153504 -0.00894094,-0.0223268l0 -0.00297638 0.245331 0c0.00392913,0 0.00691339,-0.0012126 0.00887795,-0.0036811 0.0020315,-0.00247244 0.00298031,-0.00570866 0.00298031,-0.00970472l0 -0.034189 0.00894094 0 0 0.115941 -0.00894094 0 0 -0.034185c0,-0.00494488 -0.000948819,-0.00837008 -0.00298031,-0.0104016 -0.00196457,-0.00196457 -0.00494882,-0.00298031 -0.00887795,-0.00298031l-0.212606 0c-0.00393307,0 -0.00690945,0.00101575 -0.00894488,0.00298031 -0.00196063,0.0020315 -0.00291339,0.00545669 -0.00291339,0.0104016l0 0.0327283 -0.00894488 0zm0.250465 -0.254906c0.00349213,0.00836614 0.00520472,0.0185157 0.00520472,0.0304409 0,0.0178228 -0.00418898,0.0317165 -0.012622,0.0416063 -0.00843307,0.0098937 -0.0180748,0.0149055 -0.0289843,0.0149055 -0.0178268,0 -0.0324724,-0.00767323 -0.0438268,-0.0230827 -0.0114173,-0.0153504 -0.0196024,-0.0457992 -0.0245472,-0.0914016l-0.0178189 0c-0.00996063,0 -0.0181417,0.00222047 -0.0245472,0.00666142 -0.00647244,0.00450394 -0.00964173,0.0146535 -0.00964173,0.0305039 0,0.016811 0.00272441,0.0287362 0.00811811,0.0356496 0.00545276,0.00697638 0.0111614,0.00945276 0.017126,0.00748425 0.00393307,-0.00202756 0.00792913,-0.00202756 0.0118622,0 0.00399213,0.0019685 0.00595669,0.00589764 0.00595669,0.0118622 0,0.00399213 -0.00120472,0.00716142 -0.00367323,0.0096378 -0.00248031,0.00247244 -0.00621654,0.00374016 -0.0111654,0.00374016 -0.00894488,0 -0.017378,-0.0064685 -0.0253071,-0.0193425 -0.00792913,-0.012874 -0.0118622,-0.0287323 -0.0118622,-0.0475709 0,-0.0197874 0.00374409,-0.0346929 0.0111654,-0.0445866 0.00742126,-0.0098937 0.0180748,-0.0148425 0.0319685,-0.0148425l0.0980512 0c0.00792913,0 0.012689,-0.000755906 0.0141457,-0.00222047 0.00152362,-0.00152362 0.00222047,-0.00424409 0.00222047,-0.00817717 0,-0.00494882 -0.00222047,-0.00843701 -0.00666142,-0.0104055 -0.00443701,-0.00202756 -0.0106535,-0.00298031 -0.0185827,-0.00298031l0 -0.00742126c0.0138898,0 0.0235315,0.00247638 0.0289882,0.00742126 0.00544882,0.00494882 0.00817717,0.0113543 0.00817717,0.0192835 0,0.00697244 -0.00152362,0.0124291 -0.00450394,0.0163622 -0.00291339,0.00399606 -0.0079252,0.00697638 -0.0148386,0.00894094 0.00691339,0.00989764 0.0121732,0.0190945 0.0155984,0.0275315zm-0.0757874 0.0423031c0.00938583,0.012937 0.0210512,0.0193465 0.0349449,0.0193465 0.00887795,0 0.017063,-0.00272835 0.0244843,-0.00818504 0.00748425,-0.00545276 0.0111614,-0.0140787 0.0111614,-0.0260039 0,-0.00894488 -0.0017126,-0.0178268 -0.00520079,-0.0267638 -0.00348819,-0.00888189 -0.00868898,-0.0183307 -0.0156024,-0.0282283l-0.0698976 0c0.00399606,0.0336772 0.0106575,0.0569567 0.0201102,0.0698346zm-0.0943819 -0.205122l0.0534685 0c-0.0158543,-0.00989764 -0.0279685,-0.0205472 -0.0364055,-0.0319646 -0.00843701,-0.0113543 -0.012622,-0.0230276 -0.012622,-0.0349528 0,-0.00988976 0.00222047,-0.017563 0.00666142,-0.0230197 0.00450394,-0.00545276 0.00970472,-0.0081811 0.0156024,-0.0081811 0.00501181,0 0.00894488,0.00126772 0.0119252,0.00374016 0.00298031,0.00247638 0.00444094,0.00615354 0.00444094,0.0111654 0,0.00494882 -0.00146063,0.00862598 -0.00444094,0.0110945 -0.00298031,0.00248031 -0.00691339,0.00323622 -0.0119252,0.00228346 -0.00291732,0 -0.00538976,0.000444882 -0.00742126,0.00146063 -0.00196457,0.00101575 -0.00298031,0.00393307 -0.00298031,0.00894488 0,0.0079252 0.00501181,0.0175669 0.0149055,0.0289843 0.0098937,0.0113543 0.0237835,0.0215 0.0416063,0.0304449l0.0802992 0c0.00392913,0 0.00691339,-0.00120472 0.00887795,-0.0036811 0.0020315,-0.00253543 0.00298031,-0.00570866 0.00298031,-0.00970472l0 -0.0326614 0.00894094 0 0 0.10998 -0.00894094 0 0 -0.0297441c0,-0.00494882 -0.000948819,-0.00843701 -0.00298031,-0.0104055 -0.00196457,-0.00196457 -0.00494882,-0.00298031 -0.00887795,-0.00298031l-0.123429 0c-0.00393307,0 -0.00716535,0.00101575 -0.00964173,0.00298031 -0.00247244,0.0019685 -0.00374016,0.00545669 -0.00374016,0.0104055l0 0.0282205 -0.00888189 0 0 -0.0118622c0,-0.00690945 -0.000759843,-0.0150906 -0.00222047,-0.0245433 -0.00151969,-0.00938583 -0.00323228,-0.0165551 -0.00520079,-0.0215669l0 -0.00443701zm0.309201 0.896402l0 0.00444094 -0.00894488 0 0 -0.0535315 0.00894488 0 0 0.00596457c0,0.00399606 0.00146063,0.00767323 0.00444094,0.0111614 0.00298031,0.00348819 0.00843701,0.00621654 0.0163661,0.00818504l0.224461 0.0609488 0 0.00888189 -0.224461 0.0550551c-0.00698031,0.000948819 -0.0121811,0.00272441 -0.0156063,0.00520079 -0.00348819,0.00247244 -0.00520079,0.00614567 -0.00520079,0.0110945l0 0.00748425 -0.00894488 0 0 -0.0639331 0.00894488 0 0 0.00596457c0,0.00494488 0.00146063,0.0081811 0.00444094,0.00964173 0.00298031,0.00145669 0.00691339,0.0017126 0.0118622,0.000759843l0.173976 -0.0416693 0 -0.00291732 -0.169472 -0.0446535c-0.00698031,-0.00196457 -0.0121811,-0.00196457 -0.0156063,0 -0.00348819,0.0020315 -0.00520079,0.00596457 -0.00520079,0.0119213zm0.102559 -0.211079c0.0178228,-0.0138898 0.0376772,-0.0208071 0.0594291,-0.0208071 0.0247992,0 0.0453543,0.00742126 0.0617126,0.0222638 0.0163661,0.0149094 0.0245472,0.0332362 0.0245472,0.0549921 0,0.0228346 -0.00843701,0.0414134 -0.0253071,0.055752 -0.0168071,0.0143976 -0.0371654,0.021563 -0.0609528,0.021563 -0.021752,0 -0.0416063,-0.00716535 -0.0594291,-0.021563 -0.0178189,-0.0143386 -0.0267638,-0.0329173 -0.0267638,-0.055752 0,-0.0237874 0.00894488,-0.0425591 0.0267638,-0.0564488zm0.00222047 0.0936142c0.0133819,0.0109094 0.0329173,0.0163661 0.0587323,0.0163661 0.025752,0 0.0448425,-0.00520079 0.0572087,-0.0156063 0.0123701,-0.0104016 0.0185866,-0.0230197 0.0185866,-0.0379252 0,-0.016811 -0.00666142,-0.0299409 -0.0200472,-0.0393858 -0.013378,-0.00938976 -0.0319646,-0.0140827 -0.055748,-0.0140827 -0.025815,0 -0.0453504,0.00520079 -0.0587323,0.0156024 -0.0133819,0.0104016 -0.0200394,0.0230236 -0.0200394,0.0378661 0,0.0138898 0.00665748,0.0262598 0.0200394,0.0371654zm-0.113724 -0.170933l0 -0.0163661c0,-0.00887402 -0.00101181,-0.017311 -0.00298031,-0.0252402 -0.00196457,-0.00792913 -0.00494488,-0.0153504 -0.00893701,-0.0223268l0 -0.00298031 0.245327 0c0.00392913,0 0.00691339,-0.00120866 0.00887795,-0.0036811 0.0020315,-0.00247244 0.00298031,-0.00570866 0.00298031,-0.00970079l0 -0.034189 0.00894488 0 0 0.115941 -0.00894488 0 0 -0.034185c0,-0.00494488 -0.000948819,-0.00837008 -0.00298031,-0.0104016 -0.00196457,-0.00196457 -0.00494882,-0.00298031 -0.00887795,-0.00298031l-0.212602 0c-0.00393307,0 -0.00691339,0.00101575 -0.00894488,0.00298031 -0.00196457,0.0020315 -0.00291732,0.00545669 -0.00291732,0.0104016l0 0.0327283 -0.00894488 0zm0.0966024 -0.240831l0.110043 0c0.0138898,0 0.0232717,-0.00247244 0.0282205,-0.00742126 0.00494882,-0.00494488 0.00742126,-0.0123622 0.00742126,-0.0223228 0,-0.0098937 -0.00316929,-0.0178228 -0.00964173,-0.0237874 -0.0064685,-0.00589764 -0.0155984,-0.0098937 -0.0275236,-0.0118583l0.00298031 -0.00742126c0.0138937,0.00196457 0.0253071,0.00716535 0.034185,0.0156024 0.00894488,0.00843701 0.0133858,0.0195354 0.0133858,0.0334291 0,0.0149016 -0.00444094,0.026 -0.0133858,0.0334843 -0.00887795,0.00742126 -0.0227677,0.0111024 -0.0416063,0.0111024l-0.104079 0 0 0.0445866 -0.00888189 0 0 -0.0118622c0,-0.0119252 -0.00374016,-0.021563 -0.0111614,-0.0289843 -0.00742126,-0.00742126 -0.0190945,-0.0121772 -0.0349488,-0.0141457l-0.0118583 -0.00145669 0 -0.00894488 0.0579685 0 0 -0.0594291 0.00888189 0 0 0.0594291zm0.153866 -0.204354c0.00349213,0.00836614 0.00520472,0.0185157 0.00520472,0.0304409 0,0.0178228 -0.00418898,0.0317165 -0.012626,0.0416063 -0.00843307,0.0098937 -0.0180748,0.0149055 -0.0289803,0.0149055 -0.0178268,0 -0.0324764,-0.00767323 -0.0438307,-0.0230827 -0.0114134,-0.0153504 -0.0195984,-0.0457992 -0.0245433,-0.0914016l-0.0178228 0c-0.00996063,0 -0.0181417,0.00222047 -0.0245433,0.00666142 -0.00647244,0.00450394 -0.00964173,0.0146535 -0.00964173,0.0305039 0,0.016811 0.00272441,0.0287362 0.00811811,0.0356496 0.00544882,0.00697638 0.0111575,0.00945276 0.017122,0.00748425 0.00393307,-0.00202756 0.00792913,-0.00202756 0.0118622,0 0.00399606,0.0019685 0.00596063,0.00589764 0.00596063,0.0118622 0,0.00399213 -0.00120472,0.00716142 -0.00367717,0.0096378 -0.00247638,0.00247244 -0.00621654,0.00374016 -0.0111654,0.00374016 -0.00894488,0 -0.017374,-0.0064685 -0.0253031,-0.0193425 -0.00792913,-0.012874 -0.0118622,-0.0287323 -0.0118622,-0.0475709 0,-0.0197874 0.00374409,-0.0346929 0.0111654,-0.0445866 0.00742126,-0.0098937 0.0180709,-0.0148425 0.0319646,-0.0148425l0.0980512 0c0.00792913,0 0.012689,-0.000755906 0.0141457,-0.00222047 0.00152362,-0.00152362 0.00222047,-0.00424409 0.00222047,-0.00817717 0,-0.00494882 -0.00222047,-0.00843701 -0.00666142,-0.0104055 -0.00443701,-0.00202756 -0.0106535,-0.00298031 -0.0185787,-0.00298031l0 -0.00742126c0.0138858,0 0.0235276,0.00247638 0.0289843,0.00742126 0.00545276,0.00494882 0.0081811,0.0113543 0.0081811,0.0192835 0,0.00697244 -0.00152362,0.0124291 -0.00450394,0.0163622 -0.00291732,0.00399606 -0.00792913,0.00697638 -0.0148425,0.00894094 0.00691339,0.00989764 0.0121772,0.0190945 0.0156024,0.0275315zm-0.0757913 0.0423031c0.00938583,0.012937 0.0210551,0.0193465 0.0349488,0.0193465 0.00887402,0 0.0170591,-0.00272835 0.0244803,-0.00818504 0.00748425,-0.00545276 0.0111614,-0.0140787 0.0111614,-0.0260039 0,-0.00894488 -0.0017126,-0.0178268 -0.00520079,-0.0267638 -0.00348819,-0.00888189 -0.00868898,-0.0183307 -0.0156024,-0.0282283l-0.0698937 0c0.00399606,0.0336772 0.0106535,0.0569567 0.0201063,0.0698346zm-0.068374 -0.1925c0.00742126,0.00748425 0.0195354,0.0111614 0.0364094,0.0111614 0.0118583,0 0.0220669,-0.00348819 0.0304409,-0.0104016 0.00843701,-0.00691339 0.012685,-0.0163661 0.012685,-0.0282205 0,-0.012878 -0.00374016,-0.0225827 -0.0111614,-0.0289882 -0.00742126,-0.0064685 -0.0180748,-0.00970472 -0.0319646,-0.00970472 -0.016874,0 -0.0289882,0.00374016 -0.0364094,0.0111614 -0.00741732,0.00742126 -0.0111614,0.016622 -0.0111614,0.0275315 0,0.0109055 0.00374409,0.0200394 0.0111614,0.0274606zm0.112965 -0.034185c0.00145276,-0.0104016 0.00272835,-0.0195354 0.00373622,-0.0274646 0.0019685,-0.0149055 0.00615354,-0.025811 0.012622,-0.0327283 0.00640945,-0.00691339 0.0150984,-0.0104016 0.0260079,-0.0104016 0.0148425,0 0.0267638,0.00621654 0.0356417,0.0185866 0.00894488,0.0123622 0.0133858,0.0319646 0.0133858,0.0587323 0,0.0207992 -0.00418504,0.0376102 -0.012622,0.0505472 -0.00843701,0.012874 -0.0180787,0.0192795 -0.0289843,0.0192795 -0.00691339,0 -0.0138898,-0.00247244 -0.0208031,-0.00742126 -0.00691732,-0.00494488 -0.0123701,-0.0128701 -0.0163661,-0.0237835 -0.00298031,0.00596457 -0.00615354,0.0106575 -0.00964173,0.0141457 -0.00348425,0.0034252 -0.00766929,0.00520079 -0.0126181,0.00520079 -0.00596457,0 -0.0111654,-0.00196457 -0.0156063,-0.00596063 -0.0045,-0.00393307 -0.0081811,-0.00894488 -0.0111614,-0.0148425 -0.00494882,0.00589764 -0.0109094,0.0110984 -0.0178189,0.0156024 -0.00698031,0.00444094 -0.0144016,0.00666142 -0.0223268,0.00666142 -0.0148425,0 -0.0279724,-0.00520079 -0.0393858,-0.0156024 -0.0114173,-0.0104055 -0.017126,-0.0249921 -0.017126,-0.0438268 0,-0.00792913 0.00101181,-0.0156063 0.00298031,-0.0230906 0.00196457,-0.00742126 0.00545276,-0.0135748 0.0104016,-0.0185827 -0.00494882,-0.00691339 -0.00862598,-0.013126 -0.0110984,-0.0185197 -0.00253937,-0.00545276 -0.00374409,-0.0102126 -0.00374409,-0.0141457 0,-0.00494488 0.0017126,-0.00843307 0.00520079,-0.0104016 0.00348819,-0.00196457 0.00666142,-0.00298031 0.00964173,-0.00298031 0.00399606,0 0.00722835,0.000759843 0.00970079,0.00222047 0.00247244,0.00152362 0.00367717,0.00418504 0.00367717,0.0081811 0,0.00298031 -0.00069685,0.00545669 -0.00221654,0.00742126 -0.00146063,0.0019685 -0.00374409,0.00348819 -0.00665748,0.00444094 -0.00298031,0.00101575 -0.00425197,0.00323622 -0.00374409,0.00672441 0.000507874,0.00348819 0.00221654,0.00716142 0.00519685,0.0111575 0.00399606,-0.00399606 0.00938976,-0.00697638 0.0163661,-0.00893701 0.00691339,-0.0019685 0.0138898,-0.00298819 0.0208071,-0.00298819 0.0118583,0 0.0235276,0.00470079 0.0349449,0.0141457 0.0113543,0.00938976 0.017063,0.0245472 0.017063,0.0453543 0,0.0058937 -0.000700787,0.0113504 -0.00222047,0.0163583 -0.00146063,0.00494882 -0.00323622,0.00888189 -0.00520079,0.0118622 0.00196457,0.00399606 0.00443701,0.00691339 0.00742126,0.00894488 0.00298031,0.00196457 0.00545276,0.00298031 0.00742126,0.00298031 0.00399606,0 0.00697638,-0.00101575 0.00894094,-0.00298031 0.0019685,-0.0020315 0.00298425,-0.00494882 0.00298425,-0.00894488 0.00196457,-0.012874 0.00374016,-0.0245472 0.00520079,-0.0349449zm0.0207992 -0.0036811c-0.00145669,0.0118583 -0.00323228,0.0242283 -0.00520079,0.0371693 0.00399606,0.00887795 0.00868898,0.0150945 0.0141457,0.0185827 0.00545276,0.0034252 0.0121142,0.00520079 0.0200433,0.00520079 0.00792913,0 0.0153465,-0.00450394 0.0223228,-0.0133819 0.00691339,-0.00894488 0.0104016,-0.0223268 0.0104016,-0.0401496 0,-0.0168701 -0.00272441,-0.0302559 -0.0081811,-0.0401496 -0.00545669,-0.0098937 -0.0136378,-0.0148386 -0.0245433,-0.0148386 -0.00691339,0 -0.0123701,0.00120079 -0.0163661,0.0036811 -0.00393307,0.0024685 -0.00640551,0.00620866 -0.00742126,0.0111575 -0.00196457,0.0098937 -0.00367717,0.0208071 -0.00520079,0.0327283zm-0.0780157 -0.136811l0 -0.0951378c-0.021815,-0.000948819 -0.0384331,0.00272835 -0.0497874,0.0111614 -0.0114134,0.00843701 -0.017122,0.0195984 -0.017122,0.0334921 0,0.0148425 0.00596457,0.0269528 0.0178189,0.0364055 0.0119252,0.00938583 0.0282913,0.0140787 0.0490906,0.0140787zm0.00888189 -0.120382l0 0.120382c0.0267677,0 0.0458583,-0.00520079 0.0572717,-0.0156024 0.0113543,-0.0104016 0.017063,-0.0240354 0.017063,-0.0408465 0,-0.012874 -0.00367717,-0.0237835 -0.0111614,-0.0327244 -0.00742126,-0.00888189 -0.0165512,-0.0153504 -0.0274606,-0.0193465l0.00298031 -0.00742126c0.0109094,0.00298031 0.021563,0.00970472 0.0319646,0.0201063 0.0104016,0.0103976 0.0156024,0.0244803 0.0156024,0.0423661 0,0.0227677 -0.00748425,0.0413543 -0.0223268,0.055752 -0.0148386,0.0143346 -0.0361496,0.0215039 -0.0639331,0.0215039 -0.0247323,0 -0.0453465,-0.00716929 -0.0616496,-0.0215039 -0.0163622,-0.0143976 -0.0245433,-0.0319685 -0.0245433,-0.0527677 0,-0.0188386 0.00640551,-0.0352047 0.0193465,-0.0490906 0.0128701,-0.0138937 0.0351339,-0.0208071 0.0668465,-0.0208071z"/>
 </g>
 <g id="__x0023_Layer_x0020_1">
  <metadata id="CorelCorpID_1Corel-Layer"/>
  <path class="fil1 str2" d="M7.76698 4.37201l-0.39611 0.554472 -0.320083 0.585984 0 0.310819 0.000582677 0 0 0.000208661 0.19472 0 0 -0.000208661 0.0416654 0 0 -0.199484 0.26378 0 0 -0.196736 -0.0892913 0 0 -0.156736 0.0892913 0 0 -0.194445 0.174598 0 0 0.194445 0.091248 0 0 0.156736 -0.091248 0 0 0.196736 0.266709 0 0 0.199319 0.0405827 0 0 5.51181e-005 0.196665 0 0 -0.198083 -0.000165354 0 0 -0.00129134 0.000165354 0 0 -0.195583 -0.0013622 0 -0.143819 -0.829264 -0.317929 -0.226945zm0 0z"/>
  <path class="fil1 str3" d="M7.92784 4.73583l0.0360276 0.0260945 -0.117516 0.162169 -0.0360276 -0.0260984 0.117516 -0.162165zm0 0z"/>
  <path class="fil1 str4" d="M0.488555 3.40489c0.0338622,-0.0338622 0.0886535,-0.0338504 0.122516,1.1811e-005 0.0337913,0.0337913 0.0338031,0.0886378 0,0.122445 -0.0338504,0.0338465 -0.0886535,0.0338465 -0.1225,0 -0.0338071,-0.0338071 -0.0338228,-0.0886535 -1.5748e-005,-0.122457zm0 0z"/>
  <polygon class="fil1 str3" points="0.903445,3.58361 1.1434,3.58361 1.1434,3.3487 0.903445,3.3487 "/>
  <polygon class="fil1 str3" points="-0.0400276,3.58361 0.199929,3.58361 0.199929,3.3487 -0.0400276,3.3487 "/>
  <path class="fil1 str4" d="M0.488555 2.26611c0.0338622,-0.0338622 0.0887087,-0.0338465 0.1225,0 0.0338622,0.0338071 0.033874,0.0886535 1.5748e-005,0.122457 -0.0337913,0.0338504 -0.0886535,0.0338504 -0.1225,0 -0.0338071,-0.0338031 -0.0338071,-0.0886654 -1.5748e-005,-0.122457zm0 0z"/>
  <polygon class="fil1 str3" points="0.903484,2.44482 1.14339,2.44482 1.14339,2.20985 0.903484,2.20985 "/>
  <polygon class="fil1 str3" points="-0.0399724,2.44482 0.199929,2.44482 0.199929,2.20985 -0.0399724,2.20985 "/>
  <path class="fil1 str2" d="M8.83891 4.3789l0.39611 0.554472 0.320098 0.585988 0 0.310874 -0.000653543 0 0 0.000208661 -0.194665 0 0 -0.000208661 -0.0416693 0 0 -0.199484 -0.263776 0 0 -0.196736 0.0893031 0 0 -0.156791 -0.0893031 0 0 -0.194445 -0.174587 0 0 0.194445 -0.0912638 0 0 0.156791 0.0912638 0 0 0.196736 -0.266705 0 0 0.199319 -0.237307 0 0 -0.198028 0.000153543 0 0 -0.00129134 -0.000153543 0 0 -0.195587 0.00134646 0 0.143835 -0.829319 0.317972 -0.226945zm0 0z"/>
  <path class="fil1 str3" d="M8.67799 4.74272l-0.0359567 0.0261496 0.117496 0.162169 0.0360315 -0.0261535 -0.117571 -0.162165zm0 0z"/>
 </g>
</svg>
